<svg width="784" height="264" viewBox="0 0 784 264" fill="none" xmlns="http://www.w3.org/2000/svg">
<path d="M27.5744 64.5352C25.0914 68.1738 23.1965 71.7033 21.8025 75.2983C17.2939 76.1262 14.3535 75.1022 13.1773 72.4005C11.9793 69.7207 12.1972 66.4743 13.6565 62.9229C15.1158 59.3498 17.577 55.9073 20.9095 52.356C24.2419 48.7828 27.5526 46.1683 30.6455 44.5342C61.6178 31.7667 91.7189 23.5092 124.586 17.169C128.158 16.6026 129.465 18.3238 128.768 22.6595C128.071 26.9952 126.35 32.0935 123.628 37.9326C120.905 43.7717 117.42 49.5672 113.173 54.8398C108.926 60.1124 104.395 63.0755 99.4511 63.7944C100.039 59.3498 100.235 55.1884 100.104 51.1794C99.9956 47.1705 99.4511 44.4689 98.3402 42.9873C92.1763 43.9024 89.127 44.4035 83.0501 45.4929C65.3641 109.439 70.6133 167.482 93.3524 229.424C94.9207 233.149 96.38 235.698 97.665 237.18C98.9501 238.661 100.322 239.903 101.76 240.753C103.481 241.755 104.983 243.52 106.16 246.004C107.249 248.313 107.161 249.294 105.659 248.793C90.2378 243.782 82.767 240.535 68.9144 232.539C67.564 231.755 66.1046 230.317 64.7542 228.378C63.3167 226.286 63.186 225.436 64.2097 225.633C64.9503 225.763 65.3859 225.393 65.3641 224.609C65.3641 223.824 64.384 221.798 62.5762 218.486C36.461 161.991 30.5584 112.381 49.2245 52.5738C43.3655 53.99 40.4469 54.7308 34.7185 56.3213C32.4969 58.195 30.0574 60.9403 27.5744 64.5788V64.5352Z" fill="white"/>
<path d="M135.694 27.4527C135.389 26.0147 134.692 24.9689 133.647 24.5767C132.318 24.0756 132.057 22.4198 133.342 19.5438C134.518 16.8639 135.999 15.4695 137.676 15.2516C155.079 12.9857 163.879 12.2885 181.477 11.7438C183.176 11.7003 183.46 13.0075 182.436 15.7528C181.325 18.7377 179.713 20.5678 177.905 21.3304C176.49 21.9186 175.074 23.0516 173.789 24.4242C172.504 25.7968 171.175 28.3678 169.955 32.2895C162.898 63.0972 159.653 92.1618 158.956 123.754C173.331 123.427 180.519 123.253 194.851 122.904C194.611 92.9679 197.377 62.9229 204.413 33.7929C205.567 29.1957 206.003 26.189 205.589 24.6203C205.175 23.0516 204.391 21.8315 203.28 21.2432C201.886 20.5025 201.494 18.6723 202.54 15.7092C203.52 12.964 204.892 11.6567 206.591 11.7003C224.19 12.1578 232.989 12.8114 250.414 14.9902C252.091 15.2081 252.483 16.5807 251.655 19.1952C250.762 22.0276 249.325 23.6399 247.539 24.141C246.058 24.5549 244.642 25.5572 243.379 26.9734C242.115 28.3896 240.917 31.2437 239.894 35.6884C227.871 103.121 231.377 167.961 241.44 235.393C242.072 238.509 242.878 240.601 243.858 241.69C244.86 242.779 245.97 243.389 247.147 243.542C248.802 243.76 249.869 245.219 250.283 247.747C250.675 250.1 250.174 251.494 248.606 251.843C232.401 255.394 224.19 256.789 207.723 258.445C206.133 258.597 204.935 257.377 204.326 254.871C203.672 252.17 204.086 250.383 205.567 249.686C206.613 249.185 207.397 248.248 207.876 246.875C208.355 245.503 208.377 243.193 207.919 239.903C201.559 209.706 198.096 179.465 195.635 148.744C181.39 149.267 174.224 149.507 159.914 149.768C162.768 180.227 166.754 210.054 174.29 239.773C175.335 243.912 176.49 246.657 177.666 248.052C178.864 249.468 180.214 250.514 181.608 251.015C183.307 251.625 184.636 253.259 185.398 255.983C186.095 258.51 185.747 259.839 184.157 259.883C167.581 260.231 159.392 259.795 143.1 257.442C141.531 257.224 140.159 255.808 139.245 253.346C138.243 250.688 138.569 249.207 139.854 248.793C140.878 248.466 141.597 247.529 141.945 246.243C142.294 244.958 141.815 242.322 140.551 238.247C120.404 171.577 117.442 103.949 133.952 36.3638C135.346 31.832 135.977 28.9125 135.694 27.4745V27.4527Z" fill="white"/>
<path d="M249.913 247.55C249.521 245.197 250.087 243.519 251.59 242.626C253.093 241.733 254.334 240.207 255.336 238.072C256.142 236.351 256.774 234.761 257.144 233.301C257.188 233.061 257.188 232.93 257.231 232.691C263.025 169.703 271.759 109.482 294.215 50.0456C293.91 48.0847 293.431 46.2327 292.821 44.468C292.19 42.7032 291.362 41.2216 290.316 40.0233C292.647 36.7987 295.304 34.0099 298.245 31.6569C301.185 29.3038 304.169 27.7351 307.175 26.8854C315.822 24.6195 322.029 25.6871 325.863 29.0859C329.696 32.4848 331.439 36.4937 331.439 41.1998C332.789 98.3486 343.244 152.229 359.035 207.025C359.906 208.463 361.496 208.899 363.739 208.572C365.155 208.354 365.874 209.008 365.787 210.38C365.7 211.862 364.981 212.908 363.522 213.518C346.859 220.337 338.343 223.758 321.354 230.011C319.851 230.556 319.023 229.858 318.98 227.941C318.936 225.871 319.742 224.324 321.202 223.366C322.378 222.581 323.423 221.427 324.294 220.076C325.166 218.725 325.231 216.655 324.338 213.736C324.403 213.801 324.447 213.845 324.512 213.932C321.31 201.709 319.416 194.563 315.691 179.333C301.141 181.403 293.475 182.601 278.577 184.78C276.377 202.994 275.549 211.949 274.003 228.442C274.046 231.645 274.656 233.693 275.854 234.586C277.052 235.48 278.38 235.85 279.709 235.894C281.277 235.937 282.257 237.179 282.497 239.358C282.758 241.711 282.192 243.149 280.667 243.606C269.668 246.853 264.136 248.356 252.984 250.927C251.416 251.276 250.349 250.164 249.935 247.615L249.913 247.55ZM310.638 158.112C305.476 133.884 301.229 110.201 297.831 85.6465C290.534 110.201 285.546 135.387 281.865 160.705C293.409 159.572 299.312 159.005 310.638 158.112Z" fill="white"/>
<path d="M427.492 68.174C426.664 67.7165 425.575 67.5204 424.312 67.6729C422.722 67.869 421.785 67.3025 421.655 65.9735C421.524 64.7316 422.264 63.9036 423.854 63.3589C433.569 59.9819 438.295 57.8903 447.748 53.6417C449.294 52.9445 450.166 53.1842 450.405 54.426C450.645 55.7769 449.948 56.997 448.51 57.9992C447.465 58.74 446.594 59.6551 445.962 60.6137C445.33 61.5506 445.091 62.945 445.265 64.9059C450.623 99.657 462.21 139.245 455.11 174.323C454.696 175.434 453.607 176.306 451.799 177.025C446.768 178.964 444.263 179.944 439.275 181.949C437.99 182.472 437.119 182.646 436.618 182.472C436.117 182.297 435.572 181.818 434.897 180.838C410.198 155.782 391.532 132.404 375.632 100.79C378.616 132.121 383.843 163.233 386.261 194.607C386.37 196.634 386.675 197.832 387.35 198.246C388.025 198.66 388.94 198.791 390.072 198.594C391.51 198.333 392.25 198.769 392.207 199.902C392.163 200.969 391.466 201.819 390.007 202.429C381.033 206.22 376.568 208.094 367.595 211.798C366.135 212.408 365.373 211.994 365.46 210.621C365.547 209.14 366.375 207.919 367.791 207.048C368.945 206.329 369.882 205.414 370.579 204.39C371.276 203.366 371.668 201.775 371.624 199.466C370.252 156.392 363.042 113.863 366.723 70.636C366.854 68.1304 366.81 66.3656 366.593 65.2109C366.375 64.0562 366.048 62.9232 365.525 61.9428C364.872 60.7009 364.589 59.045 364.937 57.2149C365.242 55.5154 365.809 55.2104 366.527 56.1473C371.58 62.6835 372.822 65.7338 379.835 68.6098C381.338 69.2198 382.754 69.7209 383.952 70.2002C385.172 70.6796 386.282 71.1807 387.241 71.7472C388.199 72.3136 389.07 72.9891 389.833 73.817C390.573 74.6449 391.336 75.6471 392.12 76.8019C406.996 95.1906 422.243 113.013 437.816 130.813C434.222 106.803 431.587 93.6219 429.104 72.1393C428.842 69.8952 428.298 68.6098 427.47 68.1304L427.492 68.174Z" fill="white"/>
<path d="M461.993 53.7072C461.078 53.315 459.924 53.2061 458.682 53.4675C457.092 53.7943 456.134 53.315 455.851 51.9642C455.589 50.7005 456.243 49.7636 457.767 49.0664C473.689 41.7458 481.508 37.8676 497.975 32.7257C499.565 32.2246 500.588 32.6168 501.024 33.9676C501.503 35.4274 500.871 36.5604 499.456 37.3883C498.41 37.9983 497.561 38.8481 496.951 39.7849C496.341 40.7 496.21 42.138 496.602 44.186C500.85 61.1803 502.897 70.9629 506.251 90.3103C516.815 71.3333 527.684 52.3781 537.267 32.8565C537.267 32.0939 537.028 31.4621 536.548 30.9609C536.069 30.4598 535.024 30.1112 533.521 29.9805C531.778 29.8498 530.602 29.0654 530.058 27.6275C529.47 26.0805 529.971 25.2308 531.604 24.9694C543.388 23.1174 549.356 22.5292 561.335 21.8973C562.99 21.8102 564.188 22.5727 564.907 24.2504C565.56 25.8191 565.125 26.8649 563.6 27.3006C562.076 27.7364 560.856 28.4336 559.919 29.3922C558.983 30.3509 558.199 31.5056 557.567 32.8783C557.502 32.8783 557.458 32.8783 557.393 32.8783C547.395 52.7267 535.503 71.8562 523.894 90.7896C529.971 87.9572 535.351 87.3036 540.055 88.6544C544.76 90.0053 548.223 92.7069 550.336 96.5633C559.941 116.739 570.962 137.568 571.398 160.575C572.117 161.795 573.358 162.754 575.013 163.56C576.364 164.236 576.647 165.281 575.797 166.458C574.861 167.722 573.641 168.092 572.095 167.656C559.418 164.039 553.037 162.449 540.142 160.837C538.03 160.575 536.962 159.791 536.941 158.331C537.376 143.45 532.062 131.62 520.3 109.81C518.775 107.326 517.12 105.54 515.334 104.494C513.069 108.045 511.914 109.81 509.584 113.362C511.457 131.576 511.784 140.552 508.037 153.059C507.493 154.845 507.406 155.934 507.928 156.414C508.473 156.893 509.322 157.176 510.433 157.22C511.893 157.285 512.372 157.874 511.762 158.919C511.196 159.878 510.128 160.423 508.538 160.619C492.05 162.645 484.035 165.368 468.309 170.924C466.785 171.469 466.196 171.295 466.589 170.401C467.002 169.421 468.026 168.506 469.638 167.722C470.923 167.09 472.077 166.349 473.036 165.499C474.016 164.671 474.778 163.429 475.148 161.708C479.505 127.327 470.182 91.3779 464.062 57.6943C463.648 55.4066 462.973 54.1211 462.036 53.7072H461.993Z" fill="white"/>
<path d="M697.574 188.375C684.135 196.088 668.518 197.962 653.925 194.759C638.33 191.338 631.121 184.562 627.897 174.126C624.674 163.69 625.784 148.352 626.089 124.865C624.478 93.3597 619.228 65.1448 610.342 34.9036C609.209 32.3981 608.077 30.7422 606.966 29.8489C605.855 28.9556 604.57 28.2148 603.219 27.8009C601.433 27.2562 600.061 26.0797 599.234 24.2713C598.471 22.5936 598.907 21.8311 600.584 21.8964C617.943 22.7244 626.677 23.5741 644.124 25.6221C645.801 25.8182 647.13 26.7769 648.023 28.5852C648.981 30.5243 648.567 31.5919 647.173 31.8969C646.193 32.1148 645.409 32.7031 644.93 33.4874C644.451 34.2718 644.668 35.9059 645.518 38.4768C657.693 71.1146 663.487 107.718 660.59 142.425C659.697 150.203 658.826 156.456 658.434 161.424C658.042 166.392 657.976 170.27 658.608 173.233C659.218 176.196 660.416 178.44 662.333 180.031C664.271 181.621 666.754 182.732 669.912 183.321C676.316 184.541 683.286 182.95 690.038 178.004C696.79 173.059 702.976 163.842 705.175 148.809C709.096 113.993 703.215 76.7358 689.602 44.403C688.252 41.7449 686.945 39.9366 685.79 38.9561C684.636 37.9539 683.329 37.1042 681.913 36.5377C680.084 35.8187 678.559 34.4897 677.492 32.5288C676.512 30.6986 676.817 29.9578 678.494 30.1975C689.188 31.7444 694.525 32.5724 705.11 34.1846C706.765 34.4461 708.181 35.4265 709.27 37.2131C710.446 39.1522 710.163 40.198 708.835 40.4595C707.92 40.6338 707.223 41.222 706.896 42.0064C706.569 42.7689 706.961 44.4248 708.029 47.0175C721.816 77.7598 727.784 113.448 724.538 146.892C721.903 167.372 711.034 180.662 697.596 188.375H697.574Z" fill="white"/>
<path d="M742.072 172.95C746.929 169.202 751.59 167.154 756.251 166.871C758.538 166.74 760.477 167.067 762.045 167.83C763.613 168.592 764.702 169.704 765.268 171.12C765.835 172.536 765.856 174.148 765.268 175.957C764.702 177.765 763.504 179.682 761.631 181.73C759.78 183.778 757.493 185.674 754.726 187.591C751.96 189.508 749.063 191.186 746.079 192.689C743.095 194.193 740.155 195.5 737.28 196.589C734.405 197.679 731.922 198.441 729.787 198.855C727.566 199.291 725.998 199.291 725.105 198.855C724.212 198.42 723.841 197.657 723.994 196.524C724.146 195.391 724.778 193.91 725.823 192.014C726.869 190.119 728.197 188.071 729.896 185.739C733.316 181.077 737.171 176.697 742.028 172.95H742.072ZM777.269 149.158C776.18 151.358 774.351 153.058 771.89 154.343C769.407 155.607 766.031 156.435 761.696 156.653C757.34 156.892 751.655 156.326 744.489 154.648C750.174 121.444 744.555 85.4293 730.833 54.687C729.134 50.8088 727.195 46.996 724.996 43.3139C722.796 39.6536 720.204 36.124 717.176 32.7905C719.572 32.4637 722.012 32.2676 724.451 32.2676C726.891 32.2676 730.114 32.943 734.056 34.5117C736.692 35.5575 739.175 36.9083 741.549 38.4552C743.945 40.0022 746.188 41.658 748.258 43.3357C750.327 45.0133 752.156 46.6256 753.768 48.1289C755.38 49.6323 756.665 50.9613 757.623 52.0507C758.233 53.4015 759.409 55.711 761.021 59.0881C762.655 62.4652 764.027 65.7115 765.399 68.5875C775.571 95.7783 779.143 112.838 779.382 141.859C779.077 144.517 778.359 146.936 777.248 149.114L777.269 149.158Z" fill="white"/>
</svg>
