<svg width="31" height="25" viewBox="0 0 31 25" fill="none" xmlns="http://www.w3.org/2000/svg">
<g style="mix-blend-mode:luminosity">
<path d="M15.5078 15.4121C15.9062 15.4121 16.2344 15.084 16.2344 14.6934V6.83398L16.1797 5.67773L16.6562 6.24805L17.75 7.41211C17.875 7.55273 18.0547 7.62305 18.2344 7.62305C18.5938 7.62305 18.8906 7.36523 18.8906 6.99805C18.8906 6.80273 18.8125 6.66211 18.6797 6.5293L16.0625 4.00586C15.875 3.81836 15.6953 3.75586 15.5078 3.75586C15.3125 3.75586 15.1406 3.81836 14.9531 4.00586L12.3281 6.5293C12.1953 6.66211 12.1172 6.80273 12.1172 6.99805C12.1172 7.36523 12.4062 7.62305 12.7656 7.62305C12.9453 7.62305 13.1328 7.55273 13.2578 7.41211L14.3516 6.24805L14.8359 5.66992L14.7734 6.83398V14.6934C14.7734 15.084 15.1016 15.4121 15.5078 15.4121ZM11 21.6543H20C21.6953 21.6543 22.5703 20.7793 22.5703 19.1074V11.4277C22.5703 9.75586 21.6953 8.88086 20 8.88086H17.8906V10.4355H19.8984C20.6094 10.4355 21.0156 10.8105 21.0156 11.5605V18.9668C21.0156 19.7168 20.6094 20.0918 19.8984 20.0918H11.1016C10.3828 20.0918 9.98438 19.7168 9.98438 18.9668V11.5605C9.98438 10.8105 10.3828 10.4355 11.1016 10.4355H13.1328V8.88086H11C9.3125 8.88086 8.42969 9.74805 8.42969 11.4277V19.1074C8.42969 20.7793 9.3125 21.6543 11 21.6543Z" fill="#797979"/>
</g>
</svg>
