<svg width="31" height="25" viewBox="0 0 31 25" fill="none" xmlns="http://www.w3.org/2000/svg">
<g style="mix-blend-mode:luminosity">
<path d="M15.5 21.498C15.6406 21.498 15.8516 21.4512 16.0469 21.3418C20.5469 18.8965 22.1094 17.7637 22.1094 14.9199V9.02148C22.1094 8.08398 21.7422 7.74805 20.9609 7.41211C20.0938 7.04492 17.1797 6.0293 16.3281 5.74023C16.0703 5.6543 15.7656 5.59961 15.5 5.59961C15.2344 5.59961 14.9297 5.66992 14.6719 5.74023C13.8203 5.98242 10.9062 7.05273 10.0391 7.41211C9.25781 7.74023 8.89062 8.08398 8.89062 9.02148V14.9199C8.89062 17.7637 10.4609 18.8809 14.9453 21.3418C15.1484 21.4512 15.3594 21.498 15.5 21.498ZM15.9219 7.17773C16.9453 7.58398 19.1719 8.37305 20.3438 8.78711C20.5625 8.87305 20.6172 8.99023 20.6172 9.27148V14.6309C20.6172 16.9199 19.4688 17.5371 15.9453 19.6621C15.7266 19.7949 15.6172 19.8418 15.5078 19.8418V7.0918C15.6172 7.0918 15.7344 7.11523 15.9219 7.17773Z" fill="#797979"/>
</g>
</svg>
