<svg width="15" height="18" viewBox="0 0 15 18" fill="none" xmlns="http://www.w3.org/2000/svg">
<g style="mix-blend-mode:luminosity">
<path d="M7.27344 8.97461C7.5 8.97461 7.67969 8.9043 7.82031 8.75586L11.0234 5.5293C11.1953 5.35742 11.2734 5.16992 11.2734 4.95117C11.2734 4.74023 11.1875 4.53711 11.0234 4.38086L7.82031 1.12305C7.67969 0.966797 7.5 0.888672 7.27344 0.888672C6.85156 0.888672 6.51562 1.24023 6.51562 1.66992C6.51562 1.88086 6.59375 2.05273 6.72656 2.20117L8.59375 4.0293C8.22656 3.97461 7.85156 3.94336 7.47656 3.94336C3.60938 3.94336 0.515625 7.03711 0.515625 10.9121C0.515625 14.7871 3.63281 17.9043 7.5 17.9043C11.375 17.9043 14.4844 14.7871 14.4844 10.9121C14.4844 10.4434 14.1562 10.1074 13.6875 10.1074C13.2344 10.1074 12.9297 10.4434 12.9297 10.9121C12.9297 13.9277 10.5156 16.3496 7.5 16.3496C4.49219 16.3496 2.07031 13.9277 2.07031 10.9121C2.07031 7.87305 4.46875 5.4668 7.47656 5.4668C7.98438 5.4668 8.45312 5.50586 8.86719 5.57617L6.73438 7.68555C6.59375 7.82617 6.51562 7.99805 6.51562 8.20898C6.51562 8.63867 6.85156 8.97461 7.27344 8.97461Z" fill="#797979"/>
</g>
</svg>
