<svg width="30" height="25" viewBox="0 0 30 25" fill="none" xmlns="http://www.w3.org/2000/svg">
<g style="mix-blend-mode:luminosity">
<g style="mix-blend-mode:luminosity">
<path d="M15 20.0137C15.4922 20.0137 15.8906 19.6074 15.8906 19.1465V14.2559H20.6562C21.1328 14.2559 21.5391 13.8574 21.5391 13.3652C21.5391 12.8809 21.1328 12.4746 20.6562 12.4746H15.8906V7.58398C15.8906 7.11523 15.4922 6.7168 15 6.7168C14.5156 6.7168 14.1094 7.11523 14.1094 7.58398V12.4746H9.34375C8.88281 12.4746 8.46094 12.8809 8.46094 13.3652C8.46094 13.8574 8.88281 14.2559 9.34375 14.2559H14.1094V19.1465C14.1094 19.6074 14.5156 20.0137 15 20.0137Z" fill="#797979"/>
</g>
</g>
</svg>
