<svg width="33" height="25" viewBox="0 0 33 25" fill="none" xmlns="http://www.w3.org/2000/svg">
<g style="mix-blend-mode:luminosity">
<g style="mix-blend-mode:luminosity">
<path d="M10.5859 18.0371H11.9141V19.2168C11.9141 20.8887 12.7969 21.7637 14.4844 21.7637H22.4062C24.0938 21.7637 24.9766 20.8887 24.9766 19.2168V11.2402C24.9766 9.56836 24.0938 8.69336 22.4062 8.69336H21.0781V7.52148C21.0781 5.84961 20.1953 4.97461 18.5078 4.97461H10.5859C8.89062 4.97461 8.01562 5.84961 8.01562 7.52148V15.4902C8.01562 17.1699 8.89062 18.0371 10.5859 18.0371ZM10.6875 16.4824C9.96875 16.4824 9.57031 16.1074 9.57031 15.3496V7.66211C9.57031 6.9043 9.96875 6.53711 10.6875 6.53711H18.4062C19.1172 6.53711 19.5234 6.9043 19.5234 7.66211V8.69336H14.4844C12.7969 8.69336 11.9141 9.56836 11.9141 11.2402V16.4824H10.6875ZM14.5859 20.2012C13.8672 20.2012 13.4766 19.8262 13.4766 19.0762V11.3809C13.4766 10.6309 13.8672 10.2559 14.5859 10.2559H22.3047C23.0234 10.2559 23.4219 10.6309 23.4219 11.3809V19.0762C23.4219 19.8262 23.0234 20.2012 22.3047 20.2012H14.5859Z" fill="#797979"/>
</g>
</g>
</svg>
