<svg width="48" height="24" viewBox="0 0 48 24" fill="none" xmlns="http://www.w3.org/2000/svg">
<path fill-rule="evenodd" clip-rule="evenodd" d="M32.5121 4.43002C32.6632 4.30081 32.8594 4.23687 33.0576 4.25225C33.2558 4.26762 33.4398 4.36106 33.5691 4.51202L39.5691 11.512C39.6856 11.6479 39.7496 11.821 39.7496 12C39.7496 12.179 39.6856 12.3521 39.5691 12.488L33.5691 19.488C33.4376 19.6316 33.2555 19.7184 33.0611 19.7301C32.8668 19.7419 32.6755 19.6775 32.5277 19.5508C32.38 19.4241 32.2872 19.2448 32.2692 19.051C32.2512 18.8571 32.3092 18.6638 32.4311 18.512L38.0121 12L32.4311 5.48802C32.3017 5.33719 32.2374 5.14115 32.2524 4.94296C32.2674 4.74478 32.3604 4.56064 32.5111 4.43102L32.5121 4.43002Z" fill="white"/>
<path fill-rule="evenodd" clip-rule="evenodd" d="M15.4879 4.43002C15.3368 4.30081 15.1406 4.23687 14.9424 4.25225C14.7442 4.26762 14.5602 4.36106 14.4309 4.51202L8.43089 11.512C8.31443 11.6479 8.25041 11.821 8.25041 12C8.25041 12.179 8.31443 12.3521 8.43089 12.488L14.4309 19.488C14.5624 19.6316 14.7445 19.7184 14.9389 19.7301C15.1332 19.7419 15.3245 19.6775 15.4723 19.5508C15.62 19.4241 15.7128 19.2448 15.7308 19.051C15.7488 18.8571 15.6908 18.6638 15.5689 18.512L9.98789 12L15.5689 5.48802C15.6983 5.33719 15.7626 5.14115 15.7476 4.94296C15.7326 4.74478 15.6396 4.56064 15.4889 4.43102L15.4879 4.43002Z" fill="white"/>
</svg>
