<?xml version="1.0" encoding="utf-8"?>
<!-- Generator: Adobe Illustrator 27.7.0, SVG Export Plug-In . SVG Version: 6.00 Build 0)  -->
<svg version="1.1" id="Layer_1" xmlns="http://www.w3.org/2000/svg" xmlns:xlink="http://www.w3.org/1999/xlink" x="0px" y="0px"
	 viewBox="0 0 134.13 84.58" style="enable-background:new 0 0 134.13 84.58;" xml:space="preserve">
<style type="text/css">
	.st0{font-family:'SANGJUGyeongcheonIsland';}
	.st1{font-size:13.9616px;}
</style>
<g>
	<g>
		<path d="M207.73-93.15c-0.21,0.65-0.46,1.22-0.76,1.71c-0.3,0.5-0.64,0.94-1.04,1.34c-0.39,0.4-0.81,0.74-1.25,1.03
			c-0.44,0.29-0.91,0.56-1.39,0.8c0.08,0.6,0.18,1.2,0.3,1.78c0.12,0.58,0.21,1.16,0.27,1.71c0.06,0.58,0.13,1.15,0.21,1.7
			c0.07,0.55,0.14,1.1,0.18,1.62c0.07,0.85,0.02,1.6-0.12,2.21c-0.14,0.61-0.39,1.11-0.76,1.44c-0.74,0.66-1.8,0.33-3.37-0.8
			c-0.23-0.16-0.45-0.33-0.68-0.51c-0.23-0.18-0.44-0.35-0.64-0.52c-0.32-0.26-0.63-0.52-0.95-0.79c-0.31-0.27-0.62-0.53-0.93-0.8
			c-0.75-0.66-1.43-1.35-2-2.08c-0.65-0.82-1.02-1.48-1.07-2.06s0.19-1.03,0.72-1.36c0.45-0.28,1-0.52,1.63-0.71
			c0.63-0.19,1.29-0.41,1.99-0.64c0.09-0.03,0.17-0.06,0.24-0.08c0.07-0.03,0.15-0.04,0.25-0.05c-0.13-1.15-0.22-2.3-0.27-3.46
			c-0.05-1.15-0.02-2.32,0.09-3.49c0.11-1.15,0.29-2.3,0.56-3.45c0.27-1.15,0.61-2.32,1.09-3.43c-0.46,0.09-0.9,0.19-1.32,0.29
			c-0.42,0.1-0.85,0.22-1.29,0.37c-0.03,0.02-0.05,0.04-0.07,0.04c-0.02,0-0.06,0.03-0.11,0.07c-0.21,0.07-0.37,0.13-0.49,0.17
			c-0.11,0.04-0.2,0.05-0.25,0.02c-0.05-0.03-0.08-0.08-0.09-0.17c-0.01-0.08,0-0.22,0-0.35c0-0.1-0.01-0.22,0.02-0.34
			c0.02-0.11,0.04-0.22,0.06-0.33c0.03-0.16,0.09-0.29,0.17-0.39c0.08-0.1,0.27-0.23,0.56-0.4c0.66-0.39,1.33-0.71,1.93-0.96
			c0.65-0.27,1.27-0.51,1.83-0.63c0.56-0.13,1.09-0.18,1.6-0.18c0.56,0.01,1.12,0.04,1.7,0.1c0.58,0.07,1.17,0.14,1.73,0.25
			c0.51,0.1,0.72,0.49,0.66,1.15c-0.55-0.06-1.1-0.08-1.65-0.05c-0.56,0.03-1.15,0.16-1.77,0.37c-0.44,1.95-0.53,4.24-0.56,6.47
			c-0.03,2.23,0.11,4.51,0.4,6.78c0.33-0.11,0.63-0.25,0.88-0.42c0.26-0.16,0.51-0.35,0.75-0.53c0.26-0.19,0.52-0.39,0.74-0.59
			c0.23-0.2,0.47-0.41,0.72-0.59c0.26-0.19,0.51-0.42,0.72-0.68C207.09-92.8,207.38-93,207.73-93.15z M198.54-80.39
			c0.37-0.01,0.58-0.26,0.68-0.67c0.1-0.41,0.17-0.94,0.15-1.55c-0.02-0.6-0.12-1.29-0.22-2.01c-0.04-0.28-0.08-0.58-0.14-0.88
			c-0.06-0.3-0.1-0.6-0.14-0.9c-0.23,0.03-0.47,0.1-0.71,0.2c-0.25,0.1-0.48,0.21-0.71,0.34c-0.23,0.12-0.44,0.24-0.62,0.37
			c-0.19,0.12-0.33,0.25-0.42,0.39c-0.22,0.26-0.32,0.57-0.29,0.94s0.15,0.76,0.37,1.19c0.22,0.42,0.51,0.85,0.86,1.3
			C197.7-81.22,198.1-80.79,198.54-80.39z M202.85-81.3c-0.03,0.16-0.05,0.31-0.05,0.46c-0.01,0.15-0.02,0.29-0.04,0.45
			C203-80.6,203.03-80.9,202.85-81.3z"/>
		<path d="M214.9-83.62c0.35-0.35,0.62-0.71,0.8-1.09c0.18-0.38,0.33-0.77,0.45-1.18c0.56-1.91,1.1-3.9,1.61-5.94
			c0.04-0.1,0.07-0.2,0.09-0.29c0.02-0.1,0.12-0.2,0.31-0.32c0,0.17,0.01,0.33,0.01,0.46c0,0.14-0.01,0.27-0.05,0.41
			c-0.17,1.53-0.24,2.3-0.33,3.81c-0.04,0.53-0.07,1.06-0.11,1.57c-0.04,0.52-0.14,1.02-0.3,1.51c-0.07,0.21-0.14,0.41-0.21,0.59
			c-0.06,0.19-0.15,0.38-0.26,0.57c-0.44,0.77-1.13,1.14-2.08,1.1c-0.3,0-0.61,0-0.91,0.01c-0.3,0.01-0.61-0.01-0.92-0.04
			c-0.99-0.08-1.87-0.43-2.61-1.09c-0.52-0.47-0.97-0.99-1.34-1.57c-0.38-0.58-0.66-1.27-0.76-2c-0.02-0.17-0.05-0.33-0.08-0.47
			c-0.03-0.13-0.08-0.26-0.13-0.4c-0.47-1.19-0.76-2.41-0.87-3.64c-0.11-1.23-0.08-2.5,0.11-3.76c0.23-1.53,0.63-3.04,1.2-4.43
			c0.58-1.39,1.36-2.7,2.33-3.8c0.13-0.16,0.29-0.31,0.46-0.45c0.28-0.24,0.5-0.37,0.66-0.41c0.16-0.04,0.39,0,0.67,0.14
			c0.25,0.12,0.49,0.27,0.72,0.42c0.23,0.15,0.51,0.28,0.78,0.39c0.26,0.11,0.41,0.27,0.45,0.46c0.04,0.19,0.02,0.39-0.04,0.6
			c-0.09,0.3-0.19,0.62-0.27,0.93c-0.08,0.31-0.19,0.63-0.3,0.96c-0.43,1.21-0.7,2.55-0.92,3.89s-0.39,2.69-0.52,4.06
			c-0.09,0.89-0.12,1.77-0.09,2.63c0.03,0.86,0.18,1.72,0.42,2.54c0.16,0.56,0.38,1.12,0.66,1.65c0.28,0.53,0.56,1.04,0.84,1.53
			c0.06,0.15,0.14,0.26,0.24,0.35C214.66-83.86,214.77-83.75,214.9-83.62z"/>
		<path d="M222.46-96.97c0.14,0.64,0.46,1.08,0.94,1.31c0.47,0.23,1.08,0.31,1.75,0.3c0.26,0,0.55,0.01,0.83,0.02
			c0.28,0.01,0.56,0.02,0.85,0.04c0.12,0.02,0.24,0.04,0.36,0.06c0.12,0.02,0.2,0.11,0.25,0.26c0.04,0.15,0.03,0.29-0.05,0.42
			c-0.08,0.13-0.19,0.25-0.3,0.36c-0.1,0.1-0.21,0.2-0.35,0.26c-0.13,0.07-0.27,0.15-0.41,0.24c-0.45,0.32-0.88,0.68-1.29,1.05
			c-0.41,0.38-0.73,0.82-0.95,1.34c-0.43,1.05-0.59,2.02-0.47,2.92c0.11,0.9,0.58,1.75,1.37,2.54c0.33,0.3,0.71,0.46,1.14,0.49
			c0.42-0.23,0.79-0.5,1.13-0.81c0.33-0.31,0.65-0.65,0.97-1.04c0.79-1.01,1.49-2.1,2.11-3.28c0.61-1.19,1.03-2.51,1.28-3.93
			c0.04-0.09,0.06-0.19,0.08-0.31c0.02-0.12,0.12-0.18,0.33-0.19c0.02,0.1,0.04,0.21,0.06,0.31c0.01,0.11,0.01,0.21,0,0.32
			c-0.05,0.63-0.1,1.25-0.13,1.86c-0.04,0.62-0.11,1.23-0.23,1.85c-0.24,1.12-0.59,2.15-1.02,3.09c-0.43,0.94-1.03,1.77-1.78,2.51
			c-0.51,0.5-1.08,0.81-1.7,0.96c-0.62,0.15-1.3,0.21-2.03,0.18c-0.2-0.01-0.41-0.01-0.62,0c-0.21,0-0.43,0.02-0.65,0.03
			c-0.47,0.03-0.92,0.03-1.35-0.03c-0.44-0.05-0.82-0.25-1.14-0.61c-0.02-0.03-0.06-0.06-0.12-0.08c-0.05-0.02-0.1-0.05-0.15-0.08
			c-0.84-0.5-1.48-1.12-1.88-1.86c-0.41-0.74-0.57-1.61-0.47-2.58c0.06-0.61,0.2-1.21,0.41-1.81c0.21-0.59,0.55-1.15,1.03-1.67
			c0.25-0.26,0.54-0.5,0.86-0.72c0.32-0.22,0.63-0.45,0.93-0.68c0.11-0.07,0.21-0.13,0.3-0.2c0.1-0.06,0.22-0.14,0.37-0.23
			c-0.37-0.15-0.7-0.32-1-0.49c-0.3-0.17-0.62-0.33-0.96-0.46c-0.89-0.35-1.54-0.88-1.92-1.59c-0.38-0.71-0.41-1.58-0.04-2.51
			c0.31-0.77,0.79-1.41,1.44-1.92c0.64-0.52,1.44-0.89,2.38-1.21c0.21-0.08,0.42-0.15,0.65-0.2c0.23-0.05,0.45-0.09,0.67-0.1
			c0.56-0.04,1.1-0.08,1.59-0.1c0.49-0.02,0.96,0.01,1.4,0.11c0.76,0.16,1.04,0.68,0.95,1.61c-0.04,0.37-0.11,0.76-0.23,1.16
			c-0.13,0.39-0.27,0.81-0.45,1.21c-0.27,0.62-0.66,1.09-1.15,1.41c-0.49,0.32-1.06,0.57-1.69,0.71
			C223.62-96.59,222.98-96.68,222.46-96.97z M222.2-100.43c-0.02-0.02-0.05-0.02-0.09-0.02c-0.11,0.14-0.21,0.28-0.3,0.42
			c-0.09,0.14-0.19,0.28-0.29,0.42c0.04,0,0.07,0,0.08,0.01c0.01,0.01,0.03,0.01,0.08,0.01c0.09-0.15,0.17-0.29,0.26-0.42
			C222.02-100.15,222.11-100.28,222.2-100.43z M222.28-97.29c0.17-0.01,0.31-0.03,0.43-0.04c0.12-0.01,0.23-0.03,0.33-0.06
			c0.57-0.12,1.09-0.3,1.55-0.56c0.46-0.26,0.8-0.67,1.04-1.22c0.12-0.28,0.23-0.56,0.32-0.85c0.09-0.29,0.18-0.57,0.26-0.82
			c0.09-0.3,0.12-0.6,0.11-0.86c-0.01-0.26-0.15-0.42-0.41-0.47c-0.3-0.06-0.62,0-0.95,0.17c-0.33,0.18-0.65,0.39-0.95,0.65
			c-0.68,0.6-1.18,1.22-1.49,1.88S222.14-98.08,222.28-97.29z M222.35-88.7c0.02-0.32,0.06-0.62,0.09-0.9
			c0.04-0.28,0.07-0.58,0.1-0.88C222.23-89.89,222.16-89.3,222.35-88.7z"/>
		<path d="M237.69-85.16c0.45-0.44,0.83-0.91,1.14-1.41c0.3-0.5,0.57-1.03,0.8-1.58c0.49-1.14,0.93-2.33,1.29-3.55
			c0.37-1.22,0.66-2.51,0.88-3.85c0.13-0.76,0.22-1.53,0.27-2.3c0.06-0.78,0.14-1.58,0.25-2.39c0.17-1.3,0.35-2.58,0.57-3.81
			s0.5-2.44,0.75-3.57c0.02-0.19,0.04-0.31,0.07-0.38c0.13-0.51,0.25-0.82,0.4-0.95c0.14-0.13,0.46-0.13,0.94,0
			c0.27,0.06,0.54,0.14,0.81,0.25c0.27,0.1,0.55,0.2,0.82,0.3c0.34,0.13,0.56,0.42,0.61,0.85c0.06,0.41,0.1,0.83,0.14,1.27
			c0.04,0.44,0.06,0.89,0.05,1.36c-0.03,2.66-0.02,4.05-0.05,6.79c-0.02,1.23-0.05,2.45-0.11,3.67c-0.06,1.22-0.13,2.43-0.23,3.62
			c-0.07,0.85-0.16,1.68-0.27,2.49c-0.1,0.81-0.25,1.64-0.44,2.44c-0.13,0.53-0.21,1.08-0.21,1.65c-0.01,0.56-0.03,1.14-0.08,1.71
			c-0.01,0.1-0.02,0.2-0.02,0.32c0,0.11-0.01,0.24-0.01,0.39c-0.75-0.09-1.25-0.5-1.55-1.22c-0.15-0.35-0.29-0.7-0.43-1.06
			c-0.14-0.36-0.28-0.73-0.45-1.1c-0.25-0.67-0.51-1.33-0.78-1.98c-0.27-0.65-0.55-1.3-0.84-1.93c-0.17,0.48-0.32,0.99-0.48,1.51
			c-0.15,0.53-0.34,1.03-0.56,1.5c-0.18,0.39-0.37,0.75-0.56,1.1c-0.2,0.35-0.41,0.7-0.63,1.05c-0.64,0.92-1.46,1.03-2.47,0.49
			c-0.31-0.15-0.61-0.3-0.91-0.43c-0.3-0.13-0.59-0.28-0.88-0.43c-0.56-0.26-1.02-0.61-1.38-1.04c-0.36-0.43-0.67-0.93-0.93-1.47
			c-0.3-0.61-0.55-1.23-0.72-1.87c-0.18-0.63-0.34-1.27-0.48-1.94c-0.39-1.89-0.55-3.74-0.42-5.62c0.12-1.88,0.41-3.82,0.98-5.77
			c0.13-0.51,0.28-1.01,0.44-1.5c0.16-0.49,0.32-0.98,0.47-1.45c0.04-0.11,0.08-0.21,0.11-0.31c0.03-0.1,0.09-0.2,0.16-0.3
			c0.1-0.21,0.2-0.35,0.31-0.42c0.11-0.07,0.26-0.1,0.46-0.08c0.31,0.03,0.63,0.07,0.95,0.12c0.33,0.05,0.69,0.08,1,0.16
			c0.27,0.06,0.47,0.3,0.51,0.59c0.03,0.2,0.04,0.42,0.07,0.62c0.03,0.2,0.02,0.42-0.02,0.65c-0.08,1.02-0.15,2.05-0.2,3.06
			c-0.05,1.01-0.11,2.05-0.14,3.08c-0.02,0.53-0.02,1.06-0.04,1.57c-0.01,0.5-0.04,1.03-0.04,1.56c-0.01,0.88,0.02,1.77,0.04,2.64
			c0.02,0.87,0.09,1.75,0.21,2.63c0.07,0.49,0.13,0.98,0.19,1.46c0.06,0.49,0.14,0.96,0.23,1.43c0.04,0.23,0.09,0.46,0.17,0.69
			C237.51-85.67,237.6-85.42,237.69-85.16z M245.65-90.02c-0.02,0.05-0.03,0.09-0.03,0.12c0,0.32,0,0.47,0,0.79
			c0,0.03,0.01,0.08,0.03,0.16C245.65-89.38,245.65-89.59,245.65-90.02z M245.69-92.83c0.01,0,0.02,0,0.03,0
			c-0.01-0.16-0.01-0.24-0.01-0.4c-0.01,0-0.02,0-0.03,0C245.68-93.07,245.69-92.99,245.69-92.83z"/>
		<path d="M255.68-92.68c0.27-1.2,0.49-2.35,0.69-3.45c0.2-1.09,0.38-2.18,0.56-3.24c0.27-1.51,0.57-2.98,0.89-4.37
			c0.32-1.39,0.71-2.7,1.01-3.8c0.1-0.36,0.2-0.69,0.3-0.99c0.1-0.29,0.23-0.52,0.41-0.67c0.3-0.27,0.74-0.2,1.38,0.14
			c0.47,0.25,0.95,0.55,1.42,0.87c0.47,0.33,0.96,0.75,1.42,1.27c0.37,0.41,0.7,0.84,0.98,1.28c0.28,0.44,0.53,0.88,0.74,1.34
			c0.47,1.05,0.79,2.08,1.05,3.07c0.25,0.99,0.44,1.98,0.54,2.98c0.05,0.48,0.1,0.97,0.16,1.46c0.06,0.49,0.12,0.98,0.16,1.48
			c0.07,0.77,0.11,1.55,0.11,2.32c0.01,0.77,0,1.57-0.03,2.34c-0.02,0.44-0.05,0.88-0.09,1.32c-0.04,0.44-0.07,0.86-0.09,1.25
			c-0.04,0.57-0.2,1.09-0.45,1.58c-0.39,0.77-0.43,1.26-0.12,1.39c-0.19,0.27-0.33,0.45-0.43,0.54c-0.1,0.09-0.23,0.15-0.4,0.17
			c-0.26-0.01-0.52-0.03-0.8-0.05c-0.28-0.03-0.55-0.1-0.81-0.21c-0.29-0.13-0.57-0.29-0.83-0.49c-0.27-0.2-0.53-0.43-0.8-0.69
			c-0.45-0.36-0.75-0.86-0.89-1.47c-0.14-0.62-0.2-1.33-0.19-2.13c0.01-1.1,0.05-2.19,0.14-3.25c0.09-1.06,0.18-2.13,0.31-3.18
			c0.17-1.4,0.3-2.77,0.4-4.1c0.1-1.32,0.16-2.62,0.18-3.88c0.01-0.54-0.02-1.09-0.11-1.63c-0.09-0.54-0.24-1.1-0.36-1.59
			c-0.04-0.15-0.1-0.32-0.2-0.5c-0.1-0.17-0.21-0.36-0.33-0.54c-0.36-0.06-0.61,0.02-0.76,0.22c-0.15,0.2-0.29,0.46-0.42,0.8
			c-0.27,0.62-0.53,1.39-0.75,2.27c-0.22,0.89-0.45,1.81-0.66,2.77c-0.4,1.97-0.74,4.03-1.05,6.14c-0.31,2.11-0.64,4.31-1,6.49
			c-0.19,1.15-0.43,2.29-0.71,3.42c-0.29,1.13-0.62,2.26-1,3.39c-0.25,0.74-0.66,1.05-1.2,0.93c-0.42-0.09-0.84-0.18-1.26-0.28
			c-0.42-0.1-0.83-0.21-1.24-0.33c-0.62-0.18-1.01-0.7-1.18-1.53c-0.11-0.47-0.22-0.96-0.32-1.47s-0.18-1.04-0.24-1.57
			c-0.23-2.26-0.43-4.57-0.51-6.88c-0.08-2.31-0.11-4.64-0.01-6.97c0.05-1.13,0.1-2.25,0.15-3.36c0.05-1.11,0.11-2.21,0.13-3.25
			c0-0.42,0-0.74,0.02-0.95c0.02-0.22,0.07-0.37,0.17-0.47c0.1-0.1,0.24-0.14,0.43-0.13c0.19,0.01,0.46,0.07,0.8,0.14
			c0.29,0.06,0.59,0.14,0.9,0.24c0.3,0.1,0.61,0.21,0.92,0.33c0.45,0.21,0.74,0.58,0.87,1.07c0.16,0.56,0.34,1.17,0.47,1.76
			c0.14,0.6,0.25,1.2,0.33,1.81c0.22,1.57,0.44,3.2,0.61,4.82c0.18,1.62,0.33,3.25,0.41,4.86c0.01,0.19,0.03,0.37,0.05,0.55
			C255.59-93.13,255.63-92.92,255.68-92.68z"/>
	</g>
</g>
<g>
	<g>
		<path d="M301.43-109.1c-0.13-0.11-0.3-0.17-0.5-0.17c-0.28,0-0.36-0.13-0.19-0.43c0.24-0.44,0.54-0.7,0.86-0.8
			c2.59-0.79,3.98-0.84,6.71-0.71c0.25,0.01,0.31,0.17,0.18,0.48c-0.14,0.34-0.36,0.54-0.63,0.61c-0.2,0.06-0.41,0.18-0.59,0.33
			c-0.18,0.15-0.37,0.45-0.53,0.91c-2.29,7.19-2.39,11.81-1.42,19.42c0.21,1.8,0.32,3.24,0.25,4.36c-0.07,1.12-0.25,1.97-0.59,2.57
			c-0.34,0.6-0.8,0.97-1.41,1.1s-1.32,0.09-2.12-0.15c-1.62-0.48-3.16-1.56-4.63-2.89c-1.47-1.33-2.68-2.72-3.4-4.3
			c-0.27-0.59-0.27-0.99-0.03-1.23c0.25-0.24,0.62-0.34,1.08-0.29c0.35,0.04,0.8,0.15,1.34,0.37c0.54,0.21,1.06,0.49,1.54,0.84
			c0.15,0.98,0.37,1.76,0.6,2.37s0.48,1.09,0.71,1.44c0.23,0.36,0.47,0.62,0.7,0.81c0.23,0.18,0.47,0.3,0.72,0.36
			c0.49,0.11,0.69-0.13,0.65-0.72c-0.04-0.59-0.26-1.54-0.56-2.88c-1.77-7.84-1.62-12.95,1.27-20.61
			C301.55-108.73,301.56-108.99,301.43-109.1z"/>
		<path d="M317.61-108.72c-0.08,0.28-0.26,0.43-0.5,0.44c-0.18,0.01-0.36,0.08-0.51,0.18c-0.15,0.1-0.29,0.34-0.41,0.74
			c-2.01,8.47-1.95,14.79,0.13,22.58c0.11,0.35,0.26,0.57,0.42,0.68c0.17,0.11,0.35,0.16,0.54,0.16c0.27,0,0.45,0.15,0.54,0.43
			c0.09,0.26,0.01,0.41-0.24,0.47c-2.57,0.65-3.85,0.99-6.47,1.4c-0.25,0.04-0.44-0.09-0.56-0.38c-0.13-0.32-0.07-0.53,0.15-0.64
			c0.17-0.09,0.3-0.24,0.37-0.42c0.07-0.18,0.03-0.51-0.11-1c-2.5-8.59-2.47-15.24,0.11-24.44c0.09-0.45,0.1-0.75,0.03-0.92
			c-0.07-0.17-0.18-0.32-0.33-0.4c-0.2-0.12-0.28-0.34-0.15-0.67c0.12-0.31,0.3-0.43,0.55-0.39c2.56,0.41,3.77,0.94,6.19,1.69
			C317.61-109.14,317.69-108.98,317.61-108.72z"/>
		<path d="M331.25-95.06c-0.22-0.13-0.49-0.19-0.8-0.2c-2.07-0.02-3.11-0.02-5.19,0.03c0.09,3.58,0.17,5.45,0.62,8.41
			c1.69-0.16,2.53-0.19,4.21-0.19c0.61-0.31,1.25-0.59,1.92-0.83c0.67-0.24,1.25-0.31,1.72-0.25c0.44,0.06,0.78,0.2,0.98,0.44
			c0.2,0.24,0.33,0.54,0.38,0.87c0.05,0.34,0.04,0.69-0.01,1.05c-0.06,0.36-0.13,0.7-0.2,1.02c-0.14-0.06-0.38-0.12-0.7-0.17
			c-0.32-0.05-0.6-0.08-0.84-0.09c-5.15-0.38-7.79-0.01-12.88,1.21c-0.25,0.06-0.41-0.03-0.49-0.27c-0.08-0.26,0.01-0.45,0.23-0.57
			c0.18-0.09,0.31-0.23,0.39-0.39c0.08-0.16,0.07-0.43-0.02-0.84c-1.59-7.12-1.73-12.97-0.23-20.68c0.04-0.38,0.02-0.63-0.06-0.77
			c-0.08-0.14-0.2-0.27-0.36-0.36c-0.22-0.11-0.31-0.31-0.25-0.58c0.06-0.25,0.21-0.34,0.45-0.28c5.09,1.1,7.89,1.1,13.14,1.02
			c0.53-0.01,0.9,0.14,1.09,0.51c0.19,0.38,0.19,0.83,0.03,1.36c-0.17,0.53-0.5,1.04-1,1.51c-0.5,0.47-1.12,0.72-1.89,0.74
			c-0.05-0.44-0.17-0.85-0.34-1.24c-0.18-0.39-0.39-0.67-0.64-0.84c-1.97-0.02-2.97-0.05-4.94-0.16c-0.38,2.97-0.37,4.66-0.36,7.91
			c2.84-0.02,4.26-0.01,7.09,0.04c0.39,0.01,0.68,0.13,0.88,0.37c0.19,0.24,0.29,0.52,0.3,0.84c0.01,0.52-0.14,0.99-0.47,1.4
			c-0.32,0.41-0.77,0.6-1.34,0.59C331.61-94.72,331.47-94.93,331.25-95.06z"/>
		<path d="M351.47-83.5c-1.45,1.35-3.34,1.58-5.65,1.04c-2.48-0.57-4.24-1.55-5.44-3.12c-1.21-1.57-1.8-3.91-1.85-7.35
			c-0.08-5.24-0.3-8.19-0.48-12.93c-0.05-0.35-0.14-0.58-0.27-0.69c-0.12-0.11-0.28-0.2-0.46-0.25c-0.24-0.06-0.39-0.21-0.43-0.45
			c-0.03-0.22,0.07-0.33,0.31-0.33c2.51-0.09,3.86-0.16,6.46-0.33c0.25-0.02,0.42,0.08,0.49,0.32c0.08,0.26-0.03,0.44-0.25,0.52
			c-0.16,0.06-0.31,0.17-0.41,0.3c-0.11,0.13-0.14,0.37-0.12,0.75c0.58,5.58,0.92,9.11,0.78,15.14c-0.03,1.17,0.01,2.13,0.12,2.9
			c0.11,0.77,0.28,1.38,0.53,1.86c0.25,0.47,0.56,0.83,0.94,1.08c0.38,0.26,0.82,0.43,1.32,0.53c1.01,0.2,1.91-0.08,2.67-0.92
			c0.76-0.84,1.32-2.42,1.43-4.8c0.3-6.41-0.1-10.09-1.13-16.07c-0.11-0.4-0.24-0.66-0.39-0.79c-0.14-0.13-0.32-0.23-0.52-0.27
			c-0.26-0.06-0.45-0.23-0.56-0.5c-0.1-0.26-0.03-0.38,0.22-0.39c1.6-0.11,2.4-0.16,4-0.26c0.25-0.01,0.45,0.1,0.57,0.37
			c0.13,0.29,0.05,0.48-0.16,0.57c-0.15,0.06-0.28,0.19-0.36,0.33c-0.08,0.14-0.08,0.42-0.01,0.83c1.17,5.92,1.58,9.5,1.31,15.86
			C353.98-87.22,352.93-84.85,351.47-83.5z"/>
		<path d="M368.45-107.05c-0.19-0.18-0.41-0.32-0.64-0.42c-0.28-0.11-0.51-0.32-0.72-0.6c-0.19-0.26-0.18-0.35,0.06-0.3
			c1.49,0.31,2.3,0.49,3.55,1.34c0.2,0.14,0.42,0.31,0.63,0.51c0.23,0.22,0.25,0.29,0.08,0.23c-0.1-0.04-0.18-0.02-0.21,0.05
			c-0.03,0.07,0.05,0.27,0.19,0.64c3.65,8.29,4.21,14.62-1.03,21.64c-0.22,0.29-0.45,0.53-0.7,0.72c-0.67,0.52-1.03,0.74-1.76,1.12
			c-0.19,0.1-0.28,0.1-0.29,0.02c-0.01-0.08,0.03-0.27,0.09-0.6c0.57-5.34-2.14-10.95-7-19.23c1.28,7.71,1.56,12.32-0.51,19.13
			c-0.15,0.48-0.2,0.8-0.13,0.97s0.19,0.29,0.36,0.35c0.22,0.08,0.28,0.27,0.15,0.58c-0.12,0.29-0.31,0.43-0.56,0.43
			c-1.54-0.02-2.33-0.09-3.87-0.29c-0.25-0.03-0.33-0.19-0.23-0.47c0.1-0.31,0.3-0.47,0.57-0.52c0.22-0.04,0.42-0.14,0.59-0.29
			c0.17-0.15,0.33-0.45,0.46-0.93c2.3-8.4,1.74-14.64-0.4-23.6c-0.14-0.43-0.3-0.71-0.46-0.85c-0.16-0.14-0.35-0.25-0.55-0.3
			c-0.27-0.07-0.48-0.25-0.62-0.55c-0.13-0.27-0.09-0.4,0.16-0.41c1.76-0.08,2.64-0.11,4.4-0.14c0.38-0.01,0.71,0.01,0.99,0.06
			c0.28,0.05,0.55,0.12,0.78,0.23c0.24,0.1,0.47,0.24,0.68,0.43c0.21,0.18,0.43,0.4,0.65,0.67c4.21,5.02,5.75,8.4,7.94,13.42
			c-0.01-4.92-0.46-7.5-2.11-12.08C368.85-106.56,368.64-106.88,368.45-107.05z"/>
	</g>
</g>
<g>
	<g>
		<path d="M418.29-105.67c-0.68-1.27-1.23-2.59-1.62-3.98c-0.4-1.38-0.62-2.86-0.64-4.43c-0.02-1.57,0.2-3.36,0.78-5.37
			c0.56-1.95,1.38-3.84,2.46-5.72c1.08-1.88,2.38-3.54,3.8-5.02c1.42-1.48,2.94-2.75,4.48-3.86c1.53-1.11,2.97-1.95,4.27-2.51
			c0.94-0.41,1.59-0.55,1.96-0.39c0.37,0.16,0.44,0.66,0.28,1.58c-0.15,0.91-0.52,2.21-1.01,3.94c-0.49,1.73-1.14,3.95-1.8,6.46
			c-0.46,1.73-0.95,3.19-1.54,4.31c-0.59,1.12-1.16,1.76-1.67,1.96c-0.19,0.08-0.42,0.11-0.66,0.07c-0.24-0.04-0.48-0.12-0.71-0.25
			c-0.23-0.13-0.45-0.3-0.65-0.52c-0.2-0.22-0.37-0.47-0.51-0.75c0.51-2.12,1-3.89,1.38-5.31c0.38-1.42,0.74-2.64,0.95-3.5
			c0.2-0.86,0.29-1.43,0.2-1.74c-0.08-0.3-0.29-0.39-0.63-0.28c-0.7,0.23-1.66,1.07-2.76,2.57c-1.09,1.5-2.07,3.32-2.74,5.37
			c-0.37,1.14-0.61,2.17-0.74,3.11c-0.13,0.94-0.12,1.85,0.01,2.77c0.13,0.91,0.39,1.89,0.79,2.95c0.4,1.06,1.01,2.27,1.77,3.64
			c0.83,1.48,1.62,3.09,2.39,4.75c0.77,1.66,1.52,3.46,2.25,5.39c0.73,1.93,1.43,4.01,2.14,6.22c0.71,2.2,1.43,4.61,2.21,7.13
			c0.86,2.78,1.67,5.22,2.37,7.3c0.7,2.08,1.21,3.68,1.47,4.83c0.26,1.15,0.26,1.83,0,2.12c-0.26,0.29-0.89,0.06-1.93-0.66
			c-0.81-0.56-1.78-1.37-2.92-2.39c-1.14-1.03-2.38-2.21-3.7-3.55c-1.32-1.35-2.71-2.85-4.08-4.54c-1.38-1.7-2.72-3.58-3.89-5.75
			c-0.72-1.34-1.08-2.37-1.13-3.12c-0.05-0.75,0.17-1.11,0.54-1.11c0.13,0,0.33,0.04,0.57,0.16c0.24,0.12,0.5,0.28,0.77,0.48
			c0.28,0.2,0.57,0.45,0.87,0.73c0.3,0.29,0.6,0.6,0.88,0.93c0.72,2.15,1.57,3.95,2.43,5.45c0.85,1.51,1.7,2.76,2.47,3.8
			c0.78,1.04,1.46,1.83,2.03,2.4c0.57,0.57,1.02,0.95,1.34,1.12c0.65,0.35,0.77-0.04,0.44-1.25c-0.33-1.21-1.11-3.14-2.16-5.82
			c-0.64-1.64-1.22-3.11-1.77-4.39c-0.55-1.28-1.14-2.53-1.8-3.73c-0.65-1.21-1.37-2.42-2.17-3.64c-0.79-1.22-1.71-2.58-2.7-4.04
			C419.76-103.1,418.97-104.4,418.29-105.67z"/>
		<path d="M442.09-100.4c-0.23-0.42-0.49-0.63-0.77-0.64c-1.87-0.07-2.8-0.11-4.64-0.2c0.95,11.17,2.42,16.83,6.38,26.36
			c1.45,0.41,2.18,0.6,3.66,0.95c0.15-0.94,0.39-1.81,0.7-2.58c0.31-0.77,0.73-1.04,1.18-0.87c0.4,0.15,0.85,0.61,1.27,1.4
			c0.42,0.8,0.84,1.78,1.28,2.92c0.44,1.15,0.88,2.37,1.33,3.67c0.45,1.3,0.9,2.52,1.39,3.71c-0.21-0.21-0.48-0.38-0.79-0.52
			c-0.32-0.13-0.58-0.22-0.79-0.28c-4.58-1.18-6.83-1.96-11.07-3.92c-0.21-0.1-0.54-0.5-0.95-1.19c-0.43-0.74-0.55-1.16-0.46-1.24
			c0.08-0.07,0.06-0.32-0.04-0.67s-0.45-1.09-1-2.24c-9.33-18.78-8.81-38.83-2.03-58.13c0.49-1.04,0.81-1.69,0.92-2.01
			s0.14-0.58,0.07-0.66c-0.08-0.1,0.06-0.55,0.6-1.3c0.5-0.69,0.9-1.06,1.13-1.13c4.87-1.58,7.36-2.24,12.39-3.3
			c0.51-0.11,0.43,0.44-0.15,1.75s-1.29,2.86-2.14,4.65c-0.84,1.79-1.71,3.54-2.64,5.21c-0.93,1.67-1.72,2.58-2.45,2.74
			c0.31-1.42,0.61-2.83,0.87-4.12s0.39-2.16,0.37-2.67c-1.84,0.32-2.76,0.5-4.58,0.87c-4,9.37-4.67,14.7-4.75,24.93
			c2.54-0.02,3.83-0.03,6.42-0.07c0.36,0,0.62,0.39,0.79,1.18c0.17,0.79,0.27,1.72,0.31,2.77c0.06,1.74,0,3.3-0.2,4.67
			c-0.2,1.38-0.53,2.04-1.05,2.02C442.5-99.29,442.32-99.98,442.09-100.4z"/>
		<path d="M461.02-143.83c0.33-0.04,0.15,0.51-0.46,1.74c-0.41,0.84-0.84,1.4-1.24,1.64c-0.33,0.21-0.69,0.56-1.06,0.99
			c-0.37,0.43-0.8,1.2-1.25,2.34c-5.96,22.7-4.89,42.52,0.85,65.07c1.33,0.14,2,0.21,3.33,0.31c0.25-1.11,0.58-2.13,0.96-3.04
			c0.39-0.92,0.85-1.27,1.3-1.15c0.4,0.11,0.84,0.54,1.22,1.35c0.38,0.82,0.74,1.83,1.1,3.03c0.36,1.2,0.71,2.49,1.05,3.87
			c0.34,1.38,0.67,2.68,1.04,3.95c-0.2-0.2-0.46-0.34-0.78-0.41c-0.32-0.08-0.59-0.13-0.8-0.14c-4.53-0.28-6.81-0.59-11.25-1.54
			c-0.23-0.05-0.53-0.48-0.86-1.27c-0.35-0.85-0.41-1.35-0.28-1.5c0.11-0.12,0.13-0.44,0.08-0.86c-0.06-0.42-0.32-1.27-0.77-2.57
			c-6.41-22.53-7.59-42.12-1.12-64.87c0.43-1.17,0.72-1.92,0.8-2.3c0.08-0.38,0.09-0.69,0.01-0.81c-0.1-0.15,0-0.68,0.49-1.54
			c0.45-0.8,0.82-1.2,1.06-1.25C457.07-143.27,458.39-143.48,461.02-143.83z"/>
		<path d="M473.57-100.43c-0.23-0.43-0.48-0.64-0.78-0.63c-1.94,0.06-2.91,0.08-4.86,0.13c0.41,9.74,1.89,19.97,4.21,29.45
			c1.56-0.04,2.34-0.08,3.89-0.17c0.33-1.2,0.72-2.3,1.17-3.29c0.45-0.99,0.93-1.4,1.37-1.33c0.4,0.07,0.82,0.46,1.15,1.25
			c0.33,0.79,0.63,1.79,0.92,2.97c0.28,1.19,0.54,2.47,0.77,3.85c0.23,1.38,0.45,2.68,0.7,3.94c-0.18-0.17-0.43-0.28-0.75-0.31
			c-0.31-0.03-0.58-0.04-0.8-0.01c-4.75,0.47-7.19,0.58-11.92,0.42c-0.23-0.01-0.5-0.44-0.76-1.26c-0.28-0.89-0.29-1.44-0.14-1.63
			c0.13-0.16,0.18-0.51,0.16-0.98c-0.02-0.46-0.21-1.35-0.57-2.71c-5.15-23.34-6.19-44.19-0.52-67.6c0.38-1.23,0.62-2.02,0.68-2.43
			s0.05-0.74-0.05-0.9c-0.12-0.18-0.04-0.76,0.39-1.67c0.4-0.84,0.74-1.26,0.99-1.27c5.14-0.36,7.72-0.4,12.87-0.24
			c0.52,0.02,0.54,0.69,0.15,2.12c-0.4,1.43-0.95,3.06-1.63,4.91c-0.69,1.85-1.43,3.64-2.27,5.33c-0.84,1.69-1.59,2.58-2.34,2.66
			c0.23-1.53,0.43-3.05,0.58-4.46c0.15-1.41,0.2-2.39,0.12-2.98c-1.9-0.01-2.85,0-4.75,0.05c-2.62,8.68-3.86,18.72-3.8,27.78
			c2.68-0.06,4.01-0.09,6.68-0.15c0.37-0.01,0.64,0.4,0.81,1.24c0.17,0.83,0.27,1.81,0.29,2.92c0.03,1.83-0.07,3.49-0.31,4.96
			c-0.24,1.48-0.62,2.22-1.15,2.24C473.96-99.27,473.79-100,473.57-100.43z"/>
		<path d="M479.38-121.77c0.93-5.23,2.3-9.71,3.91-13.33c1.61-3.62,3.4-6.15,5.15-7.79c1.75-1.64,3.36-2.28,4.76-2.1
			c1.02,0.13,1.79,0.62,2.34,1.49c0.55,0.87,0.88,2.07,1.04,3.65c0.16,1.58,0.15,3.51-0.01,5.81c-0.17,2.3-0.43,4.91-0.76,7.75
			c-0.23,1.96-0.57,3.54-1.04,4.73c-0.48,1.2-1.02,1.85-1.55,1.99c-0.42,0.11-0.92,0-1.46-0.39c-0.54-0.4-1-1.01-1.35-1.86
			c0.32-2.77,0.6-5.15,0.8-7.14c0.19-2,0.35-3.69,0.39-4.98c0.04-1.3-0.01-2.23-0.19-2.83c-0.17-0.6-0.44-0.91-0.82-0.94
			c-1.1-0.1-2.79,2.41-4.29,7.73c-1.51,5.32-2.91,13.91-2.65,25.72c0.26,11.89,1.81,20.25,3.16,25.25c1.35,5,2.63,7.13,3.75,6.95
			c0.39-0.06,0.72-0.4,0.99-1.01c0.27-0.61,0.44-1.53,0.53-2.76c0.08-1.24,0.07-2.82-0.04-4.78c-0.1-1.96-0.33-4.3-0.66-7.06
			c0.35-0.84,0.79-1.47,1.32-1.89c0.53-0.42,1.02-0.55,1.43-0.47c0.52,0.11,1.03,0.71,1.51,1.84c0.48,1.13,0.8,2.64,0.96,4.51
			c0.24,2.7,0.31,5.13,0.21,7.34c-0.1,2.21-0.34,4.06-0.77,5.64c-0.43,1.57-0.99,2.82-1.67,3.81c-0.68,1-1.51,1.59-2.5,1.8
			c-1.44,0.3-2.9-0.31-4.3-1.87c-1.39-1.56-2.76-3.94-4.08-7.26c-1.31-3.32-2.55-7.5-3.52-12.62c-0.97-5.11-1.66-10.91-1.82-17.25
			C478.01-110.59,478.45-116.54,479.38-121.77z"/>
		<path d="M500.43-132.71c-0.44,1.28-0.8,2.66-1.07,4.07c-0.7-0.13-1.13-1-1.25-2.62c-0.12-1.62-0.02-3.33,0.29-5.08
			c0.31-1.75,0.79-3.27,1.39-4.57c0.6-1.3,1.17-1.85,1.64-1.77c5.19,0.87,8.5,1.33,14.26,3c0.53,0.15,0.66,0.79,0.48,2.01
			c-0.19,1.21-0.53,2.56-1.01,4.07c-0.48,1.51-1.06,2.95-1.76,4.29c-0.7,1.34-1.39,2.01-2.13,1.97c0.13-1.32,0.23-2.63,0.27-3.87
			c0.04-1.24,0-2.12-0.15-2.67c-0.93-0.18-1.39-0.26-2.32-0.42c-2.99,19.64-2.42,38.17-0.8,57.94c0.1,1.15,0.22,1.89,0.35,2.25
			c0.13,0.36,0.3,0.62,0.48,0.71c0.21,0.11,0.38,0.53,0.43,1.26c0.05,0.68-0.02,1.06-0.24,1.14c-2.29,0.75-3.44,1.11-5.75,1.78
			c-0.22,0.07-0.4-0.27-0.48-1c-0.09-0.78-0.01-1.31,0.18-1.54c0.16-0.2,0.27-0.55,0.34-0.98c0.07-0.44,0.03-1.23-0.1-2.44
			c-2.47-20.2-2.9-39.78,0.39-59.91c-0.9-0.12-1.35-0.18-2.23-0.29C501.29-134.86,500.87-133.99,500.43-132.71z"/>
		<path d="M527.45-130.01c0-0.31-0.04-0.6-0.15-0.85c-0.13-0.28-0.14-0.74,0.01-1.33c0.16-0.59,0.34-0.79,0.52-0.7
			c0.21,0.11,0.47,0.24,0.71,0.4c0.24,0.17,0.45,0.34,0.65,0.53s0.36,0.37,0.51,0.53c0.15,0.16,0.27,0.3,0.35,0.41
			c0.11,0.14,0.21,0.29,0.31,0.45c0.1,0.16,0.17,0.34,0.23,0.54c0.06,0.2,0.08,0.44,0.08,0.72c0,0.28-0.04,0.61-0.12,1.02
			c-1.49,15.44-0.51,30.27,0.27,45.73c0.01,0.79,0.03,1.25,0.09,1.44c0.06,0.18,0.18,0.31,0.33,0.35c0.19,0.04,0.3,0.28,0.28,0.72
			c-0.02,0.44-0.14,0.72-0.34,0.84c-0.26,0.16-0.55,0.35-0.86,0.53c-0.31,0.18-0.62,0.34-0.91,0.48c-0.29,0.14-0.56,0.27-0.82,0.39
			c-0.25,0.12-0.46,0.21-0.61,0.28c-0.2,0.08-0.4,0.16-0.6,0.22c-0.2,0.06-0.38,0.08-0.54,0.05c-0.16-0.03-0.29-0.13-0.38-0.31
			c-0.1-0.18-0.13-0.46-0.11-0.86c0.01-0.14,0.01-0.22,0.02-0.37c-0.39,0.82-0.79,1.53-1.2,2.15c-0.41,0.62-0.83,1.02-1.28,1.2
			c-1.79,0.74-3.02-0.01-3.94-2.88c-0.91-2.87-1.6-7.63-1.85-14.52c-0.13-3.41-0.11-6.7,0.08-9.71c0.19-3.01,0.56-5.61,1.09-7.73
			c0.53-2.12,1.2-3.7,1.96-4.74c0.76-1.04,1.61-1.4,2.51-1.13c0.77,0.23,1.43,1.16,1.99,2.69c0.19-6.03,0.43-9.13,1.42-14.58
			C527.34-129.07,527.44-129.7,527.45-130.01z M522.95-105.4c-0.28,2.79-0.32,7.05-0.13,12.3c0.1,2.68,0.21,4.85,0.34,6.54
			c0.13,1.69,0.27,2.96,0.44,3.88c0.17,0.92,0.35,1.52,0.57,1.83c0.21,0.31,0.45,0.42,0.72,0.34c0.33-0.1,0.63-0.51,0.89-1.24
			c0.26-0.73,0.47-1.72,0.61-3c-0.18-7.42-0.58-12.06-0.7-20.93c-0.34-2.3-0.79-3.58-1.34-3.69
			C523.72-109.5,523.22-108.19,522.95-105.4z"/>
		<path d="M543.41-96.29c-0.06,0.45-0.26,0.72-0.61,0.81c-3.11,0.82-4.41,1.08-6.95,1.47c0.28,2.1,0.52,3.74,0.74,4.96
			s0.43,2.12,0.66,2.74c0.22,0.63,0.45,1,0.7,1.17c0.25,0.17,0.53,0.19,0.83,0.08c0.56-0.2,1-0.76,1.26-1.72
			c0.26-0.97-0.23-3.07,0.07-4.28c0.04-0.15,0.3-0.37,0.5-0.52c0.2-0.15,0.4-0.28,0.62-0.37c0.21-0.1,0.42-0.17,0.63-0.23
			c0.21-0.06,0.4-0.09,0.55-0.1c0.49,0.02,0.94,0.25,1.35,0.69c0.41,0.43,0.62,1.04,0.62,1.79c0,1.06-0.18,2-0.5,2.84
			c-0.32,0.84-0.78,1.59-1.32,2.23c-0.53,0.65-1.12,1.21-1.76,1.7c-0.65,0.5-1.32,0.9-2.02,1.2c-0.93,0.41-1.78,0.6-2.55,0.5
			c-0.77-0.1-1.4-0.49-1.92-1.35c-0.52-0.86-1.03-2.12-1.45-3.98c-0.42-1.86-0.75-4.32-1.02-7.4c-0.52-6.05-0.44-11.05,0.18-14.03
			c0.62-2.98,1.56-4.04,3.2-3.85c0.5,0.06,1.09,0.38,1.79,0.94c0.71,0.56,1.46,1.4,2.25,2.53c0.79,1.13,1.59,2.57,2.33,4.3
			c0.74,1.74,1.36,3.88,1.77,6.32C543.45-97.25,543.46-96.74,543.41-96.29z M537.19-104.82c-0.44-1.35-0.9-2.03-1.38-2.04
			c-0.44-0.01-0.71,0.56-0.82,1.76c-0.12,1.2-0.02,3.33,0.29,6.29c1.22-0.08,1.85-0.14,3.21-0.34
			C538.07-101.56,537.63-103.46,537.19-104.82z"/>
		<path d="M547.84-97.61c-0.61-0.4-1.18-0.89-1.69-1.47c-0.51-0.59-0.96-1.3-1.34-2.13c-0.38-0.83-0.69-1.84-0.89-3.03
			c-0.2-1.19-0.26-2.32-0.19-3.4c0.07-1.07,0.3-2.04,0.69-2.92c0.39-0.88,0.96-1.63,1.7-2.28c0.74-0.65,1.67-1.14,2.79-1.5
			c0.82-0.26,1.61-0.33,2.38-0.2c0.77,0.13,1.47,0.42,2.1,0.86c0.63,0.44,1.17,1.04,1.63,1.79c0.45,0.76,0.76,1.65,0.97,2.62
			c0.15,0.68,0.15,1.39-0.04,2.1c-0.19,0.71-0.6,1.26-1.21,1.65c-0.15,0.1-0.34,0.18-0.58,0.24c-0.24,0.06-0.48,0.11-0.73,0.13
			c-0.25,0.02-0.51,0.03-0.77,0.01c-0.26-0.02-0.48-0.06-0.65-0.13c-0.19-1.68-0.5-2.91-0.93-3.66s-0.92-1.04-1.48-0.86
			c-0.45,0.15-0.77,0.5-0.95,1.06c-0.18,0.56-0.19,1.3-0.04,2.22c0.08,0.5,0.19,0.94,0.32,1.31c0.13,0.37,0.33,0.71,0.59,1.02
			c0.26,0.31,0.6,0.61,1.03,0.9c0.43,0.29,0.97,0.58,1.61,0.87c0.97,0.43,1.81,0.88,2.51,1.34c0.7,0.47,1.29,1,1.75,1.6
			c0.46,0.6,0.81,1.27,1.04,2.01c0.23,0.74,0.34,1.58,0.33,2.49c-0.03,1.98-0.76,3.54-1.98,4.87c-1.23,1.33-2.76,2.25-4.65,3.03
			c-0.74,0.31-1.42,0.51-2.05,0.6s-1.19,0.05-1.66-0.14c-0.46-0.19-0.82-0.54-1.15-1.02c-0.33-0.49-0.55-1.16-0.67-2
			c-0.09-0.62,0.02-1.24,0.31-1.8c0.29-0.56,0.67-0.97,1.1-1.24c1.09-0.67,2.08-0.89,2.91-0.58c0.02,0.73,0.07,1.34,0.15,1.84
			c0.09,0.5,0.21,0.87,0.36,1.15s0.33,0.45,0.53,0.54s0.42,0.08,0.66-0.01c0.51-0.2,0.92-0.55,1.21-1.1
			c0.29-0.54,0.44-1.13,0.44-1.79c0-0.41-0.05-0.8-0.14-1.17c-0.1-0.37-0.28-0.72-0.54-1.05c-0.26-0.33-0.62-0.64-1.07-0.93
			s-1.05-0.58-1.8-0.87C549.09-96.89,548.46-97.21,547.84-97.61z"/>
		<path d="M566.35-114.87c-0.23-0.17-0.48-0.2-0.76-0.1c-0.66,0.24-1,0.37-1.66,0.62c1.07,6.35,1.65,9.82,1.57,15.09
			c-0.02,1.02-0.06,1.78-0.1,2.33c-0.04,0.55-0.07,0.95-0.06,1.21c0,0.26,0.03,0.43,0.08,0.5c0.05,0.07,0.14,0.09,0.25,0.05
			c0.13-0.04,0.25-0.13,0.35-0.26c0.1-0.13,0.21-0.33,0.31-0.63c0.1-0.3,0.2-0.71,0.28-1.26c0.08-0.55,0.16-1.3,0.18-2.28
			c0.44-0.32,0.91-0.56,1.41-0.72c0.49-0.16,0.93-0.15,1.31,0.02c0.86,0.34,1.1,1.5,0.5,3.14c-0.2,0.51-0.46,1.02-0.77,1.52
			c-0.32,0.5-0.76,0.98-1.24,1.39c-0.47,0.41-1,0.78-1.57,1.12c-0.58,0.34-1.22,0.62-1.93,0.86c-0.7,0.23-1.31,0.4-1.85,0.5
			s-0.95,0.03-1.23-0.25s-0.41-0.83-0.54-1.74c-0.12-0.91-0.15-2.34-0.23-4.51c-0.14-5.04-0.7-8.25-1.68-14.18
			c-0.6,0.23-0.9,0.35-1.5,0.57c-0.22,0.09-0.44,0.19-0.65,0.31c-0.21,0.12-0.37,0.32-0.5,0.59c-0.13-0.44-0.24-0.88-0.34-1.33
			c-0.1-0.45-0.19-0.85-0.27-1.22c-0.19-0.93-0.26-1.69-0.22-2.26c0.04-0.57,0.24-0.93,0.58-1.06c0.29-0.11,0.57-0.13,0.84-0.04
			c0.27,0.09,0.49,0.18,0.68,0.28c0.26-0.1,0.39-0.15,0.64-0.25c-0.23-1.39-0.35-2.07-0.56-3.39c-0.07-0.46-0.15-0.89-0.22-1.25
			c-0.07-0.35-0.13-0.68-0.2-0.99c-0.07-0.31-0.15-0.63-0.23-0.97c-0.09-0.34-0.19-0.75-0.31-1.23c0.35-0.72,0.78-1.44,1.27-2.16
			c0.5-0.72,1.02-1.19,1.57-1.44c0.39-0.17,0.74-0.23,1.06-0.15c0.31,0.07,0.59,0.22,0.84,0.46c0.25,0.23,0.46,0.51,0.63,0.83
			s0.3,0.63,0.39,0.94c-0.12,0.52-0.15,1.26-0.08,2.25c0.07,0.98,0.18,1.87,0.32,2.66c0.17,0.98,0.26,1.47,0.44,2.48
			c1.36-0.53,2.03-0.79,3.4-1.3c0.34-0.13,0.63,0,0.85,0.39c0.22,0.39,0.38,0.88,0.49,1.47c0.18,0.98,0.19,1.91,0.02,2.81
			c-0.16,0.89-0.5,1.43-1,1.61C566.76-114.35,566.58-114.7,566.35-114.87z"/>
		<path d="M575.48-96.73c0.03,0.18,0.12,0.31,0.26,0.35c0.18,0.06,0.2,0.27,0.01,0.61c-0.18,0.32-0.38,0.49-0.62,0.52
			c-2.4,0.33-3.59,0.6-5.93,1.22c-0.23,0.06-0.27-0.05-0.11-0.36c0.17-0.33,0.37-0.59,0.64-0.73c0.18-0.1,0.37-0.24,0.55-0.45
			c0.18-0.21,0.37-0.54,0.52-1c1.4-5.19,0.83-9.47-0.4-17.32c-0.17-1.08-0.36-2.11-0.56-3.09c-0.2-0.98-0.47-2.01-0.79-3.06
			c0.39-0.49,0.84-1.01,1.36-1.55c0.52-0.55,1.09-0.91,1.72-1.09c0.42-0.12,0.8-0.11,1.15,0.04c0.35,0.15,0.66,0.38,0.93,0.69
			c0.28,0.31,0.51,0.66,0.71,1.04c0.2,0.38,0.34,0.75,0.44,1.09c-0.07,0.84-0.04,1.87,0.05,3.11s0.2,2.29,0.32,3.17
			c1,7.11,1.36,10.84-0.02,15.68C575.54-97.28,575.45-96.91,575.48-96.73z M567.24-133.96c0.17-0.98,0.55-1.52,1.17-1.76
			c0.3-0.12,0.63-0.13,0.98-0.04c0.35,0.1,0.69,0.29,1.03,0.61c0.34,0.32,0.65,0.74,0.93,1.28c0.28,0.54,0.52,1.18,0.7,1.91
			c0.18,0.74,0.29,1.47,0.32,2.18c0.03,0.71,0,1.36-0.1,1.94c-0.1,0.58-0.27,1.07-0.49,1.47c-0.23,0.4-0.5,0.65-0.83,0.76
			c-0.34,0.11-0.69,0.05-1.04-0.16c-0.35-0.22-0.68-0.54-0.99-0.98c-0.31-0.44-0.6-0.97-0.85-1.59c-0.25-0.62-0.46-1.31-0.62-2.03
			C567.14-131.81,567.07-132.98,567.24-133.96z"/>
		<path d="M577.48-120.73c-0.13-0.23-0.31-0.4-0.52-0.47c-0.26-0.09-0.47-0.4-0.58-0.96c-0.11-0.56-0.03-0.88,0.19-0.99
			c0.28-0.13,0.6-0.3,0.95-0.43c0.35-0.14,0.69-0.25,1.02-0.33c0.33-0.08,0.64-0.16,0.93-0.23c0.29-0.07,0.52-0.12,0.7-0.15
			c0.23-0.04,0.46-0.06,0.7-0.07c0.24-0.01,0.46,0.02,0.67,0.11c0.21,0.08,0.4,0.24,0.57,0.47c0.17,0.23,0.3,0.57,0.39,1.01
			c0.08,0.4,0.12,0.6,0.2,1.01c0.3-1.09,0.66-1.93,1.1-2.52c0.44-0.59,0.96-0.91,1.57-0.97c1.71-0.15,3.23,0.81,4.49,2.92
			c1.26,2.11,2.27,5.19,2.69,9.03c0.71,7.07,0.77,10.67-1.15,15.65c-0.26,0.67-0.42,1.1-0.42,1.35c-0.01,0.25,0.05,0.44,0.18,0.55
			c0.16,0.14,0.13,0.42-0.13,0.82c-0.25,0.37-0.49,0.51-0.71,0.47c-2.34-0.49-3.52-0.69-5.88-0.92c-0.23-0.02-0.24-0.19-0.02-0.54
			c0.24-0.37,0.5-0.6,0.77-0.68c0.22-0.06,0.46-0.2,0.69-0.41c0.19-0.18,0.41-0.49,0.6-0.96c0.04-0.11,0.06-0.17,0.1-0.29
			c1.66-4.65,1.58-8.01,0.9-14.65c-0.24-2.29-0.59-3.96-0.92-4.95c-0.33-0.99-0.76-1.47-1.26-1.43c-0.25,0.02-0.45,0.27-0.61,0.74
			c-0.16,0.48-0.27,1.12-0.34,1.94c-0.08,0.82-0.1,1.75-0.1,2.8s0.04,2.13,0.11,3.23c0.44,5.53,0.43,8.23-0.89,12.16
			c-0.21,0.63-0.33,1.02-0.32,1.24c0.01,0.21,0.09,0.38,0.22,0.46c0.17,0.1,0.17,0.35-0.06,0.71c-0.21,0.34-0.43,0.49-0.66,0.48
			c-2.38-0.13-3.57-0.13-5.98,0.11c-0.23,0.02-0.26-0.12-0.08-0.44c0.2-0.35,0.44-0.59,0.71-0.7c0.22-0.09,0.45-0.25,0.66-0.47
			c0.21-0.21,0.43-0.6,0.62-1.21c1.9-6.26,1.03-11.65-0.64-20.82C577.76-119.95,577.61-120.5,577.48-120.73z"/>
		<path d="M595.96-106.83c1.03-2.01,2.6-3.6,4.88-4.6c0.83-0.41,1.25-0.62,2.08-1.04c-0.07-0.82-0.11-1.23-0.2-2.05
			c-0.16-1.47-0.43-2.71-0.78-3.69c-0.35-0.99-0.79-1.5-1.32-1.55c-0.58-0.05-0.96,0.42-1.17,1.41c-0.21,0.99-0.13,2.49,0.14,4.48
			c-0.15,0.13-0.34,0.24-0.58,0.34c-0.24,0.09-0.48,0.17-0.72,0.21c-0.24,0.05-0.49,0.07-0.73,0.07c-0.24,0-0.44-0.03-0.61-0.1
			c-0.68-0.26-1.21-0.75-1.58-1.47c-0.38-0.72-0.59-1.51-0.67-2.32c-0.11-1.15-0.12-2.25,0.05-3.25c0.17-1,0.47-1.87,0.9-2.59
			c0.44-0.72,0.98-1.3,1.65-1.72c0.67-0.42,1.42-0.61,2.27-0.56c1.19,0.07,2.26,0.41,3.21,1.01c0.95,0.6,1.79,1.46,2.51,2.59
			c0.72,1.13,1.33,2.51,1.79,4.14c0.47,1.62,0.81,3.49,0.96,5.57c0.6,8.06,0.47,12.2-2.33,17.98c-0.36,0.74-0.61,1.21-0.66,1.43
			c-0.05,0.22-0.03,0.43,0.08,0.57c0.13,0.17,0.08,0.49-0.24,0.91c-0.32,0.42-0.62,0.58-0.86,0.55c-0.31-0.04-0.66-0.08-1.02-0.14
			c-0.36-0.06-0.7-0.14-1.01-0.22c-0.31-0.09-0.61-0.16-0.88-0.24c-0.27-0.07-0.49-0.13-0.65-0.19c-0.21-0.07-0.41-0.14-0.6-0.22
			c-0.19-0.08-0.34-0.18-0.45-0.31c-0.11-0.13-0.15-0.28-0.13-0.48c0.02-0.2,0.15-0.44,0.37-0.76c0.23-0.32,0.34-0.49,0.55-0.84
			c-1.01,0.64-1.94,0.99-2.77,1.18c-0.82,0.18-1.55,0.21-2.11,0.1c-1.3-0.27-2.07-0.89-2.29-1.83c-0.21-0.94,0.21-2.43,0.73-4.86
			C594.38-102.18,594.93-104.82,595.96-106.83z M598.65-97.6c0.01,0.71,0.18,1.09,0.56,1.19c0.4,0.1,0.99-0.22,1.71-1.04
			c0.72-0.83,1.42-2.27,1.85-4.51c0.27-1.98,0.33-3.02,0.35-5.17c-0.62,0.44-0.93,0.66-1.56,1.09c-0.62,0.41-1.11,1.1-1.52,2.03
			s-0.71,2.22-1.04,3.78C598.77-99.17,598.64-98.31,598.65-97.6z"/>
		<path d="M619.42-115.99c-0.24-0.33-0.51-0.52-0.8-0.57c-0.7-0.11-1.05-0.17-1.75-0.28c1.15,8.15,1.41,12.57-0.28,19.58
			c-0.33,1.36-0.66,2.39-0.93,3.15c-0.27,0.76-0.48,1.33-0.61,1.73c-0.13,0.4-0.2,0.68-0.2,0.84c0,0.16,0.06,0.25,0.18,0.29
			c0.13,0.04,0.28,0,0.44-0.12c0.16-0.12,0.36-0.36,0.6-0.73s0.52-0.92,0.83-1.65c0.31-0.73,0.66-1.73,0.99-3.04
			c0.51-0.13,1.02-0.13,1.52-0.02c0.5,0.12,0.91,0.41,1.21,0.88c0.69,1.01,0.54,2.73-0.83,4.82c-0.43,0.64-0.95,1.25-1.54,1.84
			c-0.59,0.58-1.31,1.1-2.02,1.46c-0.71,0.37-1.44,0.61-2.18,0.73c-0.74,0.13-1.47,0.07-2.19-0.15c-0.7-0.22-1.26-0.51-1.7-0.87
			s-0.62-0.9-0.58-1.67c0.04-0.77,0.37-1.87,0.75-3.34c0.38-1.47,0.99-3.51,1.5-6.36c1.23-6.61,0.93-10.66-0.18-18.2
			c-0.63-0.1-0.94-0.14-1.57-0.24c-0.24-0.03-0.46-0.04-0.68-0.02c-0.22,0.02-0.39,0.15-0.51,0.39c-0.14-0.59-0.27-1.17-0.39-1.75
			c-0.12-0.58-0.24-1.11-0.34-1.57c-0.26-1.19-0.39-2.12-0.39-2.77c0-0.65,0.17-0.95,0.53-0.91c0.31,0.04,0.61,0.18,0.92,0.44
			c0.3,0.26,0.56,0.5,0.76,0.73c0.27,0.03,0.41,0.05,0.68,0.09c-0.37-1.77-0.57-2.64-0.99-4.34c-0.15-0.59-0.3-1.15-0.43-1.61
			c-0.13-0.46-0.27-0.9-0.4-1.3c-0.13-0.41-0.28-0.84-0.45-1.3c-0.17-0.46-0.38-1.01-0.64-1.66c0.24-0.65,0.56-1.26,0.96-1.83
			s0.88-0.82,1.48-0.77c0.42,0.04,0.84,0.2,1.24,0.49c0.4,0.29,0.78,0.65,1.14,1.09c0.36,0.44,0.67,0.9,0.95,1.39
			c0.28,0.49,0.49,0.95,0.66,1.36c-0.04,0.54,0.07,1.41,0.3,2.63c0.23,1.21,0.46,2.33,0.71,3.36c0.3,1.26,0.44,1.91,0.71,3.21
			c1.44,0.2,2.16,0.31,3.61,0.52c0.37,0.05,0.68,0.37,0.94,0.96c0.26,0.59,0.45,1.26,0.59,2.03c0.22,1.26,0.23,2.37,0.06,3.34
			c-0.18,0.97-0.54,1.41-1.07,1.32C619.86-115.12,619.67-115.65,619.42-115.99z"/>
		<path d="M624.32-87.33c-0.09,0.3-0.1,0.55-0.01,0.68c0.11,0.16-0.01,0.51-0.47,1c-0.43,0.46-0.76,0.64-0.99,0.6
			c-2.38-0.5-3.57-0.79-5.92-1.43c-0.23-0.06-0.14-0.3,0.25-0.75c0.42-0.48,0.78-0.78,1.1-0.83c0.22-0.03,0.48-0.16,0.78-0.38
			s0.67-0.65,1.08-1.27c4.27-7.23,4.4-12.68,3.47-22.77c-0.13-1.39-0.31-2.72-0.52-4c-0.21-1.28-0.51-2.64-0.91-4.07
			c0.39-0.36,0.85-0.73,1.38-1.1c0.53-0.37,1.12-0.5,1.78-0.41c0.44,0.06,0.85,0.27,1.22,0.61c0.37,0.34,0.71,0.76,1.02,1.26
			c0.3,0.5,0.56,1.01,0.78,1.56s0.37,1.04,0.48,1.49c-0.06,0.97-0.03,2.21,0.03,3.74c0.06,1.52,0.11,2.85,0.17,3.96
			c0.5,9.08,0.14,13.82-3.81,20.45C624.74-88.17,624.42-87.64,624.32-87.33z M617.76-138.13c-0.17-1.09,0.04-1.53,0.71-1.45
			c0.33,0.04,0.73,0.21,1.21,0.53c0.48,0.32,0.98,0.76,1.5,1.33c0.52,0.57,1.03,1.25,1.52,2.04c0.49,0.79,0.92,1.67,1.29,2.63
			c0.37,0.96,0.63,1.88,0.79,2.73c0.16,0.85,0.22,1.6,0.19,2.24c-0.03,0.64-0.15,1.14-0.35,1.5c-0.2,0.36-0.47,0.52-0.82,0.47
			c-0.36-0.05-0.75-0.3-1.16-0.74c-0.41-0.44-0.81-1.02-1.22-1.71c-0.41-0.69-0.81-1.48-1.21-2.36c-0.4-0.88-0.77-1.8-1.13-2.76
			C618.38-135.58,617.92-137.04,617.76-138.13z"/>
		<path d="M642.96-91.41c-1.24,2.14-2.76,3.79-4.35,5.05s-3.31,2.16-4.81,2.7c-1.5,0.53-2.76,0.71-3.79,0.59
			c-0.99-0.12-1.54-0.51-1.71-1.24c-0.17-0.73,0.07-1.81,0.38-3.22c0.31-1.41,0.77-3.19,1.23-5.43c0.45-2.24,0.89-4.87,1.21-7.9
			c0.31-2.93,0.48-5.71,0.68-8.24c0.2-2.53,0.42-4.68,0.78-6.44c0.36-1.76,0.85-3.06,1.53-3.92c0.69-0.86,1.56-1.21,2.66-1.07
			c1.14,0.15,2.27,0.76,3.39,1.86c1.12,1.09,2.17,2.57,3.08,4.45c0.91,1.88,1.67,4.13,2.13,6.72s0.58,5.42,0.16,8.38
			C645.11-96.11,644.2-93.55,642.96-91.41z M640.01-110.56c-0.52-2.4-1.26-3.64-2.03-3.74c-0.72-0.09-1.04,1.02-1.14,3.34
			c-0.11,2.32,0.04,6.15-0.56,11.04c-0.62,5.06-1.79,8.23-2.38,10.06c-0.59,1.83-0.73,2.67-0.06,2.75c0.72,0.09,1.85-0.64,3.06-2.39
			s2.73-4.9,3.4-9.93C640.95-104.29,640.53-108.16,640.01-110.56z"/>
		<path d="M647.07-115.39c-0.14-0.31-0.33-0.57-0.56-0.74c-0.27-0.19-0.5-0.64-0.65-1.34c-0.15-0.71-0.09-1.05,0.13-1.1
			c0.27-0.05,0.61-0.14,0.97-0.18c0.36-0.04,0.71-0.06,1.05-0.05c0.34,0.01,0.66,0.01,0.96,0.02c0.3,0,0.54,0.01,0.72,0.03
			c0.24,0.02,0.48,0.06,0.72,0.11c0.24,0.05,0.48,0.15,0.7,0.31c0.22,0.15,0.43,0.38,0.62,0.68c0.19,0.3,0.34,0.72,0.46,1.25
			c0.1,0.48,0.15,0.72,0.25,1.2c0.27-1.18,0.58-2.05,0.98-2.6c0.4-0.55,0.89-0.77,1.49-0.67c1.68,0.28,3.23,1.7,4.51,4.14
			c1.28,2.44,2.28,5.69,2.29,9.69c-0.03,7.37-0.86,11.14-5.8,16.22c-0.66,0.68-1.12,1.1-1.3,1.29c-0.17,0.19-0.24,0.31-0.2,0.33
			c0.06,0.02-0.16,0.23-0.76,0.61c-0.56,0.35-0.96,0.55-1.17,0.64c-2.16,0.93-3.33,1.24-5.71,1.68c-0.23,0.04-0.07-0.12,0.47-0.54
			c0.58-0.45,1.03-0.76,1.38-0.91c0.3-0.13,0.65-0.33,1.04-0.61c0.33-0.23,0.78-0.62,1.29-1.18c0.12-0.13,0.18-0.2,0.29-0.33
			c4.64-5.43,5.45-9.3,5.59-16.92c0.04-2.62-0.24-4.54-0.53-5.7c-0.3-1.16-0.72-1.77-1.22-1.81c-0.25-0.02-0.45,0.22-0.62,0.74
			c-0.17,0.52-0.3,1.25-0.42,2.18c-0.12,0.94-0.22,2.03-0.33,3.26c-0.11,1.24-0.22,2.52-0.34,3.84c-0.52,6.63-1.37,9.89-5.26,14.74
			c-0.62,0.78-1.05,1.27-1.19,1.52c-0.14,0.25-0.19,0.44-0.12,0.5c0.09,0.08-0.09,0.37-0.66,0.82c-0.53,0.42-0.92,0.63-1.16,0.66
			c-2.41,0.32-3.65,0.37-6.07,0.36c-0.23,0-0.09-0.2,0.41-0.65c0.54-0.48,0.98-0.79,1.31-0.9c0.29-0.1,0.63-0.29,1.01-0.57
			c0.37-0.27,0.89-0.78,1.49-1.58c6.13-8.26,6.15-14.91,4.44-26.34C647.38-114.38,647.21-115.08,647.07-115.39z"/>
	</g>
</g>
<g>
	<text transform="matrix(1 0 0 1 32.6262 81.7904)" class="st0 st1">Portfolio</text>
	<g>
		<g>
			<path d="M8.69,54.57c0.08,0.23,0.01,0.31-0.2,0.24c-0.48-0.16-0.72-0.25-1.18-0.41c-0.21-0.07-0.44-0.25-0.69-0.53
				c-0.25-0.28-0.66-0.78-1.18-1.54c-6.4-7.82-4.86-21.34,3.27-27.4c0.28-0.26,0.48-0.43,0.58-0.53s0.17-0.16,0.17-0.16
				c0-0.01,0.2-0.18,0.64-0.52c0.41-0.31,0.68-0.5,0.78-0.58c1.03-0.75,1.57-1.11,2.71-1.82c0.11-0.07-0.03,0.07-0.41,0.43
				c-0.41,0.38-0.71,0.65-0.9,0.79c-0.17,0.13-0.35,0.28-0.54,0.45c-0.18,0.17-0.55,0.52-1.06,1.07c-0.04,0.05-0.06,0.07-0.11,0.12
				c-6.43,7.06-7.95,11.59-6.21,20.26c-0.54-7.2,0.93-11.16,5.93-18.07c0.94-1.53,1.48-2.27,2.7-3.7c0.24-0.3,0.41-0.51,0.5-0.63
				c0.09-0.12,0.13-0.2,0.11-0.21c-0.02-0.02,0.14-0.23,0.54-0.63c0.37-0.37,0.62-0.58,0.74-0.65c1.19-0.7,1.81-1.04,3.09-1.7
				c0.12-0.06,0.01,0.1-0.33,0.51c-0.31,0.37-0.59,0.67-0.85,0.88c-0.48,0.42-1,0.96-1.51,1.65c-0.07,0.09-0.1,0.14-0.16,0.23
				c-5.53,7.82-6.85,12.63-5.46,22.01c-0.37-9.46,1.62-14.52,7.89-23.19c0.31-0.46,0.51-0.79,0.62-0.99c0.1-0.2,0.15-0.35,0.12-0.38
				c-0.03-0.04,0.09-0.29,0.44-0.73c0.33-0.41,0.57-0.65,0.69-0.71c0.78-0.38,1.18-0.56,1.99-0.93c0.13-0.06,0.04,0.13-0.27,0.56
				c-0.33,0.47-0.61,0.78-0.8,0.94c-0.16,0.13-0.33,0.32-0.52,0.54c-0.19,0.22-0.46,0.58-0.8,1.07c-0.12,0.17-0.17,0.25-0.29,0.42
				c-6.85,9.77-9.85,22.2-5.6,33.65c0.33,0.87,0.55,1.43,0.6,1.69c0.05,0.27-0.04,0.37-0.27,0.3c-0.49-0.14-0.73-0.21-1.21-0.36
				c-0.23-0.07-0.47-0.26-0.71-0.56c-0.24-0.31-0.63-0.87-1.1-1.73c-3.87-7.05-4.76-11.08-3.6-18.17c-2.2,7.2-1.93,11.11,1.15,17.52
				C8.35,53.84,8.61,54.33,8.69,54.57z"/>
			<path d="M24.07,44.26c-0.07,0.46-0.22,0.69-0.48,0.68c-2.31-0.08-3.44-0.13-5.62-0.22c0.16,2,0.45,3.63,0.76,4.93
				c0.31,1.29,0.66,2.32,0.98,3.11c0.32,0.78,0.63,1.34,0.9,1.66c0.27,0.33,0.52,0.52,0.76,0.56c0.44,0.07,0.63-0.4,0.62-1.43
				s-0.82-3.39-0.51-4.78c0.03-0.12,0.23-0.29,0.38-0.38c0.15-0.09,0.32-0.16,0.48-0.19c0.16-0.03,0.33-0.04,0.49-0.03
				c0.16,0.01,0.31,0.04,0.43,0.09c0.38,0.2,0.73,0.63,1.08,1.31c0.35,0.67,0.57,1.49,0.7,2.43c0.17,1.33,0.26,2.49,0.25,3.49
				c-0.01,1-0.09,1.8-0.27,2.43c-0.18,0.63-0.44,1.07-0.8,1.32c-0.36,0.26-0.8,0.32-1.32,0.21c-0.7-0.16-1.44-0.59-2.22-1.27
				c-0.79-0.69-1.62-1.64-2.43-2.87c-0.82-1.23-1.62-2.74-2.3-4.58c-0.68-1.84-1.22-4.01-1.42-6.57c-0.39-5.04,0.69-8.89,2.08-11.54
				c1.4-2.65,2.99-4.12,4.54-4.35c0.48-0.07,0.91,0.12,1.31,0.58c0.41,0.47,0.71,1.26,0.95,2.41c0.24,1.15,0.39,2.65,0.52,4.5
				c0.13,1.86,0.16,4.16,0.22,6.86C24.16,43.25,24.14,43.8,24.07,44.26z M20.77,34.73c-0.03-1.28-0.23-1.88-0.67-1.84
				c-0.4,0.04-0.83,0.61-1.24,1.7c-0.41,1.1-0.83,2.97-0.97,5.66c1.1-0.01,1.65-0.02,2.78-0.03C20.72,37.84,20.81,36.01,20.77,34.73
				z"/>
			<path d="M31.4,15.97c0.04-0.21,0.02-0.38-0.06-0.45c-0.09-0.08-0.05-0.38,0.17-0.89c0.23-0.52,0.44-0.81,0.6-0.9
				c0.22-0.12,0.47-0.26,0.72-0.39c0.26-0.12,0.5-0.23,0.72-0.31c0.22-0.08,0.43-0.15,0.63-0.23c0.2-0.07,0.35-0.12,0.46-0.15
				c0.15-0.04,0.29-0.07,0.43-0.09s0.25,0.01,0.33,0.08c0.08,0.07,0.11,0.21,0.1,0.41c-0.01,0.21-0.1,0.52-0.25,0.93
				c-2.07,5.62-2.87,8.6-3.86,14.75c0.36-0.61,0.73-1.09,1.1-1.45c0.37-0.35,0.74-0.54,1.12-0.58c0.82-0.08,1.47,0.26,1.94,1.04
				c0.48,0.79,0.82,1.94,1.06,3.46c0.24,1.53,0.38,3.4,0.47,5.65c0.09,2.24,0.15,4.78,0.24,7.53c0.09,2.8,0.18,5.3,0.22,7.51
				c0.04,2.21,0.03,4.05-0.09,5.54c-0.12,1.49-0.35,2.61-0.73,3.35c-0.38,0.74-0.93,1.04-1.68,0.93c-0.38-0.06-0.79-0.31-1.22-0.76
				c-0.43-0.45-0.87-1.04-1.32-1.78c0.1,0.44,0.14,0.77,0.11,1c-0.03,0.23-0.09,0.39-0.2,0.47c-0.1,0.09-0.23,0.13-0.38,0.13
				c-0.15,0-0.31-0.02-0.47-0.05c-0.13-0.02-0.3-0.06-0.5-0.11c-0.21-0.05-0.44-0.12-0.68-0.18c-0.24-0.06-0.5-0.14-0.77-0.25
				c-0.27-0.11-0.53-0.24-0.76-0.34c-0.17-0.08-0.36-0.38-0.51-0.93c-0.16-0.55-0.13-0.88-0.02-0.98c0.1-0.09,0.15-0.28,0.15-0.51
				c0-0.23-0.11-0.77-0.31-1.64c-2.85-12.72-1.87-26.08,2.69-38.29C31.18,16.68,31.36,16.18,31.4,15.97z M33.84,53.99
				c-0.02-1.84-0.35-5-0.52-9.54c-0.16-4.39-0.09-7.65-0.2-9.63c-0.12-1.97-0.4-2.92-0.97-2.89c-0.26,0.02-0.52,0.36-0.79,1.02
				c-0.27,0.66-0.52,1.55-0.74,2.67c-0.52,7.27-0.32,11.11,0.83,18.18c0.3,0.96,0.61,1.67,0.92,2.12c0.3,0.45,0.59,0.7,0.87,0.73
				C33.69,56.71,33.86,55.84,33.84,53.99z"/>
			<path d="M57.71,14.91c0.93,4.32,1.23,10.94,1.07,20.18c-0.15,8.93-0.71,15.98-1.89,20.72c-1.18,4.74-2.96,6.9-5.58,6.72
				c-2.21-0.16-3.31-0.25-5.46-0.45c-0.19-0.02-0.34-0.34-0.43-0.96c-0.1-0.67-0.03-1.07,0.13-1.19c0.13-0.11,0.23-0.36,0.28-0.69
				c0.05-0.33,0.02-0.98-0.09-1.95c-1.04-14.92-0.53-28.67,1.68-43.46c0.12-0.78,0.18-1.3,0.16-1.56s-0.08-0.48-0.18-0.57
				c-0.12-0.11-0.16-0.48-0.02-1.11c0.13-0.58,0.29-0.89,0.47-0.91c1.97-0.31,2.97-0.45,5-0.69C55.25,8.7,56.78,10.6,57.71,14.91z
				 M52.17,55.94c0.43-0.78,0.78-2.04,1.07-3.79c0.29-1.75,0.49-4.03,0.66-6.84c0.17-2.82,0.27-6.26,0.36-10.16
				c0.09-3.9,0.15-7.19,0.12-9.9c-0.03-2.71-0.12-4.87-0.31-6.53c-0.19-1.66-0.45-2.84-0.81-3.56c-0.36-0.73-0.8-1.06-1.34-1.01
				c-0.31,0.03-0.47,0.04-0.78,0.08c-2.13,14.32-2.09,28.39-1.31,42.8c0.33,0.02,0.5,0.03,0.83,0.04
				C51.24,57.1,51.74,56.73,52.17,55.94z"/>
			<path d="M73.18,44.87c-0.11,0.56-0.33,0.84-0.65,0.84c-2.89,0-4.36,0-7.23-0.01c0.01,2.55,0.08,4.64,0.2,6.29
				c0.12,1.64,0.27,2.95,0.46,3.93c0.19,0.98,0.41,1.66,0.65,2.04c0.25,0.39,0.52,0.58,0.83,0.59c0.57,0,1.02-0.66,1.35-1.99
				s-0.06-4.28,0.53-6.01c0.06-0.17,0.35-0.38,0.56-0.51c0.22-0.13,0.43-0.22,0.65-0.28c0.21-0.05,0.43-0.08,0.64-0.08
				s0.38,0.03,0.53,0.08c0.45,0.21,0.83,0.71,1.14,1.5c0.31,0.78,0.44,1.75,0.36,2.89c-0.11,1.6-0.34,3.04-0.68,4.29
				c-0.35,1.26-0.77,2.31-1.28,3.17c-0.51,0.86-1.09,1.51-1.72,1.96c-0.64,0.45-1.3,0.67-1.99,0.66c-0.92-0.01-1.76-0.38-2.54-1.12
				c-0.78-0.74-1.48-1.87-2.08-3.41c-0.61-1.53-1.11-3.49-1.5-5.89c-0.38-2.41-0.61-5.29-0.64-8.68
				c-0.06-6.68,0.62-11.76,1.84-15.13c1.22-3.36,2.82-5.04,4.85-5.05c0.62,0,1.28,0.33,1.96,0.99c0.69,0.67,1.33,1.73,1.91,3.19
				c0.58,1.46,1.07,3.31,1.46,5.56c0.38,2.25,0.58,5.01,0.58,8.22C73.35,43.65,73.29,44.31,73.18,44.87z M68.59,33.17
				c-0.25-1.6-0.66-2.4-1.23-2.4c-0.52,0-0.96,0.68-1.3,2.06c-0.34,1.37-0.59,3.75-0.71,7.18c1.44,0,2.16,0,3.61,0
				C68.97,37.05,68.84,34.78,68.59,33.17z"/>
			<path d="M83.27,62.39c-0.16,0.35-0.37,0.53-0.63,0.55c-0.86,0.04-1.3,0.06-2.17,0.09c-0.27,0.01-0.45-0.16-0.56-0.5
				c-0.11-0.35-0.19-0.99-0.25-1.95c-0.84-10.28-2.1-20.59-3.6-30.79c-0.12-0.68-0.25-1.18-0.38-1.49s-0.27-0.58-0.41-0.7
				c-0.18-0.16-0.34-0.6-0.35-1.32c-0.01-0.67,0.09-1,0.31-1c2.3,0.03,3.44,0.05,5.7,0.11c0.21,0.01,0.34,0.34,0.36,1
				c0.02,0.62-0.07,1.05-0.27,1.3c-0.34,0.46-0.44,1.43-0.3,2.94c1.07,8.61,1.54,13.24,2.09,21.77c1.19-8.79,1.69-13.52,2.23-22.23
				c0-1.23-0.19-2.02-0.54-2.39c-0.22-0.16-0.35-0.59-0.38-1.31c-0.03-0.66,0.05-0.99,0.27-0.98c1.38,0.05,2.07,0.07,3.43,0.13
				c0.21,0.01,0.33,0.34,0.38,0.99c0.04,0.61-0.05,1.03-0.23,1.27c-0.14,0.19-0.25,0.46-0.34,0.78c-0.09,0.33-0.15,0.79-0.2,1.41
				c-0.02,0.24-0.02,0.37-0.04,0.61c-0.6,9.91-1.88,19.98-3.66,29.75C83.57,61.38,83.42,62.03,83.27,62.39z"/>
			<path d="M101.69,44.61c-0.12,0.52-0.32,0.79-0.61,0.79c-2.59,0.05-3.9,0.08-6.58,0.12c-0.07,2.45-0.13,4.45-0.15,6.03
				c-0.02,1.57,0,2.81,0.08,3.74c0.07,0.93,0.2,1.56,0.38,1.91c0.18,0.35,0.41,0.52,0.7,0.5c0.52-0.04,1.02-0.7,1.46-1.98
				s0.35-4.02,1-5.7c0.07-0.17,0.34-0.37,0.54-0.5s0.4-0.23,0.6-0.28c0.2-0.06,0.39-0.09,0.58-0.09c0.19-0.01,0.34,0.01,0.47,0.05
				c0.39,0.18,0.7,0.64,0.92,1.35c0.22,0.72,0.26,1.61,0.09,2.67c-0.24,1.49-0.61,2.83-1.07,4.02c-0.46,1.19-0.99,2.2-1.57,3.05
				c-0.58,0.85-1.19,1.51-1.84,1.99s-1.28,0.76-1.91,0.82c-0.84,0.08-1.56-0.19-2.18-0.82c-0.62-0.64-1.11-1.67-1.49-3.11
				c-0.38-1.44-0.63-3.31-0.79-5.64c-0.16-2.34-0.18-5.15-0.11-8.47c0.13-6.53,0.49-11.51,1.38-14.72c0.9-3.21,2.2-4.7,4.05-4.58
				c0.57,0.04,1.2,0.39,1.9,1.07c0.69,0.67,1.37,1.7,2.02,3.09c0.65,1.39,1.22,3.13,1.66,5.23c0.45,2.1,0.7,4.66,0.65,7.65
				C101.88,43.48,101.81,44.09,101.69,44.61z M97.4,33.6c-0.32-1.53-0.75-2.3-1.28-2.32c-0.48-0.02-0.83,0.61-1.07,1.91
				c-0.24,1.3-0.34,3.57-0.42,6.86c1.34,0.01,2.01,0.01,3.33,0.01C97.93,37.28,97.71,35.13,97.4,33.6z"/>
			<path d="M102.12,61.31c-0.19,0.02-0.22-0.26-0.1-0.86c0.12-0.65,0.31-1.05,0.5-1.21c0.17-0.14,0.34-0.4,0.49-0.73
				c0.15-0.33,0.31-0.96,0.45-1.89c1.95-12.51,1.51-25.35-1.31-37.7c-0.26-1.12-0.53-2.19-0.82-3.21s-0.64-2.1-1.06-3.24
				c0.22-0.28,0.47-0.56,0.76-0.83c0.29-0.27,0.64-0.35,1.07-0.25c0.28,0.07,0.57,0.24,0.85,0.51c0.28,0.28,0.56,0.61,0.82,1
				c0.26,0.39,0.5,0.79,0.72,1.2c0.22,0.42,0.39,0.8,0.53,1.14c0.11,0.73,0.3,1.69,0.57,2.86c0.26,1.18,0.49,2.21,0.71,3.1
				c2.81,11.59,3.14,23.71,0.96,35.44c-0.12,0.72-0.17,1.22-0.14,1.5c0.03,0.28,0.1,0.46,0.21,0.53c0.15,0.11,0.16,0.47,0.02,1.1
				c-0.13,0.58-0.3,0.88-0.47,0.9C104.99,60.95,104.05,61.08,102.12,61.31z"/>
			<path d="M120.38,50.5c-0.59,1.95-1.34,3.62-2.13,5.03c-0.8,1.41-1.63,2.54-2.47,3.39c-0.83,0.84-1.61,1.35-2.36,1.49
				c-0.72,0.14-1.25-0.11-1.63-0.77c-0.38-0.66-0.61-1.68-0.73-3.07c-0.12-1.39-0.13-3.12-0.09-5.21c0.05-2.09,0.16-4.47,0.27-7.13
				c0.1-2.57,0.19-4.96,0.33-7.09c0.13-2.12,0.3-3.92,0.55-5.37c0.26-1.46,0.59-2.53,1.06-3.25c0.47-0.72,1.06-1.02,1.81-0.92
				c0.77,0.1,1.55,0.58,2.33,1.41c0.78,0.83,1.53,1.95,2.19,3.36c0.66,1.41,1.23,3.08,1.61,5.05c0.38,1.96,0.54,4.16,0.41,6.55
				C121.39,46.38,120.97,48.56,120.38,50.5z M117.4,35.3c-0.4-1.85-0.93-2.79-1.46-2.83c-0.5-0.04-0.71,0.85-0.76,2.71
				c-0.05,1.86,0.07,4.93-0.13,9.1c-0.21,4.3-0.63,7.27-0.75,9c-0.12,1.74,0.01,2.54,0.49,2.48c0.52-0.07,1.11-0.97,1.68-2.72
				c0.57-1.75,1.23-4.66,1.45-8.83C118.14,40.15,117.8,37.15,117.4,35.3z"/>
			<path d="M122.83,31.58c-0.1-0.23-0.23-0.42-0.39-0.55c-0.18-0.14-0.35-0.47-0.48-0.99c-0.13-0.52-0.11-0.78,0.03-0.8
				c0.17-0.03,0.38-0.08,0.6-0.11c0.22-0.02,0.44-0.02,0.65-0.01c0.21,0.01,0.41,0.03,0.59,0.04c0.18,0.01,0.33,0.03,0.44,0.05
				c0.14,0.02,0.27,0.06,0.41,0.1c0.13,0.04,0.27,0.11,0.41,0.2c0.14,0.09,0.27,0.23,0.41,0.42c0.14,0.18,0.26,0.41,0.36,0.68
				c0.18-0.88,0.52-1.24,1.08-1.14c0.68,0.13,1.37,0.56,2.06,1.29c0.69,0.73,1.38,1.69,1.99,2.89c0.61,1.2,1.14,2.63,1.47,4.31
				c0.33,1.67,0.47,3.56,0.29,5.59c-0.18,2.07-0.64,3.92-1.26,5.57c-0.62,1.66-1.37,3.07-2.15,4.27c-0.78,1.2-1.58,2.17-2.33,2.91
				c-0.75,0.74-1.43,1.2-2.03,1.37c-0.3,0.09-0.5,0.01-0.61-0.22c-0.11-0.23-0.17-0.58-0.17-1.04c-0.98,2.28-1.56,3.4-2.88,5.57
				c-0.42,0.69-0.69,1.14-0.78,1.36c-0.09,0.21-0.12,0.37-0.08,0.4c0.04,0.05-0.06,0.3-0.4,0.77c-0.31,0.43-0.54,0.67-0.67,0.73
				c-1.37,0.62-2.08,0.91-3.54,1.48c-0.14,0.05-0.06-0.15,0.22-0.61c0.31-0.5,0.56-0.84,0.76-0.99c0.18-0.14,0.38-0.36,0.59-0.64
				c0.22-0.28,0.54-0.78,0.93-1.51c4.83-8.22,6.97-20.53,4.92-29.87C123.08,32.32,122.93,31.8,122.83,31.58z M126.11,53.85
				c0.38-0.08,0.98-0.87,1.65-2.39c0.68-1.52,1.51-4.04,1.8-7.66c0.28-3.51-0.13-6.12-0.59-7.73c-0.46-1.61-1-2.44-1.48-2.49
				c-0.19-0.02-0.32,0.17-0.39,0.58c-0.07,0.41-0.09,0.99-0.1,1.77c0.94,6.54,0.62,10.06-1.32,16.38
				C125.58,53.43,125.69,53.93,126.11,53.85z"/>
			<path d="M133.47,33.09c-0.11-0.19-0.24-0.36-0.38-0.47c-0.17-0.13-0.34-0.41-0.51-0.84c-0.17-0.44-0.18-0.65-0.07-0.66
				c0.13-0.02,0.31-0.05,0.49-0.05c0.18-0.01,0.36,0.01,0.54,0.03c0.18,0.02,0.35,0.05,0.5,0.07c0.15,0.02,0.28,0.04,0.37,0.07
				c0.13,0.03,0.26,0.07,0.38,0.11c0.13,0.04,0.27,0.12,0.4,0.22c0.14,0.1,0.28,0.24,0.42,0.43c0.14,0.18,0.28,0.43,0.41,0.74
				c0.12,0.28,0.18,0.42,0.29,0.71c-0.05-0.59-0.06-1.05,0-1.37c0.06-0.32,0.24-0.44,0.55-0.36c0.37,0.1,0.73,0.27,1.08,0.53
				c0.35,0.25,0.8,0.7,1.29,1.35c0.39,0.51,0.75,1.16,1.05,1.95c0.29,0.78,0.41,1.42,0.4,1.91c-0.03,0.31-0.1,0.59-0.22,0.81
				c-0.12,0.23-0.26,0.42-0.4,0.56c-0.15,0.14-0.29,0.25-0.43,0.32c-0.14,0.07-0.24,0.11-0.29,0.1c-0.16-1.32-0.45-2.26-0.71-2.83
				c-0.25-0.57-0.5-0.87-0.71-0.9c-0.09-0.01-0.15,0.09-0.19,0.31c-0.04,0.22-0.05,0.6-0.03,1.13c0.02,0.53,0.07,1.23,0.09,2.09
				c0.03,0.87,0.05,1.94-0.01,3.2c-0.21,3.94-0.8,5.86-2.78,9.5c-0.25,0.48-0.42,0.81-0.47,0.99c-0.05,0.18-0.06,0.28,0,0.31
				c0.07,0.05-0.02,0.28-0.31,0.69c-0.26,0.38-0.46,0.59-0.59,0.64c-1.3,0.47-1.97,0.69-3.36,1.13c-0.13,0.04-0.07-0.14,0.17-0.56
				c0.26-0.45,0.47-0.75,0.66-0.88c0.13-0.09,0.29-0.25,0.46-0.48c0.17-0.23,0.41-0.6,0.67-1.13c3.28-6.87,3.7-10.93,1.7-18.06
				C133.75,33.71,133.58,33.28,133.47,33.09z"/>
		</g>
	</g>
</g>
</svg>
