<svg width="1030" height="324" viewBox="0 0 1030 324" fill="none" xmlns="http://www.w3.org/2000/svg">
<g clip-path="url(#clip0_250_1138)">
<path d="M73.0464 180.701C72.9446 181.974 71.851 182.737 69.74 182.915C64.9838 183.348 62.6439 183.5 57.964 183.551C55.9039 183.551 54.0981 182.991 52.5212 181.846C50.9442 180.701 48.7569 178.488 46.1118 175.053C21.1102 134.394 -4.57814 86.4067 25.6374 40.6842C26.3242 39.6919 26.7565 39.1067 26.8837 38.8268C27.0109 38.5724 26.8837 38.5469 26.5785 38.725C25.9426 39.1067 26.3496 38.6233 27.8502 37.2493C29.2236 35.9771 30.3936 34.9848 31.3092 34.2469C40.7198 26.4611 46.1881 23.2552 57.964 17.912C59.1086 17.4032 59.0577 17.8866 57.8623 19.4132C56.5652 21.0671 55.1917 22.3392 53.8183 23.2043C52.6483 23.9422 51.6564 24.731 50.8934 25.5452C50.1304 26.3339 48.935 27.9369 47.4598 30.4304C47.3581 30.6339 47.3072 30.7357 47.2054 30.9647C29.1728 65.6955 36.6503 97.8819 47.5615 133.147C42.7799 100.655 46.3407 67.9091 61.6774 38.5469C63.6358 31.1682 64.9075 27.7588 67.9341 21.4233C68.3411 20.1256 68.5446 19.2351 68.4683 18.7517C68.392 18.2682 68.0867 18.0138 67.5526 18.0138C66.6116 18.0138 66.6879 17.1996 67.9341 15.4949C69.0787 13.9174 70.2995 12.9505 71.5203 12.5179C84.1865 8.11617 90.9773 6.48777 104.864 4.14694C106.187 3.91795 106.314 4.57949 105.297 6.20789C104.356 7.68363 103.033 8.87948 101.304 9.74457C98.1243 11.4239 95.7589 13.7138 94.2837 16.6907C94.1311 17.0978 94.0548 17.2759 93.9022 17.683C79.939 53.5588 85.7379 85.5162 95.6317 121.29C93.2409 79.3842 98.3532 50.7854 117.429 13.3067C118.268 11.4239 118.624 10.0753 118.421 9.2357C118.243 8.39605 117.734 7.75996 116.996 7.55641C115.953 7.25108 115.801 6.30966 116.869 4.57948C117.861 2.97653 119.056 2.11144 120.43 1.98422C128.747 1.06824 132.969 0.762917 141.337 0.432148C142.71 0.381261 142.888 1.11913 141.972 2.69664C140.955 4.40138 139.607 5.47002 138.106 5.95345C137.038 6.30966 135.97 6.9712 135.029 7.7854C134.062 8.5996 132.969 9.89724 131.748 11.8055C131.316 12.4671 131.112 12.7978 130.68 13.4594C106.238 61.7517 99.1162 113.403 118.675 165.333C120.099 169.124 120.761 171.618 120.582 172.941C120.379 174.29 119.234 175.104 117.098 175.46C112.571 176.198 110.307 176.579 105.831 177.368C103.72 177.75 101.863 177.419 100.312 176.35C98.7601 175.282 96.6237 173.043 94.0803 169.43C76.8615 144.317 64.6532 115.362 59.4392 85.3126C56.5906 114.929 60.1513 145.462 70.8336 173.297C72.436 176.987 73.2753 179.404 73.1481 180.701H73.0464Z" fill="white"/>
<path d="M205.761 113.25C205.43 114.853 204.362 115.667 202.505 115.642C185.795 115.413 177.071 115.514 159.497 116.278C161.124 124.089 163.21 130.45 165.295 135.412C167.406 140.348 169.594 144.19 171.73 147.014C173.867 149.838 175.901 151.721 177.834 152.739C179.767 153.756 181.675 154.189 183.557 154.062C187.042 153.833 188.975 151.797 189.559 147.854C190.144 143.884 186.05 133.58 187.169 130.068C187.321 129.61 188.924 128.872 190.094 128.465C191.264 128.058 192.459 127.753 193.705 127.575C194.926 127.397 196.172 127.32 197.393 127.295C198.614 127.295 199.657 127.346 200.547 127.498C203.319 128.109 205.939 129.559 208.431 131.824C210.924 134.088 212.526 136.887 213.213 140.119C214.205 144.698 214.434 148.744 213.874 152.255C213.315 155.792 212.069 158.743 210.11 161.186C208.152 163.629 205.557 165.562 202.302 167.013C199.046 168.463 195.282 169.354 191.035 169.71C185.388 170.168 179.666 169.71 173.892 168.158C168.119 166.606 162.421 163.934 156.928 159.863C151.434 155.817 146.195 150.296 141.616 143.121C137.013 135.946 133.249 126.99 130.96 116.38C126.458 95.4902 129.357 78.2393 137.344 66.9168C145.33 55.5943 157.004 49.8186 169.696 50.2511C173.587 50.3784 177.453 51.6506 181.319 54.0677C185.185 56.4849 188.491 60.2251 191.569 65.0085C194.646 69.792 197.266 75.7204 199.759 82.7429C202.251 89.7653 204.159 98.1363 205.761 107.576C206.142 109.79 206.142 111.647 205.812 113.25H205.761ZM174.935 77.0943C173.307 71.9801 170.942 69.3594 167.432 69.2831C164.202 69.2322 161.404 71.3949 159.369 75.7967C157.335 80.1985 156.165 87.9334 156.928 98.6961C165.804 98.4417 170.204 98.3908 178.852 98.4162C177.682 89.3582 176.563 82.2085 174.96 77.0689L174.935 77.0943Z" fill="white"/>
<path d="M224.073 15.8765C223.972 15.1641 223.539 14.4771 222.802 14.0191C221.886 13.4339 221.632 12.4161 222.268 10.9404C222.903 9.46466 223.844 8.87945 224.964 8.95578C226.362 9.05756 227.939 9.13389 229.567 9.33744C231.195 9.54099 232.721 9.76998 234.12 10.0499C235.544 10.3297 236.841 10.6096 238.011 10.8641C239.207 11.1185 240.122 11.3475 240.809 11.551C241.699 11.8055 242.335 12.009 243.607 12.4416C244.904 12.8741 245.997 13.3576 246.939 13.8919C247.88 14.4262 248.566 15.0623 248.999 15.8002C249.431 16.538 249.456 17.4286 249.075 18.4972C244.014 33.0765 241.292 42.4398 239.359 64.0161C241.572 62.286 243.963 61.0901 246.481 60.4031C248.999 59.6907 251.644 59.5635 254.391 59.9451C260.495 60.7848 265.429 62.6676 269.371 65.7972C273.339 68.9268 276.518 72.896 279.189 77.8321C281.859 82.7682 284.047 88.6457 285.929 95.4138C287.811 102.182 289.49 109.662 291.041 117.423C292.618 125.336 293.89 132.562 294.576 138.77C295.289 145.004 295.314 150.092 294.475 154.189C293.635 158.26 291.83 161.237 288.955 163.323C286.056 165.384 281.961 166.376 276.569 166.376C273.771 166.376 270.872 165.868 267.871 164.799C264.869 163.73 261.817 162.204 258.74 160.194C259.35 161.44 259.528 162.407 259.198 163.069C258.893 163.73 258.333 164.239 257.494 164.519C256.654 164.824 255.688 165.003 254.543 165.079C253.399 165.13 252.331 165.206 251.161 165.232C250.27 165.232 249.075 165.232 247.574 165.232C246.074 165.232 244.446 165.181 242.716 165.181C240.987 165.181 239.13 165.104 237.172 164.977C235.213 164.85 233.357 164.646 231.729 164.494C230.432 164.366 229.287 163.552 228.473 161.847C227.634 160.143 227.863 159.074 228.88 158.616C229.669 158.26 230.127 157.598 230.203 156.861C230.279 156.123 229.72 154.392 228.575 151.619C214.561 108.67 206.168 64.4741 222.878 20.6854C223.743 18.1664 224.124 16.6398 224.023 15.9019L224.073 15.8765ZM269.219 144.8C269.041 139.406 266.548 129.89 263.75 116.532C261.054 103.632 259.35 93.251 257.112 86.7883C254.899 80.3256 252 76.8144 247.803 76.28C245.921 76.0256 244.192 76.8652 242.716 78.799C241.241 80.7327 240.071 83.4806 239.334 87.0173C241.114 110.96 243.886 122.842 251.949 144.342C254.111 147.268 256.273 149.355 258.435 150.652C260.597 151.95 262.657 152.611 264.666 152.637C267.998 152.713 269.371 150.169 269.193 144.8H269.219Z" fill="white"/>
<path d="M403.637 35.2134C411.776 48.037 413.353 70.3512 414.014 99.0773C414.65 126.836 413.48 146.352 407.783 158.132C402.086 169.913 391.76 172.406 374.77 169.786C360.425 167.572 352.998 166.86 338.603 165.816C337.306 165.715 336.314 164.926 335.627 163.374C334.889 161.72 335.195 160.753 336.263 160.422C337.102 160.168 337.712 159.557 337.967 158.743C338.221 157.903 337.865 156.249 336.949 153.68C323.393 113.86 320.672 72.7684 328.582 31.4986C328.683 29.5903 328.48 28.4199 328.022 27.8092C327.564 27.1986 326.852 26.7151 326.013 26.4861C324.843 26.1808 324.283 25.3666 324.538 24.0181C324.767 22.7714 325.53 22.1607 326.801 22.1098C341.044 21.6009 349.59 20.7867 364.622 19.2856C382.502 17.5045 395.498 22.3897 403.612 35.2134H403.637ZM378.559 153.323C381.077 151.542 382.858 148.387 384.129 143.68C385.376 138.973 385.986 132.612 386.266 124.597C386.546 116.583 386.215 106.685 385.783 94.8027C385.35 82.9205 385.121 72.514 384.384 63.9394C383.646 55.3394 382.4 48.8512 380.492 44.0169C378.585 39.1826 376.092 35.9258 373.066 33.9921C370.039 32.0583 366.86 31.2441 362.714 31.5495C360.298 31.7276 359.102 31.8293 356.737 31.982C350.48 73.4299 352.134 114.242 363.833 154.621C366.021 154.85 367.114 154.977 369.327 155.232C373.091 155.664 376.067 155.079 378.585 153.298L378.559 153.323Z" fill="white"/>
<path d="M493.318 148.897C492.733 150.424 491.537 150.958 489.681 150.449C472.996 145.768 464.908 143.427 448.172 138.949C448.783 146.709 449.825 153.146 451.046 158.286C452.242 163.426 453.615 167.598 455.065 170.804C456.515 174.036 458.015 176.402 459.567 177.954C461.118 179.506 462.797 180.575 464.577 181.109C467.858 182.127 470.122 181.007 471.495 177.547C472.843 174.112 470.809 162.968 472.487 160.169C472.691 159.838 474.344 159.558 475.539 159.533C476.735 159.507 477.93 159.533 479.151 159.762C480.372 159.965 481.567 160.22 482.762 160.576C483.958 160.932 484.975 161.288 485.815 161.695C488.434 163.095 490.749 165.283 492.783 168.285C494.818 171.262 495.81 174.494 495.785 177.903C495.759 182.712 494.996 186.707 493.521 189.862C492.071 193.042 490.087 195.383 487.544 196.935C485.001 198.487 482.025 199.276 478.566 199.327C475.132 199.378 471.419 198.741 467.451 197.418C462.161 195.663 457.15 193.068 452.242 189.607C447.358 186.147 442.806 181.821 438.635 176.504C434.463 171.186 430.725 164.799 427.622 157.192C424.519 149.584 422.255 140.679 421.289 130.578C419.381 110.681 422.764 95.516 430.038 86.3054C437.312 77.0947 447.511 73.6089 459.796 76.4586C463.585 77.3237 467.477 79.3592 471.521 82.5906C475.565 85.822 479.176 90.3001 482.457 95.9231C485.738 101.546 488.409 108.314 490.571 116.176C492.707 124.039 493.826 133.147 494.131 143.147C494.208 145.488 493.928 147.37 493.368 148.923L493.318 148.897ZM466.027 104.981C464.577 99.4344 462.186 96.2539 458.804 95.4397C455.701 94.6764 453.081 96.2794 451.072 100.172C449.062 104.065 447.74 111.368 447.536 121.774C456.006 123.911 460.126 125.005 468.519 127.219C468.24 118.008 467.502 110.528 466.052 104.981H466.027Z" fill="white"/>
<path d="M552.808 220.342C552.07 221.182 550.9 221.335 549.298 220.877C544.084 219.325 541.464 218.536 536.25 216.933C534.648 216.449 533.427 215.559 532.587 214.287C531.748 213.015 530.883 210.852 530.019 207.748C519.286 173.399 511.248 138.668 504.152 103.428C503.567 101.036 502.931 99.2299 502.194 98.0086C501.482 96.7873 500.693 95.7187 499.854 95.1081C498.709 94.243 497.946 92.5891 498.099 90.172C498.226 87.9075 498.938 86.966 500.286 87.2968C514.428 90.7572 521.702 92.5128 535.945 95.566C537.293 95.8459 537.903 97.1181 537.776 99.408C537.674 101.52 536.911 102.919 535.512 103.479C533.223 104.548 532.206 107.652 532.587 112.817C535.818 137.574 539.887 162.509 545.177 186.909C548.764 163.297 554.079 139.686 559.802 116.532C560.285 112.333 559.497 109.458 557.436 107.855C556.114 107.092 555.529 105.413 555.656 102.919C555.783 100.604 556.495 99.5862 557.843 99.8406C566.694 101.393 571.12 102.08 579.996 103.326C581.344 103.504 581.98 104.751 581.879 107.118C581.777 109.306 580.963 110.756 579.615 111.468C578.623 112.003 577.758 112.868 577.021 113.911C576.283 114.954 575.622 116.532 575.037 118.593C574.833 119.432 574.706 119.839 574.503 120.679C566.491 151.848 559.497 183.093 554.384 214.872C554.079 217.722 553.571 219.503 552.808 220.342Z" fill="white"/>
<path d="M656.273 181.134C655.485 183.017 654.137 183.908 652.229 183.704C635.137 181.923 626.592 180.803 609.551 178.106C609.22 186.732 609.373 193.932 609.856 199.632C610.339 205.331 611.077 209.911 612.043 213.422C613.01 216.934 614.205 219.453 615.604 221.03C617.003 222.608 618.605 223.574 620.437 223.931C623.819 224.592 626.566 222.888 628.652 218.638C630.763 214.389 630.076 202.558 632.569 198.334C632.874 197.8 634.654 197.291 635.951 197.011C637.248 196.731 638.52 196.579 639.792 196.579C641.064 196.579 642.31 196.63 643.531 196.808C644.752 196.96 645.794 197.189 646.634 197.495C649.228 198.589 651.415 200.624 653.145 203.677C654.874 206.731 655.459 210.293 654.9 214.313C654.086 219.961 652.534 224.872 650.347 228.918C648.16 232.963 645.464 236.169 642.31 238.535C639.156 240.876 635.646 242.377 631.806 243.09C627.94 243.777 623.972 243.624 619.852 242.683C614.383 241.436 609.449 239.095 604.973 235.686C600.471 232.276 596.58 227.773 593.248 222.048C589.916 216.323 587.22 209.326 585.261 200.955C583.303 192.559 582.26 182.712 582.515 171.491C583.049 149.406 587.525 132.689 595.232 121.85C602.938 111.011 613.035 105.999 625.651 106.838C629.542 107.093 633.561 108.543 637.757 111.24C641.928 113.937 645.667 118.059 648.923 123.58C652.178 129.102 654.696 136.073 656.426 144.47C658.155 152.841 658.537 162.917 657.748 174.29C657.57 176.936 657.062 179.201 656.273 181.083V181.134ZM631.577 137.218C630.381 131.315 627.991 128.262 624.506 127.957C621.301 127.677 618.555 129.865 616.265 134.496C613.976 139.127 612.12 147.37 610.848 158.998C619.47 160.169 623.768 160.703 632.416 161.644C633.052 151.365 632.798 143.147 631.577 137.244V137.218Z" fill="white"/>
<path d="M661.36 247.441C660.088 247.212 659.554 245.991 659.732 243.727C659.91 241.284 660.724 239.935 661.97 239.554C662.988 239.248 663.903 238.409 664.615 237.264C665.353 236.093 665.836 233.727 666.065 230.063C668.71 179.888 676.9 128.39 672.729 78.1893C672.22 73.762 671.508 69.6402 670.491 65.6964C669.473 61.7526 667.973 57.8088 665.963 53.8904C667.998 52.5165 670.363 51.0662 673.034 49.565C675.73 48.0384 678.706 47.1224 682.063 46.7916C684.301 46.5626 686.387 46.7662 688.294 47.4277C690.227 48.0893 691.982 49.0052 693.559 50.2011C695.136 51.4224 696.51 52.7455 697.629 54.2467C698.773 55.7478 699.612 57.1727 700.197 58.5212C699.943 61.7017 700.121 65.849 700.401 70.836C700.681 75.823 700.859 80.2502 701.164 84.0159C703.936 134.089 696.255 185.13 692.44 235.025C692.262 238.053 692.44 240.19 692.974 241.462C693.508 242.734 694.221 243.625 695.085 244.108C696.306 244.795 696.789 246.474 696.51 249.019C696.255 251.411 695.467 252.505 694.195 252.327C681.071 250.673 674.509 249.68 661.385 247.416L661.36 247.441Z" fill="white"/>
<path d="M777.39 215.839C774.439 225.813 770.904 234.184 766.758 240.952C762.638 247.72 757.984 252.707 752.948 256.066C747.886 259.424 742.571 260.849 736.975 260.467C731.558 260.111 726.954 258.025 723.037 254.259C719.12 250.493 715.941 245.354 713.423 238.738C710.931 232.123 709.15 224.159 708.209 214.821C707.243 205.483 707.217 194.924 708.235 183.653C709.201 172.788 711.083 162.509 713.703 153.044C716.297 143.579 719.502 135.335 723.266 128.363C727.03 121.392 731.303 115.87 736.136 111.749C740.968 107.652 746.259 105.311 752.083 104.802C758.111 104.243 763.503 105.591 768.208 109.001C772.913 112.41 776.779 117.448 779.679 124.216C782.578 130.984 784.435 139.38 785.172 149.329C785.91 159.278 785.452 170.422 784.003 182.33C782.527 194.466 780.315 205.891 777.39 215.864V215.839ZM758.823 141.645C758.009 132.714 755.415 128.44 751.345 128.72C747.556 128.974 744.554 133.63 742.113 142.612C739.671 151.593 737.382 165.944 735.5 184.645C733.541 203.957 733.058 218.154 733.821 226.398C734.584 234.642 736.695 238.764 740.281 238.917C744.147 239.069 747.352 235.125 749.845 226.831C752.337 218.536 754.499 203.906 756.661 184.289C758.747 165.282 759.662 150.601 758.848 141.67L758.823 141.645Z" fill="white"/>
<path d="M801.679 115.413C801.298 114.243 800.56 113.327 799.568 112.869C798.347 112.334 797.635 110.706 797.737 107.805C797.839 104.905 798.602 103.327 799.873 102.869C801.476 102.309 803.358 101.572 805.342 100.961C807.325 100.35 809.233 99.8414 811.09 99.4598C812.921 99.0781 814.65 98.6964 816.227 98.3657C817.83 98.0095 819.101 97.755 820.068 97.6024C821.238 97.4243 822.357 97.297 823.476 97.2461C824.595 97.1698 825.612 97.297 826.579 97.6024C827.545 97.9077 828.385 98.4929 829.097 99.3834C829.809 100.274 830.241 101.521 830.394 103.073C834.514 96.7627 838.889 93.2006 843.798 92.3355C849.775 91.2923 854.887 92.3864 859.033 95.7195C863.178 99.0781 866.485 104.218 868.723 111.24C870.961 118.237 872.106 127.015 872.055 137.447C872.004 147.879 870.91 159.533 869.003 172.102C867.07 184.875 864.577 197.011 861.602 207.723C858.626 218.435 855.141 227.569 851.224 235.177C847.308 242.759 842.933 248.637 838.253 252.886C833.573 257.135 828.614 259.45 823.4 259.908C820.805 260.137 818.593 259.45 816.787 257.847C814.981 256.244 813.404 254.056 812.082 251.257C809.513 264.31 808.063 270.646 804.451 282.502C803.307 286.319 802.747 288.787 802.925 290.059C803.078 291.331 803.561 292.298 804.299 292.731C805.214 293.265 805.342 294.766 804.35 297.26C803.434 299.575 802.315 300.746 801.12 300.796C788.708 301.178 782.502 301.153 770.065 300.644C768.869 300.593 768.717 299.473 769.505 297.26C770.37 294.868 771.514 293.418 772.837 292.909C773.931 292.476 775.05 291.535 776.042 290.314C777.059 289.067 778.127 286.65 779.145 282.96C793.159 231.844 796.948 176.453 801.857 123.911C802.162 119.459 802.086 116.66 801.704 115.489L801.679 115.413ZM822.916 236.882C826.121 236.576 829.402 231.996 832.581 222.862C835.761 213.728 838.864 197.953 841.814 177.038C844.688 156.734 845.883 141.213 845.019 131.875C844.154 122.537 841.483 118.212 837.439 118.848C835.812 119.102 834.235 120.578 832.759 123.301C831.259 125.998 829.834 129.687 828.436 134.369C825.206 165.512 820.805 196.579 816.176 227.544C817.143 234.108 819.356 237.212 822.916 236.882Z" fill="white"/>
<path d="M949.985 157.395C948.866 159.812 947.365 161.262 945.483 161.619C928.544 164.824 919.871 166.605 902.856 169.99C900.999 181.007 899.702 190.09 898.964 197.163C898.227 204.237 897.896 209.809 898.023 213.88C898.176 217.951 898.735 220.648 899.778 222.022C900.821 223.396 902.245 223.879 904.076 223.472C907.459 222.734 910.842 219.223 914.123 212.964C917.404 206.705 918.726 193.576 922.72 186.146C923.254 185.154 925.085 184.06 926.458 183.22C927.832 182.381 929.18 181.719 930.502 181.236C931.799 180.752 933.071 180.371 934.292 180.116C935.513 179.862 936.505 179.76 937.319 179.811C939.76 180.167 941.566 181.821 942.711 184.772C943.855 187.724 943.703 191.668 942.227 196.604C940.142 203.575 937.369 209.962 934.038 215.814C930.706 221.64 927.018 226.78 922.999 231.233C918.981 235.66 914.784 239.324 910.435 242.199C906.086 245.074 901.813 247.008 897.693 247.949C892.25 249.221 887.722 248.763 884.034 246.575C880.346 244.387 877.625 240.342 875.768 234.362C873.912 228.383 872.996 220.317 872.92 210.14C872.869 199.962 873.886 187.469 876.175 172.839C880.703 144.062 886.858 121.239 894.895 104.803C902.932 88.3658 912.444 78.8499 925.034 76.7635C928.9 76.1274 933.046 76.967 937.319 79.3587C941.592 81.7505 945.458 85.9487 948.611 91.928C951.765 97.9073 953.978 105.668 954.97 115.056C955.936 124.445 955.097 135.92 952.528 149.176C951.943 152.281 951.078 155.003 949.959 157.42L949.985 157.395ZM930.604 112.207C929.816 105.388 927.501 102.233 924.017 102.843C920.812 103.403 918.014 106.914 915.369 113.377C912.724 119.84 910.181 130.679 907.256 145.589C915.852 143.91 920.176 143.07 928.824 141.492C930.884 128.872 931.393 119.051 930.604 112.207Z" fill="white"/>
<path d="M972.061 88.2904C971.705 87.0945 970.993 86.0768 969.976 85.5679C968.78 84.9318 968.094 83.2271 968.145 80.301C968.221 77.4004 968.958 75.8484 970.205 75.543C971.782 75.1359 973.613 74.6271 975.571 74.2709C977.53 73.9401 979.412 73.7365 981.192 73.6602C982.998 73.5839 984.677 73.5584 986.203 73.533C987.754 73.5075 988.975 73.533 989.916 73.6093C991.137 73.6856 992.332 73.8383 993.528 74.0673C994.723 74.2709 995.817 74.7034 996.758 75.314C997.724 75.9247 998.487 76.8407 999.072 78.062C999.657 79.2578 999.912 80.9117 999.835 82.9726C999.759 84.83 999.708 85.7714 999.606 87.6288C1001.67 83.6342 1003.83 80.53 1006.17 78.3927C1008.51 76.23 1011.08 75.5176 1013.93 76.1791C1017.36 76.9679 1020.11 78.3419 1022.27 80.1993C1024.43 82.0312 1026.41 85.2117 1027.81 89.4862C1028.93 92.8703 1029.19 97.043 1028.58 101.903C1027.97 106.763 1026.72 110.605 1025.07 113.556C1023.84 115.439 1022.42 117.067 1020.77 118.416C1019.11 119.79 1017.49 120.909 1015.86 121.8C1014.23 122.69 1012.76 123.377 1011.38 123.835C1010.03 124.293 1009.09 124.548 1008.61 124.548C1010.29 116.355 1010.77 110.376 1010.39 106.737C1010.01 103.099 1008.81 101.139 1006.91 100.987C1006.14 100.936 1005.15 101.623 1003.93 103.073C1002.71 104.549 1001.41 107.017 999.962 110.503C998.513 113.989 996.987 118.518 995.308 124.013C993.629 129.509 991.874 136.201 990.043 143.91C984.27 168.108 981.446 180.779 973.638 204.467C972.672 207.622 972.214 209.708 972.341 210.751C972.468 211.82 972.85 212.354 973.486 212.431C974.376 212.558 974.325 213.983 973.282 216.629C972.316 219.097 971.247 220.547 970.154 221.031C958.734 226.018 952.528 228.206 939.913 232.277C938.692 232.658 938.539 231.513 939.404 228.816C940.345 225.89 941.49 223.906 942.914 222.913C943.906 222.226 944.923 221.107 945.89 219.58C946.856 218.054 947.95 215.56 949.069 212.125C958.632 173.832 966.619 135.921 972.011 96.8395C972.417 92.3868 972.367 89.5626 972.011 88.3667L972.061 88.2904Z" fill="white"/>
</g>
<g clip-path="url(#clip1_250_1138)">
<path d="M88.8401 209.93C92.9801 209.01 96.5601 208.81 99.4801 209.16C102.41 209.51 104.63 210.46 106.18 212.01C107.74 213.55 108.59 215.71 108.89 218.6C109.19 221.49 108.81 225.22 108.2 230.16C107.58 235.1 107.19 238.93 106.29 242.36C105.39 245.79 104.13 248.67 102.29 250.96C100.45 253.25 98.1301 255.08 95.2501 256.5C92.3601 257.92 88.9901 258.95 85.1401 259.64C81.0401 260.38 78.9801 260.81 74.9701 261.54C78.0701 271.27 80.4501 276.18 86.5001 283.45C87.3301 284.29 88.2101 284.81 89.1101 285.03C90.0101 285.25 90.9601 285.4 91.8901 285.42C93.1001 285.45 94.0601 285.76 94.7201 286.42C95.6901 287.38 95.6601 287.9 94.5901 288.05C85.9901 289.25 81.2401 289.57 73.5401 285.96C72.8301 285.63 72.1201 285.23 71.3901 284.75C70.6201 284.23 70.5101 284.06 71.0601 284.24C71.4601 284.37 71.6501 284.35 71.6201 284.17C71.5901 284 71.2201 283.56 70.5301 282.82C55.8901 264.16 50.9501 246.06 62.0801 224.17C62.6801 223.28 63.0001 222.8 63.0001 222.66C63.0001 222.53 62.8401 222.54 62.5601 222.71C62.1001 222.98 62.2001 222.82 62.8901 222.17C63.5301 221.57 64.1501 221.04 64.7401 220.57C72.5301 214.32 77.8301 212.36 88.8401 209.93ZM86.7101 244.86C88.2801 241.09 88.9201 236.92 89.5801 231.53C90.2501 226.06 90.4301 222.28 89.5501 219.73C88.6701 217.18 86.5601 216.37 83.0101 217.18C80.3701 217.78 79.0701 218.12 76.5501 218.88C71.8101 232 71.1501 238.89 72.7101 252.8C74.9801 252.34 76.1301 252.1 78.4501 251.64C82.5001 250.84 85.1401 248.62 86.7101 244.85V244.86Z" fill="white"/>
<path d="M164.81 270.111C164.95 272.721 164.58 274.741 163.62 276.341C162.66 277.941 161.11 279.081 158.93 279.971C156.75 280.861 153.95 281.431 150.44 281.711C147.04 281.981 143.62 281.921 140.16 281.361C136.7 280.801 133.33 279.811 130.1 278.191C126.87 276.571 123.88 274.341 121.28 271.381C118.69 268.421 116.62 264.801 115.32 260.571C114.06 256.491 113.79 252.641 114.35 249.031C114.91 245.421 116.26 242.261 118.28 239.681C120.3 237.101 122.92 235.181 125.9 233.951C128.88 232.721 132.13 232.301 135.49 232.641C138.96 232.991 141.47 233.971 144.68 235.781C147.89 237.591 150.54 239.691 152.86 242.171C155.17 244.651 157.11 247.491 158.79 250.651C160.46 253.811 161.76 257.151 162.85 260.731C163.97 264.371 164.66 267.501 164.81 270.111ZM141.05 246.051C139.72 242.931 138.05 241.221 135.67 241.041C133.46 240.881 131.86 242.381 131.22 245.491C130.58 248.601 130.75 253.601 132.71 260.111C134.73 266.841 137.4 271.081 139.71 273.401C142.02 275.731 144.37 276.641 146.61 276.521C149.02 276.391 149.98 275.311 149.64 272.991C149.3 270.671 147.56 266.581 145.51 260.181C143.54 254.011 142.38 249.151 141.05 246.041V246.051Z" fill="white"/>
<path d="M166.45 241.159C166.16 240.769 165.67 240.439 165.01 240.219C164.19 239.959 163.71 239.399 163.71 238.509C163.71 237.619 164.17 237.189 165 237.149C166.01 237.099 167.17 236.999 168.42 236.949C169.66 236.899 170.86 236.859 172.02 236.859C173.18 236.859 174.26 236.839 175.27 236.819C176.28 236.799 177.1 236.789 177.72 236.789C178.52 236.789 179.33 236.819 180.14 236.849C180.95 236.889 181.68 236.989 182.34 237.159C183 237.329 183.53 237.609 183.94 237.989C184.35 238.369 184.56 238.909 184.57 239.599C184.57 240.229 184.59 240.539 184.61 241.169C185.83 239.779 187.32 238.649 189.06 237.759C190.8 236.869 192.88 236.379 195.04 236.399C197.64 236.419 199.79 236.769 201.5 237.359C203.21 237.949 204.81 239.119 206.17 240.839C207.23 242.179 207.79 243.959 207.93 245.989C208.07 248.019 207.78 249.589 207.02 250.719C206.41 251.429 205.6 251.989 204.59 252.419C203.58 252.849 202.54 253.179 201.47 253.409C200.4 253.639 199.4 253.789 198.47 253.869C197.54 253.949 196.88 253.989 196.51 253.959C195.99 251.069 195.38 248.879 194.55 247.559C193.72 246.249 192.57 245.579 191.14 245.549C190.55 245.539 189.91 245.789 189.21 246.299C188.51 246.809 187.91 247.649 187.41 248.809C186.91 249.969 186.59 251.449 186.47 253.199C186.35 254.939 186.55 257.089 187.14 259.579C189 267.419 190.43 271.369 193.44 277.199C193.9 277.989 194.42 278.539 194.99 278.889C195.56 279.239 196.16 279.499 196.77 279.679C197.64 279.929 198.26 280.389 198.61 280.989C198.94 281.539 198.71 281.729 197.92 281.589C189.76 280.229 185.63 279.959 177.36 279.809C176.56 279.789 175.96 279.549 175.55 279.039C175.11 278.479 175.26 278.119 175.97 278.009C176.48 277.929 176.83 277.769 177.01 277.489C177.19 277.219 177.1 276.729 176.76 275.979C170.62 265.969 168.82 255.129 167.05 243.769C166.94 242.409 166.77 241.529 166.48 241.139L166.45 241.159Z" fill="white"/>
<path d="M243.09 255.01C242.43 254.4 241.62 253.97 240.66 253.72C238.36 253.12 237.22 252.82 234.93 252.23C234.92 261.55 235.73 271.28 237.32 280.47C237.64 282.49 237.95 284.05 238.21 285.21C238.47 286.37 238.74 287.26 239.02 287.91C239.3 288.56 239.58 289.02 239.86 289.32C240.15 289.62 240.48 289.83 240.86 289.96C241.29 290.11 241.63 290.13 241.86 290.01C242.09 289.89 242.24 289.57 242.3 289.03C242.36 288.49 242.34 287.69 242.24 286.6C242.14 285.51 241.94 284.01 241.65 282.05C243.06 282.17 244.59 282.48 246.23 283C247.87 283.52 249.38 284.27 250.75 285.24C253.83 287.37 255.07 290.18 254.51 293.2C254.3 294.12 253.95 294.97 253.47 295.75C252.99 296.53 252.26 297.08 251.29 297.42C250.32 297.75 249.05 297.83 247.52 297.67C245.98 297.51 244.04 296.97 241.68 296.09C239.38 295.22 237.23 294.28 235.21 293.28C233.19 292.27 231.23 291.02 229.42 289.51C227.61 288 225.94 286.14 224.43 283.75C222.92 281.36 221.61 278.23 220.68 274.06C218.65 264.41 217.97 259 217.64 248.17C215.53 247.74 214.47 247.54 212.35 247.17C211.56 247.03 210.78 246.94 210.02 246.89C209.26 246.84 208.61 246.97 208.07 247.26C207.85 246.41 207.68 245.57 207.56 244.74C207.44 243.9 207.34 243.14 207.28 242.46C207.12 240.74 207.33 239.4 207.82 238.49C208.31 237.58 209.18 237.19 210.41 237.36C211.46 237.5 212.4 237.81 213.25 238.28C214.1 238.75 214.79 239.19 215.33 239.59C216.25 239.75 216.7 239.83 217.62 240C217.69 237.39 217.79 236.02 217.97 233.43C218.03 232.52 218.07 231.74 218.09 231.08C218.11 230.41 218.11 229.79 218.09 229.21C218.07 228.63 218.02 228.01 217.95 227.37C217.88 226.73 217.77 225.94 217.65 225.05C219.28 224.34 221.16 223.74 223.27 223.26C225.39 222.78 227.43 222.75 229.44 223.15C230.86 223.43 232.07 223.86 233.07 224.44C234.07 225.01 234.92 225.66 235.59 226.39C236.27 227.11 236.79 227.85 237.16 228.6C237.53 229.35 237.77 230.03 237.87 230.63C237.13 231.25 236.54 232.37 236.08 234.05C235.63 235.73 235.35 237.38 235.26 238.97C235.15 240.92 235.09 241.91 235.03 243.84C239.79 245 242.17 245.62 246.96 246.82C248.17 247.12 249 247.75 249.46 248.72C249.92 249.68 250.13 250.73 250.1 251.86C250.06 253.71 249.52 255.25 248.49 256.46C247.46 257.67 246.09 258.04 244.36 257.58C244.17 256.5 243.75 255.65 243.09 255.04V255.01Z" fill="white"/>
<path d="M286.08 267.66C285.43 267.09 284.62 266.73 283.65 266.57C281.24 266.18 280.04 265.97 277.63 265.53C277.17 277.67 277.67 289.79 277.92 301.93C278.04 303.02 278.39 303.83 279 304.4C279.6 304.96 280.29 305.49 281.05 305.88C282.05 306.4 282.59 307.05 282.56 307.84C282.5 309 281.95 309.38 280.92 309.05C272.65 306.41 268.54 304.99 260.37 302.08C259.62 301.81 259.22 301.34 259.16 300.61C259.1 299.83 259.45 299.49 260.17 299.55C260.73 299.6 261.22 299.46 261.57 299.16C261.92 298.87 262.05 298.12 261.95 296.85C260.92 285.18 260.07 273.51 260.27 261.79C258.34 261.32 257.37 261.07 255.45 260.58C254.66 260.38 253.89 260.22 253.14 260.1C252.39 259.98 251.74 260.05 251.2 260.31C251.02 259.39 250.88 258.47 250.8 257.57C250.71 256.66 250.64 255.83 250.59 255.1C250.48 253.24 250.7 251.81 251.18 250.88C251.66 249.95 252.52 249.63 253.74 249.93C254.78 250.18 255.71 250.59 256.56 251.16C257.4 251.73 258.1 252.24 258.64 252.7C259.37 252.87 259.74 252.96 260.48 253.13C260.56 250.98 260.6 249.91 260.7 247.78C261.01 242.72 261.66 238.58 262.47 235.63C263.28 232.68 264.26 230.55 265.54 229.09C266.82 227.63 268.41 226.82 270.41 226.46C272.41 226.1 274.8 226.09 277.63 226.35C280.34 226.61 282.78 227.03 284.96 227.71C287.14 228.39 289.05 229.21 290.66 230.26C292.28 231.3 293.62 232.47 294.66 233.78C295.7 235.09 296.46 236.36 296.9 237.6C297.59 239.52 297.57 241.28 296.99 242.68C296.4 244.08 295.28 245.12 293.68 245.75C292.44 246.24 290.92 246.47 289.14 246.42C287.35 246.37 285.66 246.17 284.07 245.81C284.14 243.34 284.11 241.39 284.05 239.91C283.99 238.43 283.81 237.29 283.57 236.45C283.33 235.61 283 235.04 282.61 234.71C282.22 234.38 281.72 234.19 281.11 234.13C279.9 234 279.23 234.68 278.99 236.23C278.75 237.78 278.7 240.69 278.55 245.34C278.41 249.75 278.24 252.09 278.03 256.61C283.03 257.43 285.54 257.78 290.56 258.37C291.79 258.51 292.6 259.06 292.98 260.02C293.36 260.98 293.52 262.07 293.45 263.28C293.34 265.27 292.72 267.01 291.6 268.45C290.48 269.89 289.05 270.46 287.29 270.19C287.16 269.07 286.77 268.22 286.12 267.65L286.08 267.66Z" fill="white"/>
<path d="M343.08 305.5C341.41 309.68 339.29 312.99 336.79 315.48C334.3 317.97 331.48 319.59 328.41 320.46C325.35 321.33 322.14 321.36 318.77 320.65C315.51 319.96 312.73 318.69 310.31 316.86C307.89 315.04 305.88 312.77 304.2 309.96C302.52 307.15 301.22 303.86 300.3 299.97C299.39 296.09 298.93 291.73 299.07 286.91C299.21 282.25 299.96 278.03 301.31 274.18C302.67 270.34 304.52 266.98 306.84 264.17C309.15 261.36 311.86 259.17 314.96 257.61C318.05 256.05 321.45 255.23 325.17 255.19C329.01 255.14 332.42 255.88 335.38 257.51C338.34 259.14 340.77 261.49 342.61 264.61C344.46 267.72 345.69 271.56 346.34 276.02C346.99 280.48 347.01 285.45 346.44 290.89C345.86 296.43 344.74 301.34 343.08 305.52V305.5ZM329.55 271.79C328.89 267.81 327.25 265.8 324.66 265.76C322.26 265.72 320.37 267.65 318.99 271.46C317.61 275.26 316.6 281.26 316.11 289.45C315.61 297.9 315.72 303.61 316.38 307.03C317.04 310.45 318.38 312.26 320.58 312.63C322.94 313.03 324.87 311.74 326.25 308.48C327.63 305.23 328.64 299.31 329.35 290.58C330.03 282.12 330.22 275.77 329.56 271.79H329.55Z" fill="white"/>
<path d="M345.79 323.099C345.02 323.029 344.8 322.499 345.11 321.469C345.44 320.359 346.04 319.719 346.85 319.509C347.51 319.339 348.14 318.929 348.68 318.369C349.22 317.809 349.71 316.689 350.1 314.949C354.67 289.479 358.15 263.039 357.24 237.149C356.97 234.769 356.55 232.549 355.97 230.479C355.39 228.409 354.44 226.229 353.16 224.159C354.44 223.229 355.94 222.229 357.63 221.149C359.32 220.079 361.2 219.319 363.32 218.869C364.73 218.569 366.05 218.529 367.27 218.759C368.49 218.989 369.61 219.389 370.62 219.959C371.62 220.539 372.49 221.209 373.21 221.979C373.93 222.749 374.47 223.499 374.84 224.229C374.69 226.069 374.74 228.329 374.86 231.069C374.99 233.809 375.05 236.209 375.2 238.239C375.37 264.189 371.71 290.539 366.14 315.869C365.81 317.309 365.74 318.299 365.95 318.859C366.17 319.419 366.53 319.769 367.02 319.929C367.71 320.149 367.86 320.899 367.43 322.089C367.03 323.199 366.44 323.749 365.67 323.759C357.72 323.939 353.74 323.789 345.77 323.109L345.79 323.099Z" fill="white"/>
<path d="M391.2 316.119C391.35 316.699 391.7 317.099 392.17 317.229C392.79 317.389 392.92 318.059 392.39 319.309C391.89 320.469 391.25 321.109 390.48 321.249C382.59 322.709 378.62 323.149 370.68 323.569C369.91 323.609 369.75 323.089 370.16 321.969C370.6 320.769 371.24 319.989 372.1 319.689C372.71 319.479 373.3 319.069 373.85 318.469C374.4 317.859 374.96 316.829 375.5 315.349C379.58 300.229 381.48 284.589 383.59 269.099C383.94 266.449 384.21 263.899 384.39 261.449C384.57 258.999 384.56 256.419 384.33 253.699C385.98 252.579 387.87 251.389 390 250.099C392.13 248.809 394.28 247.949 396.48 247.529C397.94 247.249 399.19 247.289 400.19 247.679C401.2 248.069 402.03 248.659 402.67 249.439C403.31 250.219 403.79 251.099 404.09 252.049C404.4 253.009 404.56 253.909 404.59 254.759C403.65 256.869 402.81 259.459 402.04 262.509C401.27 265.559 400.7 268.149 400.37 270.279C398.11 284.449 396.08 298.669 391.89 312.429C391.28 314.339 391.03 315.549 391.18 316.129L391.2 316.119ZM383.95 217.709C384.4 215.019 385.62 213.519 387.88 212.969C388.98 212.699 390.19 212.739 391.52 213.089C392.84 213.439 394.17 214.069 395.45 215.019C396.74 215.969 397.92 217.179 398.95 218.679C399.98 220.179 400.75 221.899 401.23 223.799C401.71 225.699 401.84 227.549 401.68 229.339C401.51 231.129 401.08 232.769 400.43 234.239C399.78 235.709 398.93 236.959 397.93 237.969C396.93 238.979 395.84 239.599 394.69 239.829C393.47 240.069 392.35 239.889 391.32 239.289C390.29 238.689 389.37 237.809 388.55 236.649C387.73 235.499 387.01 234.119 386.36 232.529C385.71 230.939 385.2 229.219 384.77 227.359C383.92 223.649 383.53 220.399 383.98 217.709H383.95Z" fill="white"/>
<path d="M442.99 287.699C440.48 291.829 437.64 295.639 434.57 299.209C431.5 302.779 428.27 306.019 424.98 308.839C421.69 311.659 418.46 313.909 415.29 315.359C412.22 316.769 409.82 317.109 408.01 316.399C406.2 315.689 404.97 314.039 404.2 311.409C403.43 308.789 403.17 305.239 403.3 300.739C403.43 296.239 404.01 290.919 405.1 284.839C406.16 278.969 407.61 273.459 409.54 268.329C411.46 263.209 413.71 258.589 416.28 254.619C418.85 250.659 421.66 247.459 424.79 245.139C427.92 242.819 431.32 241.539 434.96 241.399C438.72 241.259 442.01 242.299 444.67 244.219C447.33 246.139 449.31 248.749 450.53 251.819C451.75 254.889 452.18 258.379 451.93 262.159C451.68 265.949 450.76 270.009 449.18 274.589C447.56 279.249 445.5 283.549 442.99 287.679V287.699ZM437.96 259.049C437.84 254.949 436.43 252.859 433.91 253.089C431.57 253.299 429.55 255.739 427.71 260.299C425.88 264.859 424.07 271.939 422.02 281.529C419.9 291.429 418.42 298.059 418.06 301.649C417.69 305.249 418.4 306.529 420.48 305.729C422.72 304.869 425.1 302.429 427.43 298.389C429.76 294.349 432.37 287.829 434.73 278.609C437.03 269.629 438.08 263.149 437.96 259.049Z" fill="white"/>
</g>
<defs>
<clipPath id="clip0_250_1138">
<rect width="1030" height="301" fill="white"/>
</clipPath>
<clipPath id="clip1_250_1138">
<rect width="396" height="114.83" fill="white" transform="translate(56 209)"/>
</clipPath>
</defs>
</svg>
