<svg width="100" height="38" viewBox="0 0 100 38" fill="none" xmlns="http://www.w3.org/2000/svg">
<g clip-path="url(#clip0_250_1130)">
<path d="M11.1183 2.63766C10.9648 2.50538 10.7515 2.4243 10.5127 2.42856C10.1715 2.42856 10.0777 2.27494 10.2824 1.90796C10.5809 1.37028 10.9349 1.05451 11.3273 0.935022C14.4747 -0.0293798 16.172 -0.0933889 19.4857 0.0687672C19.7885 0.081569 19.8568 0.273596 19.7032 0.653383C19.5369 1.06304 19.264 1.30627 18.9399 1.39589C18.6925 1.46416 18.4409 1.61352 18.2191 1.79701C17.9973 1.9805 17.7756 2.34322 17.5751 2.89796C15.6944 10.882 15.2167 18.3327 15.8522 26.5258C16.1081 28.7107 16.2403 30.4645 16.1507 31.83C16.0654 33.1913 15.8479 34.2282 15.4385 34.9579C15.0291 35.6876 14.4704 36.1357 13.7155 36.3021C12.9649 36.4685 12.1162 36.4131 11.1396 36.1229C9.17356 35.5383 7.29707 34.224 5.50161 32.6024C3.70614 30.9808 2.23907 29.2953 1.36053 27.3665C1.03214 26.6453 1.02788 26.1631 1.32641 25.8687C1.62494 25.5742 2.07701 25.4547 2.63569 25.5145C3.06217 25.5614 3.60805 25.698 4.26483 25.9583C4.9216 26.2186 5.54852 26.5557 6.13706 26.9781C6.3247 28.173 6.58912 29.1203 6.87059 29.8628C7.15207 30.6053 7.4506 31.1857 7.72781 31.6167C8.00928 32.0477 8.29502 32.3762 8.58076 32.5981C8.8665 32.82 9.1565 32.9694 9.45504 33.0334C10.0478 33.1657 10.2995 32.8798 10.2525 32.1586C10.2056 31.4374 9.93695 30.2895 9.57018 28.6594C7.84296 20.6754 8.29502 11.2959 11.1098 3.57646C11.259 3.07292 11.2633 2.76141 11.1098 2.63339L11.1183 2.63766Z" fill="white"/>
<path d="M30.8001 3.09445C30.702 3.44009 30.4845 3.61505 30.1902 3.62785C29.9727 3.63639 29.751 3.72173 29.5633 3.84549C29.3757 3.96924 29.2093 4.26368 29.0686 4.75015C27.5205 14.0741 27.4267 22.9543 29.2264 32.2356C29.3629 32.6581 29.5377 32.9312 29.7424 33.0635C29.9471 33.1957 30.1689 33.2597 30.3992 33.264C30.7276 33.264 30.9451 33.4475 31.0602 33.7804C31.1669 34.0919 31.073 34.2796 30.7702 34.3564C27.6442 35.1416 26.0875 35.5641 22.906 36.0676C22.599 36.1145 22.3729 35.9609 22.2279 35.5982C22.0701 35.2099 22.1469 34.9496 22.4113 34.8173C22.6203 34.7106 22.7738 34.5271 22.8634 34.301C22.9529 34.0748 22.9018 33.6779 22.7269 33.0848C20.0614 23.4109 20.8376 13.0329 22.8634 3.34195C22.97 2.79574 22.9871 2.42875 22.906 2.22392C22.8207 2.0191 22.6843 1.8356 22.5009 1.73319C22.2493 1.59237 22.164 1.31926 22.3132 0.918141C22.454 0.542622 22.68 0.389 22.9785 0.43594C26.0918 0.93521 27.5631 1.57957 30.5058 2.49703C30.7916 2.58664 30.8854 2.7744 30.7958 3.09445H30.8001Z" fill="white"/>
<path d="M47.3815 19.715C47.1128 19.5614 46.7887 19.4803 46.4049 19.476C43.8844 19.4461 42.622 19.4504 40.0973 19.5187C40.2082 23.8756 40.3063 26.1543 40.8521 29.7473C42.912 29.551 43.9313 29.5126 45.9784 29.5169C46.7162 29.1328 47.4966 28.7957 48.3069 28.5055C49.1172 28.2154 49.8295 28.1258 50.3967 28.1983C50.9383 28.2666 51.3477 28.4415 51.5951 28.736C51.8382 29.0304 51.9917 29.3889 52.0514 29.7985C52.1111 30.2082 52.1068 30.6392 52.0343 31.083C51.9661 31.5268 51.8808 31.9407 51.787 32.3205C51.6121 32.2437 51.3264 32.1754 50.934 32.1157C50.5417 32.0559 50.2005 32.0218 49.919 32.0004C44.6265 31.578 39.3893 32.1669 34.2588 33.4769C33.956 33.5495 33.7556 33.4428 33.6618 33.1483C33.5594 32.8283 33.666 32.5979 33.9432 32.457C34.1607 32.3461 34.3228 32.1754 34.4252 31.9834C34.5275 31.7913 34.5147 31.4542 34.4038 30.9635C32.6553 22.9666 32.715 13.8219 34.1309 5.79943C34.1735 5.33856 34.1522 5.03559 34.0541 4.86063C33.956 4.68567 33.8068 4.52778 33.6149 4.42537C33.3504 4.28881 33.231 4.04558 33.3121 3.717C33.3846 3.41403 33.5679 3.30734 33.8622 3.37135C39.1121 4.46804 44.4985 4.71554 49.8465 4.61313C50.499 4.60459 50.9426 4.78382 51.1729 5.24041C51.3989 5.69701 51.4074 6.25602 51.207 6.89611C51.0065 7.5362 50.5971 8.15922 49.9915 8.73531C49.3902 9.31139 48.6268 9.61436 47.6971 9.6357C47.6374 9.10656 47.4966 8.60302 47.2791 8.12509C47.0616 7.64715 46.8057 7.31004 46.5029 7.10521C44.1019 7.07961 42.8907 7.04974 40.4939 6.91318C40.0248 10.5276 40.0461 12.5801 40.0632 16.5444C43.5134 16.5188 45.2491 16.5273 48.6822 16.5956C49.1599 16.6041 49.5139 16.7578 49.7484 17.0522C49.983 17.3466 50.1024 17.688 50.1109 18.0721C50.128 18.7079 49.9361 19.2755 49.5437 19.7705C49.1514 20.2655 48.6055 20.5044 47.9103 20.4874C47.8293 20.1289 47.6544 19.8729 47.3858 19.7192L47.3815 19.715Z" fill="white"/>
<path d="M71.9805 33.7839C70.2149 35.4311 67.9248 35.7085 65.1058 35.0556C62.0906 34.3557 59.9539 33.1652 58.4826 31.2577C57.0155 29.3502 56.2905 26.4954 56.2308 22.3093C56.1455 17.0605 55.7745 11.8246 55.6423 6.57585C55.5825 6.14485 55.4717 5.87175 55.3181 5.73093C55.1689 5.59438 54.9727 5.48343 54.7594 5.43222C54.4694 5.36394 54.2861 5.18045 54.2391 4.88601C54.1965 4.61717 54.3202 4.48915 54.6144 4.48062C57.668 4.36967 59.3099 4.28006 62.4701 4.0795C62.7729 4.05816 62.9819 4.18191 63.0672 4.47635C63.1653 4.79213 63.0373 5.00549 62.7601 5.10364C62.5597 5.17618 62.3891 5.30847 62.2569 5.47062C62.1247 5.62851 62.082 5.92722 62.1076 6.38382C62.6109 12.5415 63.0245 18.6266 63.0587 24.8056C63.0288 26.2266 63.0629 27.3958 63.1994 28.3389C63.3359 29.282 63.5448 30.0245 63.8434 30.5963C64.1419 31.1681 64.5215 31.6076 64.9863 31.9149C65.4512 32.2221 65.9843 32.4397 66.5899 32.555C67.8224 32.7939 68.9099 32.4611 69.8354 31.4412C70.7608 30.4213 71.4389 28.5011 71.5754 25.5993C71.6095 18.9765 71.0594 12.6098 70.1979 6.04671C70.0699 5.55597 69.9036 5.24446 69.7287 5.08657C69.5539 4.92868 69.3364 4.8092 69.1018 4.75372C68.7862 4.68118 68.5517 4.47635 68.428 4.13924C68.3086 3.82773 68.3939 3.67837 68.6967 3.65704C70.6414 3.52475 71.6138 3.45648 73.5585 3.34126C73.8613 3.32419 74.1001 3.46074 74.2494 3.78932C74.4114 4.14351 74.3134 4.37821 74.0532 4.48489C73.8656 4.5617 73.7163 4.71105 73.6182 4.88601C73.5201 5.06097 73.5244 5.38955 73.6054 5.90162C74.582 12.3879 75.1919 18.6394 75.1962 25.2025C75.0256 29.2564 73.7461 32.1325 71.9805 33.7797V33.7839Z" fill="white"/>
<path d="M92.622 5.12156C92.3874 4.90393 92.1188 4.72897 91.8415 4.61376C91.5046 4.4772 91.2146 4.22544 90.963 3.88832C90.7284 3.57254 90.7412 3.46159 91.0398 3.5256C92.8523 3.90539 93.8332 4.11875 95.36 5.15997C95.6073 5.33066 95.8717 5.53122 96.1276 5.78299C96.4048 6.05182 96.4262 6.14144 96.23 6.06889C96.1063 6.02195 96.0167 6.04756 95.9826 6.1329C95.9485 6.21825 96.0381 6.46575 96.2172 6.90528C99.275 16.5792 99.9318 24.2176 94.9676 33.2428C94.7032 33.6013 94.4175 33.8915 94.1189 34.1219C93.3001 34.7535 92.8608 35.0266 91.9823 35.4874C91.7562 35.6069 91.6368 35.6154 91.624 35.513C91.6112 35.4106 91.6539 35.1802 91.7307 34.7833C92.1529 26.4323 87.1503 18.3586 83.2097 11.3816C84.31 19.4852 84.4251 26.6371 82.5913 34.6596C82.4122 35.2485 82.3525 35.6325 82.4292 35.8331C82.506 36.0336 82.6553 36.1915 82.86 36.2641C83.1244 36.3579 83.2054 36.5884 83.0476 36.9682C82.9026 37.3223 82.6723 37.493 82.3653 37.4888C80.4888 37.4674 79.5377 37.3778 77.6612 37.1303C77.3542 37.0876 77.2646 36.8999 77.384 36.5542C77.512 36.183 77.7508 35.9782 78.0792 35.927C78.3436 35.8843 78.5909 35.7605 78.7956 35.5813C79.0004 35.4021 79.1923 35.0308 79.3543 34.4505C81.3545 24.576 80.6423 15.6148 78.8681 5.73178C78.6976 5.20691 78.5014 4.86979 78.3095 4.70337C78.1176 4.53268 77.8873 4.40039 77.6399 4.33638C77.3158 4.25531 77.0556 4.02914 76.8808 3.66642C76.7187 3.33358 76.7784 3.17569 77.0812 3.16289C79.2221 3.06474 80.2926 3.02207 82.4378 2.98793C82.8941 2.97939 83.2992 3.005 83.6447 3.06474C83.9901 3.12448 84.31 3.21409 84.5957 3.34211C84.8857 3.47013 85.1629 3.64082 85.4231 3.85845C85.6832 4.07608 85.9519 4.34919 86.2121 4.67777C89.8072 9.91797 93.2532 15.2008 95.8717 21.0129C95.8291 16.0159 94.8397 11.0531 93.3086 6.30786C93.0996 5.72325 92.848 5.33919 92.6135 5.12156H92.622Z" fill="white"/>
</g>
<defs>
<clipPath id="clip0_250_1130">
<rect width="100" height="38" fill="white"/>
</clipPath>
</defs>
</svg>
