<svg width="685" height="432" viewBox="0 0 685 432" fill="none" xmlns="http://www.w3.org/2000/svg">
<g clip-path="url(#clip0_250_798)">
<path d="M159.915 359.479C159.915 358.552 159.772 357.981 159.558 357.696C159.345 357.411 158.988 357.197 158.489 357.054C157.776 356.912 157.491 356.555 157.491 355.913C157.491 355.343 157.776 354.987 158.489 354.915C159.273 354.844 160.129 354.773 161.127 354.701C162.125 354.63 163.052 354.559 163.979 354.559C164.835 354.559 165.69 354.487 166.475 354.487C167.259 354.487 167.901 354.416 168.4 354.416C168.97 354.416 169.612 354.487 170.254 354.487C170.824 354.487 171.395 354.559 171.894 354.701C172.393 354.844 172.821 354.987 173.106 355.272C173.391 355.557 173.605 355.913 173.605 356.341V400.691C173.605 401.689 173.676 402.26 173.89 402.545C174.104 402.83 174.46 402.973 175.031 403.115C175.673 403.258 176.029 403.686 176.029 404.256C176.029 404.898 175.673 405.254 175.031 405.254C174.175 405.397 173.32 405.468 172.321 405.539C171.323 405.611 170.396 405.682 169.541 405.682C168.614 405.682 167.758 405.753 166.974 405.753C166.189 405.753 165.548 405.753 165.12 405.753C164.478 405.753 163.837 405.753 163.266 405.753C162.624 405.753 162.054 405.682 161.555 405.539C161.056 405.397 160.628 405.254 160.343 404.969C160.058 404.684 159.915 404.327 159.915 403.828V403.4C158.774 404.256 157.633 404.898 156.421 405.468C155.138 406.039 153.854 406.252 152.5 406.252C146.938 406.252 142.874 404.755 140.307 401.689C137.74 398.623 136.457 394.416 136.457 388.997C136.457 386.359 136.742 383.935 137.384 381.653C137.954 379.372 138.952 377.447 140.307 375.807C141.662 374.167 143.373 372.883 145.512 371.956C147.58 371.029 150.075 370.53 153.07 370.53C155.566 370.53 157.847 371.101 159.915 372.17V359.479ZM155.708 375.878C153.712 375.878 152.214 377.019 151.359 379.229C150.432 381.511 150.004 384.791 150.075 389.14C150.075 391.422 150.147 393.276 150.361 394.773C150.574 396.342 150.931 397.554 151.359 398.481C151.787 399.407 152.357 400.049 152.999 400.406C153.64 400.834 154.353 400.976 155.209 400.976C156.207 400.976 157.063 400.691 157.918 399.978C158.703 399.265 159.345 398.338 159.915 397.055V378.659C158.917 376.805 157.491 375.878 155.708 375.878ZM219.846 386.716C219.846 387.429 219.632 387.999 219.347 388.498C218.991 388.997 218.349 389.211 217.422 389.211H196.031C196.031 391.493 196.174 393.418 196.459 394.915C196.745 396.413 197.101 397.625 197.671 398.481C198.171 399.407 198.812 400.049 199.525 400.406C200.238 400.762 201.094 400.905 202.092 400.905C203.803 400.905 205.229 400.334 206.228 399.051C207.226 397.839 207.796 395.985 207.939 393.561C208.367 393.418 208.937 393.276 209.579 393.133C210.221 392.99 210.862 392.919 211.504 392.848C212.146 392.848 212.787 392.776 213.429 392.776C214 392.776 214.57 392.848 214.998 392.848C216.281 393.062 217.422 393.489 218.42 394.202C219.347 394.915 219.704 395.842 219.561 396.841C219.276 398.338 218.563 399.693 217.565 400.834C216.566 401.974 215.283 402.973 213.714 403.757C212.146 404.613 210.363 405.183 208.367 405.611C206.37 406.039 204.231 406.252 202.092 406.252C199.169 406.252 196.531 405.967 194.106 405.254C191.682 404.541 189.614 403.472 187.903 402.046C186.192 400.62 184.837 398.837 183.839 396.627C182.841 394.416 182.413 391.778 182.413 388.712C182.413 382.723 184.124 378.231 187.618 375.165C191.112 372.099 195.96 370.53 202.163 370.53C204.017 370.53 206.014 370.887 208.153 371.457C210.221 372.099 212.146 373.097 213.857 374.381C215.568 375.735 216.994 377.447 218.135 379.443C219.276 381.439 219.846 383.864 219.846 386.716ZM206.941 384.149C206.941 381.582 206.513 379.514 205.8 378.088C205.015 376.662 203.803 375.878 202.092 375.878C200.523 375.878 199.24 376.52 198.242 377.732C197.244 379.015 196.531 381.154 196.245 384.149H206.941ZM239.312 390.352C237.6 389.782 236.032 389.211 234.606 388.498C233.108 387.785 231.825 387.072 230.755 386.217C229.615 385.361 228.759 384.434 228.117 383.436C227.476 382.438 227.19 381.226 227.19 379.871C227.19 378.587 227.476 377.304 228.117 376.163C228.688 375.022 229.686 374.024 231.041 373.168C232.395 372.313 234.178 371.671 236.317 371.172C238.456 370.673 241.094 370.388 244.16 370.388C246.37 370.388 248.438 370.673 250.435 371.101C252.36 371.529 254.071 372.17 255.497 372.883C256.923 373.596 258.135 374.452 258.991 375.45C259.847 376.448 260.274 377.518 260.417 378.659C260.56 379.514 260.203 380.227 259.419 380.94C258.634 381.653 257.351 382.081 255.64 382.224C255.212 382.295 254.641 382.295 254 382.295C253.358 382.295 252.716 382.224 252.075 382.152C251.362 382.081 250.72 382.01 250.078 381.867C249.365 381.725 248.866 381.582 248.438 381.439C248.581 379.586 248.296 378.16 247.511 377.161C246.727 376.163 245.586 375.664 244.089 375.664C242.805 375.664 241.878 375.949 241.165 376.52C240.452 377.09 240.167 377.874 240.167 378.873C240.167 379.443 240.239 380.013 240.452 380.441C240.595 380.869 240.952 381.297 241.522 381.725C242.092 382.152 242.877 382.652 243.875 383.079C244.873 383.579 246.157 384.078 247.725 384.648C250.078 385.504 252.146 386.359 253.857 387.215C255.568 388.071 256.923 388.926 258.064 389.853C259.133 390.78 259.918 391.778 260.488 392.848C260.987 393.917 261.273 395.129 261.273 396.413C261.273 399.336 259.775 401.76 256.923 403.614C254.071 405.468 249.722 406.395 243.875 406.395C241.593 406.395 239.383 406.181 237.315 405.753C235.247 405.326 233.394 404.755 231.825 403.971C230.256 403.186 228.973 402.26 227.975 401.19C226.976 400.192 226.406 398.98 226.263 397.696C226.121 396.769 226.477 395.985 227.476 395.343C228.402 394.773 229.543 394.345 230.827 394.202C233.964 393.775 236.673 393.989 238.955 394.773C238.812 395.771 238.884 396.698 239.098 397.482C239.312 398.267 239.668 398.908 240.167 399.479C240.595 400.049 241.165 400.406 241.807 400.691C242.378 400.976 243.091 401.119 243.804 401.119C245.301 401.119 246.442 400.762 247.226 400.049C247.939 399.336 248.367 398.409 248.367 397.411C248.367 396.841 248.224 396.199 248.01 395.629C247.725 395.058 247.297 394.488 246.656 393.917C245.943 393.347 245.016 392.776 243.875 392.206C242.734 391.636 241.165 391.065 239.312 390.352ZM294.039 378.16C293.896 377.589 293.54 377.161 293.041 376.876C292.47 376.591 291.829 376.448 291.116 376.448H286.552V394.274C286.552 395.7 286.552 396.769 286.624 397.625C286.624 398.481 286.766 399.122 286.909 399.55C287.051 399.978 287.194 400.334 287.408 400.477C287.622 400.62 287.907 400.691 288.264 400.691C288.62 400.691 288.905 400.62 289.19 400.477C289.404 400.334 289.618 399.978 289.761 399.55C289.904 399.122 289.975 398.481 290.046 397.625C290.117 396.841 290.189 395.771 290.189 394.416C291.401 394.202 292.684 394.06 294.11 394.06C295.465 394.06 296.677 394.274 297.818 394.63C300.242 395.486 301.098 397.126 300.314 399.55C300.028 400.334 299.601 401.119 299.101 401.903C298.531 402.687 297.818 403.4 296.891 403.971C295.893 404.613 294.681 405.112 293.255 405.539C291.829 405.967 290.046 406.11 287.907 406.11C285.768 406.11 283.843 406.039 282.06 405.753C280.278 405.468 278.709 404.898 277.354 404.042C276 403.186 274.93 401.903 274.146 400.192C273.29 398.481 272.862 396.199 272.862 393.276V376.448H268.727C268.085 376.448 267.443 376.52 266.873 376.52C266.303 376.591 265.804 376.734 265.376 376.947C265.233 376.448 265.091 375.949 265.019 375.379C264.948 374.88 264.877 374.381 264.877 373.953C264.734 372.883 264.877 372.028 265.233 371.386C265.59 370.816 266.231 370.459 267.23 370.459C268.014 370.459 268.727 370.602 269.44 370.816C270.082 371.029 270.652 371.243 271.08 371.386H272.862V367.322C272.862 366.751 272.791 366.252 272.791 365.824C272.791 365.397 272.72 365.04 272.72 364.612C272.648 364.256 272.577 363.828 272.506 363.4C272.363 362.972 272.292 362.473 272.149 361.832C273.362 361.19 274.788 360.548 276.499 359.906C278.139 359.336 279.779 358.979 281.419 358.979C282.559 358.979 283.486 359.122 284.342 359.407C285.126 359.692 285.768 359.978 286.338 360.405C286.909 360.833 287.337 361.261 287.622 361.689C287.907 362.117 288.121 362.545 288.264 362.901C287.693 363.471 287.265 364.256 286.98 365.397C286.695 366.537 286.552 367.536 286.552 368.463V371.386H295.964C296.891 371.386 297.533 371.671 297.961 372.17C298.317 372.669 298.531 373.24 298.531 373.881C298.531 375.022 298.103 376.021 297.319 376.876C296.463 377.732 295.394 378.16 294.039 378.16ZM320.163 400.477C320.163 401.475 320.306 402.117 320.662 402.402C320.948 402.759 321.375 402.973 321.946 403.115C322.588 403.258 322.944 403.686 322.944 404.327C322.944 404.969 322.588 405.254 321.946 405.254H304.691C303.978 405.254 303.693 404.969 303.693 404.327C303.693 403.686 303.978 403.258 304.691 403.115C305.119 403.044 305.546 402.83 305.832 402.545C306.117 402.26 306.331 401.689 306.473 400.905V379.3C306.473 378.16 306.402 377.019 306.331 375.878C306.259 374.808 306.046 373.668 305.76 372.384C306.972 372.028 308.398 371.671 310.038 371.243C311.607 370.816 313.318 370.602 315.03 370.602C316.17 370.602 317.097 370.744 317.953 371.029C318.737 371.315 319.379 371.6 319.949 372.028C320.52 372.455 320.948 372.883 321.233 373.311C321.518 373.739 321.732 374.167 321.875 374.523C321.304 375.379 320.876 376.52 320.591 377.803C320.306 379.087 320.163 380.227 320.163 381.154V400.477ZM307.044 360.477C307.044 358.694 307.614 357.197 308.898 355.913C310.11 354.63 311.678 353.988 313.532 353.988C314.388 353.988 315.243 354.202 316.099 354.487C316.883 354.844 317.596 355.343 318.167 355.913C318.737 356.484 319.236 357.197 319.593 357.981C319.878 358.766 320.092 359.621 320.092 360.477C320.092 361.404 319.878 362.259 319.593 363.044C319.236 363.828 318.737 364.541 318.167 365.111C317.596 365.682 316.883 366.181 316.099 366.537C315.243 366.894 314.388 367.037 313.532 367.037C312.534 367.037 311.678 366.894 310.894 366.537C310.11 366.181 309.468 365.682 308.898 365.111C308.327 364.541 307.828 363.828 307.543 363.044C307.186 362.259 307.044 361.404 307.044 360.477ZM331.401 375.878C331.401 374.951 331.258 374.381 331.045 374.095C330.831 373.81 330.474 373.596 329.975 373.454C329.262 373.311 328.977 372.955 328.977 372.313C328.977 371.742 329.262 371.386 329.975 371.315C330.759 371.243 331.615 371.172 332.613 371.101C333.611 371.029 334.538 370.958 335.465 370.958C336.321 370.958 337.177 370.887 337.961 370.887C338.745 370.887 339.387 370.816 339.886 370.816C340.456 370.816 341.098 370.887 341.74 370.887C342.31 370.887 342.881 370.958 343.38 371.101C343.879 371.243 344.307 371.386 344.592 371.671C344.877 371.956 345.091 372.313 345.091 372.741V373.81C346.374 372.741 347.8 371.885 349.298 371.315C350.724 370.744 352.292 370.459 353.932 370.459C358.496 370.459 361.847 371.6 364.057 373.739C366.268 375.878 367.408 378.873 367.551 382.723V400.477C367.551 401.475 367.694 402.117 368.05 402.402C368.335 402.759 368.763 402.973 369.334 403.115C369.975 403.258 370.332 403.686 370.332 404.327C370.332 404.969 369.975 405.254 369.334 405.254H352.079C351.366 405.254 351.08 404.969 351.08 404.327C351.08 403.686 351.366 403.258 352.079 403.115C352.578 402.973 353.006 402.759 353.362 402.402C353.647 402.117 353.79 401.618 353.861 400.905V400.477L353.932 383.222C353.932 380.869 353.647 379.158 353.219 378.16C352.792 377.161 351.865 376.591 350.581 376.591C349.868 376.591 349.227 376.876 348.656 377.304C348.014 377.803 347.444 378.445 346.945 379.3C346.374 380.156 345.947 381.083 345.661 382.152C345.305 383.293 345.091 384.434 345.091 385.575V400.477C345.091 401.475 345.234 402.117 345.59 402.402C345.875 402.759 346.303 402.973 346.874 403.115C347.515 403.258 347.872 403.686 347.872 404.327C347.872 404.969 347.515 405.254 346.874 405.254H329.619C328.906 405.254 328.62 404.969 328.62 404.327C328.62 403.686 328.906 403.258 329.619 403.115C330.118 402.973 330.545 402.759 330.902 402.402C331.187 402.117 331.401 401.475 331.401 400.477V375.878ZM375.825 397.839C375.397 394.274 376.467 391.35 379.176 389.069C381.885 386.858 386.377 385.076 392.652 383.792L398.427 382.509V380.584C398.427 379.229 398.142 378.088 397.643 377.161C397.073 376.306 396.146 375.807 394.791 375.807C393.222 375.807 392.01 376.306 391.012 377.304C390.014 378.302 389.657 379.728 389.871 381.582C389.443 381.725 388.873 381.867 388.231 382.01C387.518 382.152 386.877 382.224 386.235 382.295C385.522 382.366 384.88 382.438 384.238 382.438C383.597 382.438 383.098 382.438 382.67 382.366C380.887 382.224 379.604 381.796 378.82 381.083C378.035 380.37 377.75 379.657 377.893 378.801C377.964 377.66 378.463 376.591 379.39 375.593C380.317 374.595 381.529 373.739 383.098 373.026C384.666 372.313 386.449 371.671 388.445 371.243C390.442 370.816 392.581 370.53 394.862 370.53C398 370.53 400.638 370.816 402.848 371.315C405.059 371.814 406.841 372.527 408.196 373.525C409.551 374.523 410.549 375.807 411.19 377.233C411.761 378.659 412.117 380.37 412.117 382.224V400.691C412.117 401.689 412.189 402.26 412.403 402.545C412.617 402.83 412.973 402.973 413.543 403.115C414.185 403.258 414.542 403.686 414.542 404.256C414.542 404.898 414.185 405.254 413.543 405.254C412.688 405.397 411.832 405.468 410.834 405.539C409.836 405.611 408.909 405.682 408.053 405.682C407.126 405.682 406.271 405.753 405.486 405.753C404.702 405.753 404.06 405.753 403.633 405.753C402.991 405.753 402.349 405.753 401.779 405.753C401.137 405.753 400.567 405.682 400.067 405.539C399.568 405.397 399.14 405.254 398.855 404.969C398.57 404.684 398.427 404.327 398.427 403.828V402.616C396.859 403.757 395.29 404.541 393.65 405.112C391.939 405.682 390.299 406.039 388.73 406.11C384.88 406.252 381.814 405.682 379.675 404.399C377.465 403.115 376.181 400.976 375.825 397.839ZM389.158 395.629C389.158 396.912 389.443 397.91 390.085 398.766C390.727 399.621 391.583 399.978 392.723 399.978C393.864 399.978 395.005 399.407 396.146 398.267C397.287 397.126 398.071 395.343 398.427 392.919V387.643L394.292 388.997C392.652 389.568 391.369 390.352 390.513 391.35C389.586 392.42 389.158 393.846 389.158 395.629ZM448.062 378.16C447.919 377.589 447.563 377.161 447.064 376.876C446.493 376.591 445.851 376.448 445.138 376.448H440.575V394.274C440.575 395.7 440.575 396.769 440.646 397.625C440.646 398.481 440.789 399.122 440.932 399.55C441.074 399.978 441.217 400.334 441.431 400.477C441.645 400.62 441.93 400.691 442.286 400.691C442.643 400.691 442.928 400.62 443.213 400.477C443.427 400.334 443.641 399.978 443.784 399.55C443.926 399.122 443.998 398.481 444.069 397.625C444.14 396.841 444.212 395.771 444.212 394.416C445.424 394.202 446.707 394.06 448.133 394.06C449.488 394.06 450.7 394.274 451.841 394.63C454.265 395.486 455.121 397.126 454.336 399.55C454.051 400.334 453.623 401.119 453.124 401.903C452.554 402.687 451.841 403.4 450.914 403.971C449.916 404.613 448.704 405.112 447.278 405.539C445.851 405.967 444.069 406.11 441.93 406.11C439.791 406.11 437.866 406.039 436.083 405.753C434.301 405.468 432.732 404.898 431.377 404.042C430.023 403.186 428.953 401.903 428.169 400.192C427.313 398.481 426.885 396.199 426.885 393.276V376.448H422.75C422.108 376.448 421.466 376.52 420.896 376.52C420.325 376.591 419.826 376.734 419.399 376.947C419.256 376.448 419.113 375.949 419.042 375.379C418.971 374.88 418.899 374.381 418.899 373.953C418.757 372.883 418.899 372.028 419.256 371.386C419.612 370.816 420.254 370.459 421.252 370.459C422.037 370.459 422.75 370.602 423.463 370.816C424.104 371.029 424.675 371.243 425.103 371.386H426.885V367.322C426.885 366.751 426.814 366.252 426.814 365.824C426.814 365.397 426.743 365.04 426.743 364.612C426.671 364.256 426.6 363.828 426.529 363.4C426.386 362.972 426.315 362.473 426.172 361.832C427.384 361.19 428.81 360.548 430.522 359.906C432.162 359.336 433.801 358.979 435.441 358.979C436.582 358.979 437.509 359.122 438.365 359.407C439.149 359.692 439.791 359.978 440.361 360.405C440.932 360.833 441.359 361.261 441.645 361.689C441.93 362.117 442.144 362.545 442.286 362.901C441.716 363.471 441.288 364.256 441.003 365.397C440.718 366.537 440.575 367.536 440.575 368.463V371.386H449.987C450.914 371.386 451.556 371.671 451.983 372.17C452.34 372.669 452.554 373.24 452.554 373.881C452.554 375.022 452.126 376.021 451.342 376.876C450.486 377.732 449.417 378.16 448.062 378.16ZM474.186 400.477C474.186 401.475 474.329 402.117 474.685 402.402C474.97 402.759 475.398 402.973 475.969 403.115C476.61 403.258 476.967 403.686 476.967 404.327C476.967 404.969 476.61 405.254 475.969 405.254H458.714C458.001 405.254 457.715 404.969 457.715 404.327C457.715 403.686 458.001 403.258 458.714 403.115C459.141 403.044 459.569 402.83 459.854 402.545C460.14 402.26 460.354 401.689 460.496 400.905V379.3C460.496 378.16 460.425 377.019 460.354 375.878C460.282 374.808 460.068 373.668 459.783 372.384C460.995 372.028 462.421 371.671 464.061 371.243C465.63 370.816 467.341 370.602 469.052 370.602C470.193 370.602 471.12 370.744 471.976 371.029C472.76 371.315 473.402 371.6 473.972 372.028C474.543 372.455 474.97 372.883 475.256 373.311C475.541 373.739 475.755 374.167 475.897 374.523C475.327 375.379 474.899 376.52 474.614 377.803C474.329 379.087 474.186 380.227 474.186 381.154V400.477ZM461.067 360.477C461.067 358.694 461.637 357.197 462.92 355.913C464.133 354.63 465.701 353.988 467.555 353.988C468.411 353.988 469.266 354.202 470.122 354.487C470.906 354.844 471.619 355.343 472.19 355.913C472.76 356.484 473.259 357.197 473.616 357.981C473.901 358.766 474.115 359.621 474.115 360.477C474.115 361.404 473.901 362.259 473.616 363.044C473.259 363.828 472.76 364.541 472.19 365.111C471.619 365.682 470.906 366.181 470.122 366.537C469.266 366.894 468.411 367.037 467.555 367.037C466.557 367.037 465.701 366.894 464.917 366.537C464.133 366.181 463.491 365.682 462.92 365.111C462.35 364.541 461.851 363.828 461.566 363.044C461.209 362.259 461.067 361.404 461.067 360.477ZM521.146 388.284C521.146 390.994 520.647 393.489 519.791 395.7C518.936 397.91 517.652 399.764 516.012 401.333C514.372 402.901 512.376 404.113 510.023 404.969C507.67 405.825 505.032 406.252 502.109 406.252C499.256 406.252 496.618 405.825 494.337 404.969C492.055 404.113 490.059 402.901 488.419 401.333C486.779 399.764 485.495 397.91 484.64 395.7C483.784 393.489 483.356 390.994 483.356 388.284C483.356 385.718 483.784 383.293 484.64 381.083C485.495 378.944 486.779 377.019 488.419 375.45C490.059 373.881 492.055 372.669 494.337 371.814C496.618 370.958 499.256 370.53 502.109 370.53C505.032 370.53 507.67 370.958 510.023 371.814C512.376 372.669 514.372 373.881 516.012 375.45C517.652 377.019 518.936 378.873 519.791 381.012C520.647 383.222 521.146 385.646 521.146 388.284ZM507.527 388.427C507.527 384.078 507.171 380.869 506.387 378.873C505.602 376.876 504.248 375.878 502.251 375.878C500.397 375.878 499.043 376.876 498.187 378.873C497.331 380.869 496.975 384.078 496.975 388.427C496.975 392.99 497.331 396.199 498.187 398.124C499.043 400.049 500.397 400.976 502.251 400.976C504.248 400.976 505.602 400.049 506.387 398.124C507.171 396.199 507.527 392.99 507.527 388.427ZM530.336 375.878C530.336 374.951 530.193 374.381 529.979 374.095C529.765 373.81 529.409 373.596 528.91 373.454C528.197 373.311 527.911 372.955 527.911 372.313C527.911 371.742 528.197 371.386 528.91 371.315C529.694 371.243 530.55 371.172 531.548 371.101C532.546 371.029 533.473 370.958 534.4 370.958C535.255 370.958 536.111 370.887 536.895 370.887C537.68 370.887 538.321 370.816 538.821 370.816C539.391 370.816 540.033 370.887 540.674 370.887C541.245 370.887 541.815 370.958 542.314 371.101C542.813 371.243 543.241 371.386 543.526 371.671C543.812 371.956 544.026 372.313 544.026 372.741V373.81C545.309 372.741 546.735 371.885 548.232 371.315C549.658 370.744 551.227 370.459 552.867 370.459C557.43 370.459 560.781 371.6 562.992 373.739C565.202 375.878 566.343 378.873 566.486 382.723V400.477C566.486 401.475 566.628 402.117 566.985 402.402C567.27 402.759 567.698 402.973 568.268 403.115C568.91 403.258 569.266 403.686 569.266 404.327C569.266 404.969 568.91 405.254 568.268 405.254H551.013C550.3 405.254 550.015 404.969 550.015 404.327C550.015 403.686 550.3 403.258 551.013 403.115C551.512 402.973 551.94 402.759 552.297 402.402C552.582 402.117 552.724 401.618 552.796 400.905V400.477L552.867 383.222C552.867 380.869 552.582 379.158 552.154 378.16C551.726 377.161 550.799 376.591 549.516 376.591C548.803 376.591 548.161 376.876 547.591 377.304C546.949 377.803 546.379 378.445 545.879 379.3C545.309 380.156 544.881 381.083 544.596 382.152C544.239 383.293 544.026 384.434 544.026 385.575V400.477C544.026 401.475 544.168 402.117 544.525 402.402C544.81 402.759 545.238 402.973 545.808 403.115C546.45 403.258 546.806 403.686 546.806 404.327C546.806 404.969 546.45 405.254 545.808 405.254H528.553C527.84 405.254 527.555 404.969 527.555 404.327C527.555 403.686 527.84 403.258 528.553 403.115C529.052 402.973 529.48 402.759 529.837 402.402C530.122 402.117 530.336 401.475 530.336 400.477V375.878Z" fill="white"/>
<path d="M8.93699 161.847C5.66852 157.608 3.16609 153.267 1.68507 148.773C0.152971 144.278 -0.357728 139.529 0.35725 134.473C1.02116 129.417 3.11502 123.748 6.99633 117.314C10.7755 111.083 15.6782 105.006 21.4491 99.0306C27.22 93.0554 33.6548 87.3867 40.4471 81.8201C47.1883 76.3045 54.1338 70.9932 61.0793 65.9373C68.0248 60.8814 74.6128 56.4383 81.2008 52.9145C86.0014 50.361 89.6784 49.0332 92.4362 49.0332C95.194 49.0332 96.8282 50.5142 97.4921 53.4763C98.156 56.4894 97.8496 60.9325 96.7261 66.8566C95.6025 72.7807 93.4576 80.2369 90.5466 89.1741C88.5038 95.4046 85.8482 100.716 82.3754 104.904C78.9027 109.142 75.4299 111.645 72.2125 112.615C70.9869 112.973 69.608 113.228 68.0759 113.228C66.5949 113.228 65.0628 113.075 63.6328 112.768C62.2028 112.462 60.875 112.002 59.5983 111.389C58.3215 110.777 57.3001 110.011 56.483 109.193C59.394 101.788 61.8964 95.66 63.6839 90.8083C65.4713 85.9567 66.7991 82.1775 67.412 79.4198C68.0248 76.662 68.0248 74.9256 67.3098 74.1596C66.5949 73.3935 65.3692 73.3425 63.5307 74.0574C59.7515 75.5385 55.1041 79.0112 49.7418 84.3735C44.3795 89.7359 39.4768 95.66 35.6976 102.503C33.6037 106.283 32.1227 109.704 31.2545 112.819C30.3863 115.884 30.2331 118.846 30.7949 121.757C31.3567 124.668 32.6334 127.783 34.6762 131.154C36.7701 134.524 40.0385 138.405 44.3284 142.9C48.9247 147.7 53.3678 153.318 57.6576 159.14C61.8964 164.962 65.8799 171.499 69.608 178.546C73.3361 185.543 76.6556 193.203 79.7198 201.375C82.784 209.495 85.5418 218.432 88.2485 227.931C91.2616 238.349 93.8151 247.593 95.7557 255.56C97.6964 263.476 98.6667 269.655 98.5135 273.996C98.3603 278.337 96.9304 280.839 94.1726 281.554C91.4148 282.269 86.9717 280.839 80.6391 277.469C75.6853 274.813 70.323 271.289 64.2456 266.999C58.2194 262.761 51.7846 257.96 44.9923 252.649C38.2511 247.389 31.3056 241.72 24.6665 235.591C17.9764 229.463 11.7458 222.875 6.68991 215.521C3.57465 210.976 2.34897 207.554 2.8086 205.154C3.26823 202.753 4.8514 201.528 7.25168 201.63C8.11987 201.681 9.29447 201.834 10.6734 202.294C12.0522 202.702 13.5843 203.315 15.1164 204.03C16.6996 204.745 18.2828 205.613 19.9681 206.635C21.6534 207.656 23.1855 208.78 24.7176 209.954C27.3221 217.411 30.846 223.743 34.6251 229.106C38.4554 234.468 42.3877 239.064 46.1669 242.945C49.9461 246.827 53.4188 249.891 56.483 252.138C59.4961 254.385 62.0496 255.917 64.0414 256.734C68.0759 258.317 69.608 257.041 69.0973 252.649C68.5866 248.206 65.982 241.056 61.8964 231.199C59.394 225.224 57.0959 219.811 54.6445 215.215C52.2442 210.567 49.4354 206.073 46.1669 201.732C43.0006 197.595 39.2725 193.254 35.1358 188.965C30.9992 184.726 26.0965 179.976 20.9384 175.023C16.24 170.528 12.2055 166.085 8.93699 161.847Z" fill="white"/>
<path d="M174.505 177.883C173.024 176.249 171.237 175.431 169.143 175.431C155.405 175.278 148.715 175.176 135.59 174.972C136.765 218.381 140.799 239.524 153.72 278.899C163.883 280.942 169.143 281.912 179.766 283.7C182.574 279.92 185.843 276.397 189.469 273.332C193.095 270.268 196.721 269.247 199.836 270.013C202.798 270.728 205.403 272.617 207.292 275.988C209.233 279.359 210.765 283.495 212.093 288.347C213.37 293.199 214.442 298.459 215.361 304.025C216.281 309.643 217.149 315.005 217.966 320.163C216.842 319.244 215.157 318.427 213.012 317.763C210.867 317.099 209.029 316.64 207.548 316.384C174.505 310.001 158.98 305.864 130.687 296.212C129.309 295.752 127.828 294.067 126.244 291.156C124.559 287.989 124.457 286.406 125.376 286.049C126.091 285.793 126.5 284.823 126.398 283.393C126.295 281.963 125.172 278.95 123.18 274.252C97.7474 191.723 98.0538 136.21 124.253 53.9363C125.785 50.0039 126.653 47.4504 126.653 46.2758C126.704 45.1012 126.347 44.182 125.734 43.9266C124.866 43.5691 124.917 41.986 126.602 38.8707C128.185 35.9597 129.666 34.2744 131.045 33.8148C160.053 23.8562 176.038 19.6174 210.05 13.0804C213.523 12.4165 214.953 14.8168 214.595 20.3834C214.238 25.8989 212.808 32.2827 210.254 39.3814C207.701 46.5312 204.279 53.3745 199.836 59.8604C195.444 66.2952 190.695 69.9722 185.639 70.8404C186.303 65.3759 186.558 60.2179 186.456 55.4173C186.303 50.6168 185.741 47.2972 184.617 45.4587C172.054 47.5015 165.926 48.625 153.975 51.0764C142.127 86.8764 138.195 106.028 135.999 145.351C153.924 144.79 163.219 144.534 182.319 144.075C184.975 144.024 186.864 145.556 188.039 148.62C189.214 151.684 189.775 155.31 189.724 159.549C189.673 166.392 188.55 172.674 186.456 178.087C184.311 183.552 181.4 186.207 177.57 186.105C176.957 182.224 175.986 179.517 174.505 177.883Z" fill="white"/>
<path d="M283.08 2.96056C285.48 2.75628 286.349 5.30978 285.736 10.7232C285.327 14.4002 283.693 16.6984 281.293 17.8219C279.403 18.6901 277.616 20.2222 275.981 22.0096C274.347 23.7971 273.121 27.0145 272.355 31.6618C261.937 118.685 262.959 207.444 271.896 294.518C282.161 295.284 287.37 295.591 297.89 296.102C302.129 291.352 306.674 287.011 311.424 283.13C316.224 279.249 320.565 277.767 323.987 278.278C327.255 278.789 329.86 280.576 331.392 284.049C332.924 287.522 333.946 291.863 334.405 297.021C334.865 302.179 334.916 307.848 334.61 313.925C334.303 320.002 333.895 325.926 333.435 331.595C332.362 330.727 330.626 330.114 328.277 329.757C325.928 329.399 323.885 329.195 322.2 329.144C286.349 327.816 268.934 326.182 235.994 321.228C234.308 320.973 233.083 319.083 232.317 315.559C231.499 311.729 232.01 309.584 233.389 308.971C234.513 308.46 235.381 307.082 235.789 305.243C236.249 303.405 235.943 299.676 234.972 294.11C221.234 208.415 219.549 119.093 235.483 33.4493C236.045 28.7508 236.198 25.5845 235.738 24.0524C235.33 22.5203 234.513 21.2436 233.491 20.7329C232.163 20.069 231.602 17.924 232.419 14.1449C233.185 10.621 234.41 8.73146 236.096 8.47611C254.532 5.7694 263.878 4.64587 283.08 2.96056Z" fill="white"/>
<path d="M442.673 178.798C441.141 177.112 439.201 176.244 436.902 176.244C421.786 176.346 414.125 176.346 398.6 176.397C398.345 226.344 397.579 250.755 395.025 296.667C407.282 296.207 413.308 295.901 425.259 295.135C430.263 289.926 435.421 285.125 440.579 280.886C445.789 276.648 450.181 274.758 453.296 274.962C456.309 275.167 458.505 276.648 459.424 279.865C460.344 283.082 460.65 287.168 460.19 292.071C459.782 296.973 458.811 302.438 457.381 308.311C455.952 314.235 454.368 319.955 452.734 325.47C451.917 324.806 450.436 324.449 448.291 324.449C446.146 324.449 444.257 324.551 442.622 324.704C407.18 328.739 388.437 329.811 350.288 329.709C348.398 329.709 347.479 327.82 347.428 324.091C347.377 320.057 348.501 317.657 350.237 316.737C351.667 315.971 352.893 314.439 353.812 312.396C354.731 310.354 355.191 306.421 355.191 300.497C355.446 209.337 355.446 118.127 355.191 26.967C354.884 21.9622 354.323 18.5915 353.505 16.8552C352.688 15.1188 351.565 13.6378 350.237 12.9228C348.552 12.0035 347.428 9.60325 347.428 5.56873C347.53 1.8917 348.501 0.00211229 350.339 0.00211229C389.459 -0.100027 408.712 1.07458 444.92 5.31338C448.597 5.77301 451.559 8.99041 453.704 15.1188C455.849 21.1961 457.024 27.733 457.024 34.8828C457.024 42.0326 455.696 48.6717 452.989 54.8001C450.283 60.9285 446.146 64.0437 440.733 64.0437C439.813 58.1196 438.332 52.3998 436.392 46.8842C434.451 41.3687 432.408 37.4363 430.314 34.985C416.372 34.0146 409.274 33.6061 394.923 33.0954C397.272 74.8705 398.038 96.9838 398.498 142.232C419.743 142.334 430.161 142.436 450.64 142.691C453.5 142.742 455.594 144.428 457.024 147.696C458.403 150.965 459.118 154.795 459.169 159.187C459.22 166.388 457.943 172.874 455.492 178.696C452.989 184.518 449.67 187.428 445.533 187.48C445.176 183.394 444.205 180.483 442.673 178.798Z" fill="white"/>
<path d="M489.606 97.5475C490.372 77.9367 491.853 61.6965 494.254 48.7247C496.654 35.753 500.229 26.6115 505.285 20.9427C510.341 15.274 516.929 13.7419 525.713 15.989C532.097 17.6232 538.429 20.7385 544.966 25.2326C551.503 29.6757 557.836 35.1402 564.015 41.626C570.195 48.1119 576.017 55.4149 581.277 63.5861C586.537 71.8083 590.929 80.6434 593.993 90.2445C596.138 96.8836 596.291 102.144 594.657 105.974C593.023 109.855 590.316 111.847 586.997 112.051C584.443 112.205 581.072 111.592 577.089 109.906C573.106 108.221 569.377 105.77 565.956 102.552C564.424 92.747 562.228 84.3204 559.623 77.1707C557.019 70.0209 554.21 64.1478 551.299 59.3473C548.388 54.5467 545.579 51.0229 542.872 48.5715C540.166 46.1202 537.612 44.6392 535.212 44.1795C528.062 42.8006 525.56 50.9718 525.56 69.9698C525.56 89.0189 528.777 120.12 528.828 164.704C528.879 209.595 525.815 241.003 526.172 260.052C526.53 279.152 529.39 287.272 536.948 285.791C539.604 285.28 542.413 283.697 545.528 281.093C548.592 278.437 551.758 274.658 554.874 269.806C557.989 264.903 561.053 258.826 563.811 251.421C566.62 244.067 568.867 235.436 570.297 225.426C573.718 222.209 577.395 219.809 581.379 218.123C585.362 216.438 588.682 215.825 591.235 216.03C594.555 216.285 597.262 218.277 598.896 222.107C600.53 225.937 600.377 231.146 598.232 237.785C595.168 247.387 590.725 256.273 585.26 264.699C579.796 273.075 573.718 280.582 567.386 287.221C561.002 293.86 554.363 299.529 547.52 304.278C540.676 309.028 534.088 312.347 527.5 314.084C517.899 316.586 510.8 315.054 505.591 309.181C500.382 303.308 496.705 293.911 494.203 280.786C491.7 267.661 490.27 251.268 489.555 231.453C488.891 211.638 488.738 189.371 488.687 164.755C488.687 139.68 488.789 117.209 489.606 97.5475Z" fill="white"/>
<path d="M615.749 74.721C616.617 78.5002 617.792 82.6368 619.273 87.0799C614.932 85.9564 610.489 82.5858 605.892 76.917C601.296 71.2482 597.262 65.3752 593.789 59.349C590.316 53.3227 587.763 48.0625 586.128 43.6705C584.494 39.2785 584.954 37.6443 587.814 38.7167C618.915 50.5139 632.806 57.4594 655.737 72.6782C657.83 74.0571 661.252 76.6106 665.849 80.2365C670.394 83.8625 674.581 87.3863 678.054 91.0633C681.578 94.7404 683.774 97.9067 684.744 100.767C685.664 103.575 684.336 104.699 681.118 103.729C678.514 100.154 675.501 96.5789 672.181 93.0551C668.862 89.5313 665.9 86.8245 663.601 84.935C659.465 83.1475 657.371 82.2283 653.03 80.4919C693.426 131.766 692.813 200.557 652.009 251.423C649.2 255.049 647.412 257.347 646.902 258.368C646.391 259.39 646.34 259.951 646.697 260.002C647.259 260.053 646.544 261.126 644.246 263.526C642.101 265.722 640.416 267.152 639.343 267.765C628.159 273.996 622.184 277.009 609.467 282.575C608.242 283.137 608.548 282.116 610.387 279.46C612.378 276.651 614.217 274.659 615.8 273.536C617.23 272.566 618.711 271.238 620.243 269.604C621.775 267.969 623.869 265.16 626.371 261.075C662.886 202.498 663.295 129.928 627.291 71.044C622.49 69.4608 620.09 68.6437 615.085 67.1116C614.574 68.4394 614.881 70.9418 615.749 74.721Z" fill="white"/>
</g>
<defs>
<clipPath id="clip0_250_798">
<rect width="685" height="431.949" fill="white"/>
</clipPath>
</defs>
</svg>
